<svg width="130" height="48" viewBox="0 0 130 48" fill="none" xmlns="http://www.w3.org/2000/svg">
<path d="M59.2373 36.3477H61.8637C62.8682 36.3477 63.3201 36.7906 63.3201 37.5311C63.3201 38.106 63.0158 38.3902 62.631 38.5289V38.5423C63.1724 38.6676 63.5237 39.0255 63.5237 39.7056C63.5237 40.3812 63.0539 41.068 62.0292 41.068H59.2373V36.3477ZM61.8503 38.3007C62.3671 38.3007 62.6176 38.0166 62.6176 37.6385C62.6176 37.209 62.385 36.9562 61.81 36.9562H59.9375V38.2984H61.8503V38.3007ZM61.8369 40.464C62.6176 40.464 62.8234 40.068 62.8234 39.6631C62.8234 39.2917 62.6109 38.9092 61.8973 38.9092H59.9398V40.464H61.8369Z" fill="white"/>
<path d="M65.04 36.3477H68.8365V36.9562H65.7403V38.3253H68.7447V38.9338H65.7403V40.4618H68.9036V41.0703H65.04V36.3477Z" fill="white"/>
<path d="M71.6378 36.9562H69.8525V36.3477H74.1254V36.9562H72.3402V41.0703H71.64V36.9562H71.6378Z" fill="white"/>
<path d="M76.5792 36.9562H74.7939V36.3477H79.0669V36.9562H77.2816V41.0703H76.5814V36.9562H76.5792Z" fill="white"/>
<path d="M80.2393 36.3477H84.0357V36.9562H80.9395V38.3253H83.944V38.9338H80.9395V40.4618H84.1028V41.0703H80.2393V36.3477Z" fill="white"/>
<path d="M85.5801 36.3477H88.504C89.4503 36.3477 89.7948 37.0031 89.7948 37.6049C89.7948 38.1799 89.5174 38.6027 89.0007 38.7682V38.7817C89.4168 38.8421 89.6629 39.2313 89.6897 39.7861C89.73 40.6653 89.7568 40.8846 89.9156 41.0703H89.1752C89.0633 40.9383 89.0633 40.7392 89.0297 40.1709C88.9828 39.323 88.6986 39.0658 88.117 39.0658H86.2848V41.0703H85.5845V36.3477H85.5801ZM88.24 38.4595C88.9291 38.4595 89.0924 38.0434 89.0924 37.7123C89.0924 37.2626 88.8217 36.9584 88.2579 36.9584H86.2803V38.4595H88.24Z" fill="white"/>
<path d="M94.1214 36.3477H94.8216V40.4618H97.6918V41.0703H94.1191V36.3477H94.1214Z" fill="white"/>
<path d="M98.9192 36.3477H102.716V36.9562H99.6194V38.3253H102.622V38.9338H99.6194V40.4618H102.781V41.0703H98.917V36.3477H98.9192Z" fill="white"/>
<path d="M106.819 38.5258H108.989V41.0716H108.486L108.367 40.396C108.056 40.7607 107.553 41.1902 106.555 41.1902C104.662 41.1902 104.061 39.8278 104.061 38.7898C104.061 36.9643 105.311 36.2305 106.535 36.2305C107.508 36.2305 108.613 36.5347 108.911 37.839H108.17C107.951 37.1835 107.463 36.8412 106.568 36.8412C105.318 36.8412 104.763 37.7271 104.763 38.7338C104.763 40.0694 105.618 40.5862 106.602 40.5862C107.627 40.5862 108.295 39.9777 108.369 39.1365H106.821V38.5258H106.819Z" fill="white"/>
<path d="M113.781 39.6944H111.465L110.863 41.0703H110.109L112.246 36.3477H113.047L115.183 41.0703H114.382L113.781 39.6944ZM112.615 36.9964L111.729 39.0859H113.521L112.615 36.9964Z" fill="white"/>
<path d="M116.349 36.3477H117.049V40.4618H119.919V41.0703H116.347V36.3477H116.349Z" fill="white"/>
<path d="M55.2191 29.7662C55.2191 32.9899 53.9395 34.0481 50.9865 34.0481H48.8701V30.6521H49.7068C50.5681 30.6275 51.0357 30.3814 51.0357 29.4709V16.9922H55.2191V29.7662Z" fill="white"/>
<path d="M69.6669 29.7662H65.6065V28.019H65.5573C64.7698 29.3233 63.1457 30.1354 61.6692 30.1354C58.0025 30.1354 56.9443 28.019 56.9443 24.6723V16.9922H61.1278V24.4016C61.1278 26.0996 61.866 26.6902 63.1949 26.6902C64.1054 26.6902 65.4835 26.0996 65.4835 23.8356V16.9922H69.6669V29.7662Z" fill="white"/>
<path d="M74.512 25.5579C74.512 26.1977 74.7827 26.6653 75.201 26.9852C75.5948 27.2805 76.1607 27.4281 76.7514 27.4281C77.5634 27.4281 78.72 27.0836 78.72 26.0747C78.72 25.0903 77.4158 24.8935 76.6775 24.7212C74.0444 24.0568 70.7469 23.9829 70.7469 20.5378C70.7469 17.4617 74.069 16.625 76.5791 16.625C79.3845 16.625 82.3129 17.4371 82.4605 20.7592H78.597C78.597 20.2178 78.4001 19.8733 78.0556 19.6518C77.7111 19.4304 77.2435 19.3319 76.7267 19.3319C76.0377 19.3319 74.9303 19.4058 74.9303 20.2917C74.9303 21.4975 77.7357 21.719 79.6552 22.1373C82.2391 22.6541 82.9035 24.5243 82.9035 25.5825C82.9035 29.0031 79.6552 30.1351 76.776 30.1351C73.7491 30.1351 70.6484 29.1261 70.5254 25.5579H74.512Z" fill="white"/>
<path d="M87.3105 12.1953H91.494V29.768H87.3105V12.1953Z" fill="white"/>
<path d="M93.0695 20.9315C93.1433 19.2581 93.9308 18.1753 95.0628 17.5109C96.1948 16.8711 97.6713 16.625 99.1232 16.625C102.15 16.625 105.078 17.2894 105.078 20.9069V26.493C105.078 27.5758 105.078 28.757 105.571 29.7659H101.363C101.215 29.3722 101.166 28.9785 101.116 28.5601C100.034 29.6921 98.4342 30.1351 96.9084 30.1351C94.4722 30.1351 92.5527 28.9046 92.5527 26.2715C92.5527 22.1127 97.0807 22.4326 99.9845 21.842C100.698 21.6944 101.092 21.4483 101.092 20.6608C101.092 19.7011 99.9353 19.3319 99.074 19.3319C97.9174 19.3319 97.1791 19.8487 96.9823 20.9315H93.0695ZM98.4834 27.5512C100.477 27.5512 101.141 26.4192 101.043 23.7861C100.452 24.1552 99.3693 24.229 98.4588 24.4751C97.5236 24.6966 96.7362 25.0903 96.7362 26.0993C96.7362 27.1328 97.5483 27.5512 98.4834 27.5512Z" fill="white"/>
<path d="M121.738 29.7662H117.505L115.487 21.2763H115.438L113.445 29.7662H109.212L105.226 16.9922H109.458L111.599 25.2606H111.648L113.469 16.9922H117.456L119.326 25.2383H119.375L121.467 16.9922H125.727L121.738 29.7662Z" fill="white"/>
<path d="M55.228 11.1328H51.0244V15.3364H55.228V11.1328Z" fill="white"/>
<path d="M128.568 25.5898H124.364V29.7934H128.568V25.5898Z" fill="white"/>
<path d="M25.7491 22.4008C23.6529 28.5664 21.1674 34.204 18.5187 37.0563C16.6797 39.0362 15.1003 39.5149 14.0019 39.5149C13.6081 39.5149 13.2748 39.4523 13.0153 39.3762C11.5567 38.9489 10.5231 37.6223 10.1831 35.7364C9.58354 32.4165 11.2502 27.3673 16.324 23.5753C18.1316 22.2241 20.7267 21.1033 23.9303 20.4031C24.2949 19.2867 24.6618 18.119 25.0265 16.9042C26.4404 12.1928 27.5746 7.61113 28.3688 4.00263C28.3732 3.98026 28.3777 3.95789 28.3822 3.93552C28.3553 3.92657 28.3285 3.91986 28.3017 3.91091C26.4359 3.36728 24.4627 3.07422 22.4225 3.07422C10.852 3.07422 1.47168 12.4545 1.47168 24.025C1.47168 35.5955 10.852 44.9758 22.4225 44.9758C33.9929 44.9758 43.3732 35.5955 43.3732 24.025C43.3732 23.893 43.371 23.761 43.3688 23.629C43.3688 23.5955 43.3665 23.5619 43.3665 23.5306C43.3039 23.5149 43.2412 23.4993 43.1786 23.4836C37.3844 22.0809 31.0556 21.5485 25.7491 22.4008Z" fill="white"/>
<path d="M12.4984 35.3183C12.6729 36.2802 13.1113 36.9536 13.6773 37.1192C14.4514 37.3474 15.6169 36.7232 16.7959 35.4547C18.769 33.3295 20.901 29.0677 23.0532 22.9805C21.0196 23.542 19.2075 24.3563 17.7333 25.4592C13.4626 28.6516 12.0286 32.7098 12.4984 35.3183Z" fill="white"/>
<path d="M26.5566 19.9424C31.1987 19.3227 36.8251 19.5286 43.0085 20.9872C43.06 20.9984 43.1092 21.0118 43.1607 21.023C43.1562 20.9872 43.1495 20.9514 43.145 20.9156C42.06 13.6248 37.2188 7.55988 30.6551 4.75227C30.6417 4.74556 30.6282 4.74109 30.6148 4.73438C30.6103 4.75003 30.6081 4.76793 30.6036 4.78359C29.6506 9.06771 28.2569 14.589 26.5566 19.9424Z" fill="white"/>
</svg>
