<svg width="194" height="71" viewBox="0 0 194 71" fill="none" xmlns="http://www.w3.org/2000/svg">
<path d="M88.3999 53.9141H92.3193C93.8183 53.9141 94.4927 54.5751 94.4927 55.6801C94.4927 56.5381 94.0386 56.9621 93.4644 57.1691V57.1891C94.2723 57.3761 94.7965 57.9102 94.7965 58.9251C94.7965 59.9334 94.0954 60.9583 92.5663 60.9583H88.3999V53.9141ZM92.2993 56.8286C93.0705 56.8286 93.4444 56.4046 93.4444 55.8404C93.4444 55.1994 93.0972 54.8221 92.2392 54.8221H89.4449V56.8252H92.2993V56.8286ZM92.2792 60.0569C93.4444 60.0569 93.7515 59.466 93.7515 58.8617C93.7515 58.3075 93.4344 57.7366 92.3694 57.7366H89.4482V60.0569H92.2792Z" fill="white"/>
<path d="M97.0601 53.9141H102.726V54.8221H98.105V56.8653H102.589V57.7734H98.105V60.0536H102.826V60.9616H97.0601V53.9141Z" fill="white"/>
<path d="M106.905 54.8221H104.241V53.9141H110.618V54.8221H107.954V60.9616H106.909V54.8221H106.905Z" fill="white"/>
<path d="M114.28 54.8221H111.616V53.9141H117.992V54.8221H115.328V60.9616H114.283V54.8221H114.28Z" fill="white"/>
<path d="M119.742 53.9141H125.408V54.8221H120.787V56.8653H125.271V57.7734H120.787V60.0536H125.508V60.9616H119.742V53.9141Z" fill="white"/>
<path d="M127.711 53.9141H132.074C133.487 53.9141 134.001 54.8922 134.001 55.7903C134.001 56.6483 133.587 57.2793 132.816 57.5263V57.5464C133.436 57.6365 133.804 58.2174 133.844 59.0453C133.904 60.3574 133.944 60.6845 134.181 60.9616H133.076C132.909 60.7647 132.909 60.4675 132.859 59.6196C132.789 58.3543 132.365 57.9703 131.497 57.9703H128.763V60.9616H127.718V53.9141H127.711ZM131.68 57.0656C132.709 57.0656 132.952 56.4446 132.952 55.9506C132.952 55.2795 132.548 54.8255 131.707 54.8255H128.756V57.0656H131.68Z" fill="white"/>
<path d="M140.457 53.9141H141.502V60.0536H145.785V60.9616H140.454V53.9141H140.457Z" fill="white"/>
<path d="M147.618 53.9141H153.284V54.8221H148.663V56.8653H153.143V57.7734H148.663V60.0536H153.38V60.9616H147.615V53.9141H147.618Z" fill="white"/>
<path d="M159.406 57.1636H162.645V60.9628H161.894L161.717 59.9546C161.253 60.4988 160.501 61.1397 159.012 61.1397C156.188 61.1397 155.29 59.1066 155.29 57.5575C155.29 54.8333 157.156 53.7383 158.982 53.7383C160.435 53.7383 162.084 54.1923 162.528 56.1387H161.423C161.096 55.1605 160.368 54.6497 159.032 54.6497C157.166 54.6497 156.338 55.9717 156.338 57.4741C156.338 59.4672 157.614 60.2384 159.083 60.2384C160.612 60.2384 161.61 59.3303 161.72 58.075H159.41V57.1636H159.406Z" fill="white"/>
<path d="M169.796 58.9085H166.341L165.442 60.9616H164.317L167.506 53.9141H168.701L171.889 60.9616H170.694L169.796 58.9085ZM168.056 54.8822L166.734 58.0004H169.409L168.056 54.8822Z" fill="white"/>
<path d="M173.628 53.9141H174.673V60.0536H178.957V60.9616H173.625V53.9141H173.628Z" fill="white"/>
<path d="M82.4039 44.098C82.4039 48.9087 80.4942 50.4878 76.0874 50.4878H72.9292V45.42H74.1778C75.4631 45.3833 76.1609 45.016 76.1609 43.6573V25.0352H82.4039V44.098Z" fill="white"/>
<path d="M103.964 44.098H97.9047V41.4906H97.8312C96.6561 43.437 94.2323 44.6488 92.0289 44.6488C86.5571 44.6488 84.978 41.4906 84.978 36.4962V25.0352H91.221V36.0923C91.221 38.6262 92.3227 39.5075 94.3058 39.5075C95.6646 39.5075 97.7211 38.6262 97.7211 35.2476V25.0352H103.964V44.098Z" fill="white"/>
<path d="M111.196 37.8111C111.196 38.7659 111.6 39.4636 112.224 39.941C112.812 40.3817 113.656 40.6021 114.538 40.6021C115.75 40.6021 117.476 40.0879 117.476 38.5823C117.476 37.1133 115.529 36.8195 114.427 36.5625C110.498 35.5709 105.577 35.4608 105.577 30.3195C105.577 25.7291 110.535 24.4805 114.281 24.4805C118.467 24.4805 122.837 25.6923 123.058 30.65H117.292C117.292 29.8421 116.998 29.328 116.484 28.9975C115.97 28.6669 115.272 28.52 114.501 28.52C113.473 28.52 111.82 28.6302 111.82 29.9523C111.82 31.7517 116.007 32.0822 118.871 32.7065C122.727 33.4777 123.719 36.2687 123.719 37.8478C123.719 42.9524 118.871 44.6416 114.574 44.6416C110.057 44.6416 105.43 43.136 105.247 37.8111H111.196Z" fill="white"/>
<path d="M130.295 17.8711H136.538V44.095H130.295V17.8711Z" fill="white"/>
<path d="M138.888 30.9071C138.999 28.4099 140.174 26.794 141.863 25.8025C143.552 24.8477 145.756 24.4805 147.922 24.4805C152.439 24.4805 156.809 25.472 156.809 30.8703V39.2066C156.809 40.8224 156.809 42.5851 157.544 44.0908H151.264C151.044 43.5032 150.97 42.9156 150.897 42.2913C149.281 43.9806 146.894 44.6416 144.617 44.6416C140.982 44.6416 138.117 42.8055 138.117 38.8761C138.117 32.6698 144.874 33.1472 149.208 32.2658C150.273 32.0455 150.86 31.6783 150.86 30.5031C150.86 29.0709 149.134 28.52 147.849 28.52C146.123 28.52 145.021 29.2912 144.727 30.9071H138.888ZM146.968 40.7857C149.942 40.7857 150.934 39.0964 150.787 35.167C149.905 35.7178 148.29 35.828 146.931 36.1952C145.535 36.5258 144.36 37.1133 144.36 38.619C144.36 40.1614 145.572 40.7857 146.968 40.7857Z" fill="white"/>
<path d="M181.671 44.098H175.355L172.343 31.4284H172.27L169.295 44.098H162.979L157.03 25.0352H163.346L166.541 37.3742H166.615L169.332 25.0352H175.281L178.072 37.3409H178.146L181.267 25.0352H187.624L181.671 44.098Z" fill="white"/>
<path d="M82.4171 16.2891H76.144V22.5621H82.4171V16.2891Z" fill="white"/>
<path d="M191.863 37.8594H185.59V44.1324H191.863V37.8594Z" fill="white"/>
<path d="M38.4261 33.1069C35.2979 42.3078 31.5889 50.7208 27.6361 54.9774C24.8919 57.932 22.5349 58.6464 20.8957 58.6464C20.3081 58.6464 19.8107 58.5529 19.4234 58.4394C17.2467 57.8018 15.7043 55.822 15.1969 53.0077C14.3022 48.0533 16.7893 40.5184 24.361 34.8596C27.0585 32.8432 30.9312 31.1706 35.7119 30.1256C36.2561 28.4597 36.8036 26.717 37.3478 24.9042C39.4577 17.8733 41.1503 11.0361 42.3355 5.6511C42.3422 5.61772 42.3489 5.58433 42.3555 5.55095C42.3155 5.53759 42.2754 5.52758 42.2353 5.51422C39.451 4.70297 36.5065 4.26562 33.4618 4.26562C16.1951 4.26562 2.19678 18.2639 2.19678 35.5306C2.19678 52.7973 16.1951 66.7957 33.4618 66.7957C50.7285 66.7957 64.7268 52.7973 64.7268 35.5306C64.7268 35.3337 64.7234 35.1367 64.7201 34.9397C64.7201 34.8897 64.7168 34.8396 64.7168 34.7928C64.6233 34.7695 64.5298 34.7461 64.4363 34.7227C55.7896 32.6295 46.345 31.8349 38.4261 33.1069Z" fill="white"/>
<path d="M18.6522 52.3767C18.9126 53.8122 19.5669 54.8171 20.4115 55.0641C21.5667 55.4047 23.306 54.4732 25.0654 52.5803C28.01 49.4087 31.1915 43.0489 34.4032 33.9648C31.3685 34.8028 28.6643 36.018 26.4642 37.6639C20.091 42.4279 17.9511 48.484 18.6522 52.3767Z" fill="white"/>
<path d="M39.6313 29.4334C46.5587 28.5086 54.955 28.8158 64.1826 30.9925C64.2594 31.0091 64.3329 31.0292 64.4097 31.0459C64.403 30.9925 64.393 30.939 64.3863 30.8856C62.7671 20.0055 55.5426 10.9548 45.7475 6.76499C45.7274 6.75497 45.7074 6.7483 45.6874 6.73828C45.6807 6.76165 45.6774 6.78836 45.6707 6.81173C44.2485 13.2049 42.1686 21.4444 39.6313 29.4334Z" fill="white"/>
</svg>
