<svg width="155" height="36" viewBox="0 0 155 36" fill="none" xmlns="http://www.w3.org/2000/svg">
<path fill-rule="evenodd" clip-rule="evenodd" d="M32.5063 0V27.1771L16.5032 36L0.5 27.1771V0H32.5063ZM2.60369 2.37813H30.4026V3.87237H2.60369V2.37813ZM3.04008 4.98404L2.68484 4.34624H16.5059V5.90776H6.2872V8.04193L3.04008 6.75532V5.90776V4.98404ZM26.7191 8.04193V5.90776H16.5059V4.34624H30.327L29.9662 4.98404V5.90776L29.9662 6.75532L26.7191 8.04193ZM15.7011 7.29841V27.5431L8.4131 23.5349L7.45839 21.6985V15.3806L10.7 16.6672V23.8263L12.404 24.7335V7.29841H15.7011ZM17.3052 27.5431V7.29841H20.6023V24.7335L22.3063 23.8263V22.0613L25.5479 20.7802V21.6985L24.5988 23.5349L17.3052 27.5431ZM7.43749 24.5194L16.5088 29.48L25.58 24.5194V25.299L16.5088 30.2597L7.43749 25.299V24.5194ZM16.5088 30.6995L7.43749 25.7805V27.4167L16.5088 32.3409L25.58 27.4167V25.7805L16.5088 30.6995Z" fill="rgba(0,0,0,.1)"/>
<path fill-rule="evenodd" clip-rule="evenodd" d="M122.476 27.0843C122.07 27.3173 121.766 27.6357 121.547 28.0551C121.328 28.4744 121.227 28.9559 121.227 29.4995C121.227 30.0431 121.336 30.5246 121.555 30.9439C121.773 31.3633 122.078 31.6895 122.469 31.9224C122.859 32.1554 123.304 32.2641 123.812 32.2641C124.202 32.2641 124.546 32.1865 124.835 32.0234C125.124 31.8681 125.35 31.6739 125.506 31.4409L125.6 32.2175H126.28V29.2432H123.905V29.9965H125.421V30.1285C125.397 30.5556 125.241 30.8896 124.944 31.1225C124.647 31.3633 124.288 31.4798 123.851 31.4798C123.507 31.4798 123.203 31.4021 122.945 31.2313C122.687 31.0604 122.492 30.8274 122.351 30.5323C122.211 30.2372 122.148 29.8878 122.148 29.4995C122.148 29.1112 122.219 28.7695 122.359 28.4744C122.5 28.1793 122.695 27.9463 122.953 27.7755C123.21 27.6046 123.515 27.5192 123.859 27.5192C124.233 27.5192 124.546 27.6202 124.804 27.8143C125.061 28.0162 125.233 28.288 125.327 28.6297H126.217C126.123 28.0551 125.866 27.5891 125.452 27.2474C125.03 26.9057 124.507 26.7349 123.882 26.7349C123.343 26.7349 122.875 26.8514 122.476 27.0843ZM130.558 32.2175L132.604 26.7814H133.674L135.713 32.2175H134.752L134.237 30.874H131.995L131.488 32.2175H130.558ZM132.245 30.1129H133.987L133.112 27.7444L132.245 30.1129ZM139.989 32.2175V26.7814H140.887V31.4254H143.238V32.2175H139.989ZM113.321 26.7814H116.89V27.5735H114.219V29.0801H116.422V29.8489H114.219V31.4254H116.984V32.2175H113.321V26.7814ZM105.67 26.7814V32.2175H108.919V31.4254H106.568V26.7814H105.67ZM96.3711 26.7814C96.746 26.7814 97.0818 26.8591 97.3708 26.9988C97.6519 27.1386 97.8784 27.3405 98.0346 27.6046C98.1908 27.8686 98.2767 28.1715 98.2767 28.5132C98.2767 28.8782 98.1751 29.1966 97.9877 29.4684C97.7925 29.7479 97.5347 29.9421 97.2146 30.0508L98.3704 32.2175H97.3708L96.3321 30.245H95.1138V32.2175H94.2157V26.7814H96.3711ZM95.1138 29.4684H96.3008C96.621 29.4684 96.8788 29.383 97.0662 29.2121C97.2536 29.0413 97.3551 28.8083 97.3551 28.5132C97.3551 28.2258 97.2536 27.9929 97.0662 27.822C96.8788 27.6512 96.621 27.558 96.3008 27.558H95.1138V29.4684ZM89.6681 26.7814H86.0992V32.2175H89.7619V31.4254H86.9973V29.8489H89.1996V29.0801H86.9973V27.5735H89.6681V26.7814ZM77.4338 26.7814H81.7056V27.5735H80.0188V32.2175H79.1207V27.5735H77.4338V26.7814ZM73.3527 26.7814H69.0808V27.5735H70.7677V32.2175H71.6658V27.5735H73.3527V26.7814ZM61.2766 26.7814H64.8456V27.5735H62.1747V29.0801H64.377V29.8489H62.1747V31.4254H64.9393V32.2175H61.2766V26.7814ZM56.0158 27.1542C55.6878 26.9057 55.2192 26.7814 54.6257 26.7814H52.6187V32.2175H54.696C55.3442 32.2175 55.844 32.0855 56.1954 31.8137C56.5468 31.5496 56.7265 31.1769 56.7265 30.7031C56.7265 29.9887 56.3126 29.5616 55.5004 29.4218C55.8284 29.3519 56.0783 29.2121 56.2501 29.0024C56.4219 28.7927 56.5156 28.5209 56.5156 28.1948C56.5156 27.7521 56.3438 27.4027 56.0158 27.1542ZM54.6491 29.0878H53.5167V27.5269H54.6491C54.9537 27.5269 55.188 27.5968 55.3598 27.7366C55.5316 27.8764 55.6175 28.0628 55.6175 28.3035C55.6175 28.552 55.5316 28.7384 55.3598 28.8782C55.188 29.018 54.9537 29.0878 54.6491 29.0878ZM54.7038 31.4642H53.5167V29.8256H54.7038C55.0474 29.8256 55.3207 29.9033 55.516 30.043C55.7034 30.1906 55.8049 30.3925 55.8049 30.6565C55.8049 30.9128 55.7034 31.1147 55.516 31.2545C55.3286 31.3943 55.0552 31.4642 54.7038 31.4642Z" fill="rgba(0,0,0,.1)"/>
<path fill-rule="evenodd" clip-rule="evenodd" d="M75.9446 2.75065C75.4578 2.55702 74.7601 2.46021 73.8514 2.46021C72.9589 2.46021 72.1151 2.6135 71.32 2.92008C70.5411 3.22666 69.9083 3.70268 69.4215 4.34812C68.9347 4.97742 68.6912 5.79229 68.6912 6.79272C68.6912 7.69633 68.886 8.47086 69.2754 9.1163C69.6811 9.7456 70.2166 10.3104 70.8819 10.8106C71.5472 11.3108 72.2612 11.8029 73.0238 12.287C74.1272 12.9647 75.0197 13.6344 75.7012 14.296C76.3828 14.9575 76.7235 15.7805 76.7235 16.7648C76.7235 17.7329 76.4233 18.459 75.8229 18.9431C75.2225 19.4111 74.5005 19.645 73.6567 19.645C72.6181 19.645 71.7825 19.3707 71.1496 18.8221C70.533 18.2735 70.0705 17.5554 69.7622 16.6679C69.4701 15.7643 69.2916 14.7962 69.2267 13.7635H68.6669C68.6669 14.9898 68.6588 16.0064 68.6426 16.8132C68.6426 17.6038 68.6345 18.2493 68.6182 18.7495C68.6182 19.2497 68.602 19.6854 68.5695 20.0565H69.1294C69.2267 19.3465 69.4052 18.9915 69.6649 18.9915C69.8596 18.9915 70.1354 19.1045 70.4924 19.3304C70.8981 19.5402 71.3768 19.7419 71.9285 19.9355C72.4964 20.1291 73.2591 20.2259 74.2165 20.2259C75.255 20.2259 76.2124 20.0565 77.0886 19.7176C77.9649 19.3788 78.6626 18.8624 79.1819 18.1686C79.7011 17.4747 79.9608 16.6034 79.9608 15.5546C79.9608 14.6671 79.7742 13.9168 79.401 13.3036C79.044 12.6904 78.549 12.1337 77.9162 11.6335C77.2833 11.1172 76.5694 10.6008 75.7743 10.0845C74.9142 9.53584 74.1678 9.05176 73.535 8.63222C72.9183 8.19655 72.4396 7.75281 72.0989 7.301C71.7581 6.83306 71.5877 6.26023 71.5877 5.58252C71.5877 4.79186 71.8474 4.16255 72.3666 3.69461C72.9021 3.22666 73.5674 2.99269 74.3625 2.99269C75.255 2.99269 75.9852 3.2428 76.5531 3.74302C77.1373 4.2271 77.5835 4.84833 77.8919 5.60672C78.2164 6.36511 78.403 7.15578 78.4517 7.97872H79.0115V5.34048C79.0277 4.66277 79.044 4.12221 79.0602 3.71881C79.0926 3.31541 79.117 2.96042 79.1332 2.65384H78.5734C78.476 3.36382 78.2975 3.71881 78.0379 3.71881C77.9243 3.71881 77.8026 3.69461 77.6728 3.6462C77.5592 3.58166 77.4051 3.49291 77.2103 3.37996C76.8533 3.15405 76.4314 2.94428 75.9446 2.75065ZM125.405 2.67807L131.32 17.854C131.564 18.4349 131.823 18.8383 132.099 19.0642C132.391 19.2739 132.659 19.3869 132.902 19.403V19.8871C132.48 19.8548 131.969 19.8387 131.369 19.8387C130.785 19.8226 130.184 19.8145 129.568 19.8145C128.854 19.8145 128.188 19.8226 127.572 19.8387C126.955 19.8387 126.452 19.8548 126.063 19.8871V19.403C126.89 19.3708 127.418 19.2336 127.645 18.9916C127.872 18.7334 127.823 18.1928 127.499 17.3699L126.02 13.4004H120.528L119.759 15.3852C119.337 16.4501 119.134 17.2731 119.15 17.854C119.166 18.4187 119.361 18.8141 119.734 19.04C120.107 19.2659 120.635 19.3869 121.316 19.403V19.8871C120.797 19.8548 120.294 19.8387 119.807 19.8387C119.32 19.8226 118.834 19.8145 118.347 19.8145C117.99 19.8145 117.649 19.8226 117.325 19.8387C117.016 19.8387 116.74 19.8548 116.497 19.8871V19.403C116.854 19.3223 117.203 19.1126 117.544 18.7737C117.901 18.4349 118.241 17.8459 118.566 17.0068L124.14 2.67807C124.335 2.69421 124.545 2.70227 124.773 2.70227C125 2.70227 125.211 2.69421 125.405 2.67807ZM123.328 6.1777L125.839 12.9164H120.716L123.328 6.1777ZM154.413 2.75066V3.23474C154.088 3.3477 153.731 3.5978 153.342 3.98507C152.953 4.37233 152.628 4.99357 152.368 5.84877L147.963 19.9597C147.865 19.9597 147.76 19.9516 147.646 19.9355H147.33H147.014C146.916 19.9516 146.819 19.9597 146.721 19.9597L142.916 8.64424L139.2 19.9597C139.103 19.9597 138.998 19.9516 138.884 19.9355H138.567H138.251C138.154 19.9516 138.056 19.9597 137.959 19.9597L132.604 4.7838C132.393 4.18677 132.134 3.78337 131.825 3.5736C131.533 3.36383 131.265 3.25088 131.022 3.23474V2.75066C131.444 2.7668 131.955 2.78294 132.555 2.79907C133.156 2.81521 133.74 2.82328 134.308 2.82328C134.908 2.82328 135.46 2.81521 135.963 2.79907C136.466 2.78294 136.872 2.7668 137.18 2.75066V3.23474C136.807 3.26702 136.547 3.3719 136.401 3.5494C136.255 3.72689 136.19 3.96086 136.206 4.25131C136.239 4.52562 136.32 4.86448 136.45 5.26788L139.985 15.6995L142.626 7.78107L141.561 4.61437C141.383 4.06575 141.172 3.70269 140.928 3.52519C140.701 3.3477 140.466 3.25088 140.223 3.23474V2.75066C140.612 2.7668 141.083 2.78294 141.634 2.79907C142.202 2.81521 142.762 2.82328 143.314 2.82328C143.995 2.82328 144.636 2.81521 145.237 2.79907C145.837 2.78294 146.324 2.7668 146.697 2.75066V3.23474C146.194 3.25088 145.805 3.30736 145.529 3.40417C145.253 3.48485 145.091 3.67041 145.042 3.96086C145.01 4.23518 145.091 4.67085 145.285 5.26788L148.669 15.618L151.224 7.59146C151.581 6.49421 151.744 5.63094 151.711 5.00164C151.695 4.37233 151.508 3.92859 151.151 3.67042C150.794 3.3961 150.283 3.25088 149.618 3.23474V2.75066C150.153 2.7668 150.656 2.78294 151.127 2.79907C151.614 2.81521 152.101 2.82328 152.587 2.82328C152.961 2.82328 153.293 2.81521 153.585 2.79907C153.894 2.78294 154.17 2.7668 154.413 2.75066ZM110.204 3.23474V2.75066C109.782 2.7668 109.247 2.78294 108.598 2.79907C107.949 2.81521 107.291 2.82328 106.626 2.82328C105.896 2.82328 105.214 2.81521 104.581 2.79907C103.949 2.78294 103.429 2.7668 103.024 2.75066V3.23474C103.559 3.25088 103.957 3.31542 104.216 3.42838C104.492 3.52519 104.671 3.71882 104.752 4.00927C104.849 4.28358 104.898 4.71925 104.898 5.31629V17.3215C104.898 17.9024 104.849 18.338 104.752 18.6285C104.671 18.9189 104.492 19.1126 104.216 19.2094C103.957 19.3062 103.559 19.3707 103.024 19.403V19.8871C103.884 19.8548 104.801 19.8387 105.774 19.8387C106.764 19.8225 107.697 19.8145 108.573 19.8145H110.667C111.478 19.8145 112.403 19.8225 113.441 19.8387C114.48 19.8387 115.413 19.8548 116.24 19.8871C116.176 19.1771 116.127 18.4913 116.094 17.8297C116.078 17.1682 116.07 16.6599 116.07 16.3049C116.07 15.4497 116.094 14.7558 116.143 14.2234H115.583C115.453 15.3045 115.21 16.2242 114.853 16.9826C114.496 17.741 114.025 18.3219 113.441 18.7253C112.857 19.1287 112.143 19.3304 111.299 19.3304H109.912C109.458 19.3304 109.109 19.2901 108.865 19.2094C108.622 19.1287 108.452 18.9593 108.354 18.7011C108.273 18.4268 108.233 18.0314 108.233 17.5151V5.31629C108.233 4.71925 108.281 4.28358 108.379 4.00927C108.476 3.71882 108.663 3.52519 108.938 3.42838C109.23 3.31542 109.652 3.25088 110.204 3.23474ZM96.2769 2.75066C96.212 3.49292 96.1633 4.21904 96.1309 4.92902C96.1146 5.62287 96.1065 6.15536 96.1065 6.52649C96.1065 6.89761 96.1146 7.24454 96.1309 7.56726C96.1471 7.88998 96.1633 8.17236 96.1795 8.4144H95.6197C95.3925 7.12352 95.1167 6.11502 94.7921 5.3889C94.4676 4.64664 94.0376 4.11416 93.5021 3.79144C92.9829 3.46872 92.2932 3.30735 91.4332 3.30735H90.6543V17.1036C90.6543 17.7652 90.7111 18.2574 90.8247 18.5801C90.9545 18.9028 91.206 19.1206 91.5792 19.2336C91.9524 19.3304 92.496 19.3869 93.21 19.403V19.8871C92.7232 19.8548 92.0904 19.8387 91.3115 19.8387C90.5326 19.8225 89.7375 19.8145 88.9261 19.8145C88.0824 19.8145 87.2872 19.8225 86.5408 19.8387C85.8106 19.8387 85.2183 19.8548 84.764 19.8871V19.403C85.4617 19.3869 85.9972 19.3304 86.3704 19.2336C86.7436 19.1206 86.9952 18.9028 87.125 18.5801C87.2548 18.2574 87.3197 17.7652 87.3197 17.1036V3.30735H86.5165C85.6727 3.30735 84.983 3.46872 84.4475 3.79144C83.9121 4.11416 83.482 4.64664 83.1575 5.3889C82.833 6.11502 82.5652 7.12352 82.3543 8.4144H81.7945C81.8269 8.17236 81.8431 7.88998 81.8431 7.56726C81.8594 7.24454 81.8675 6.89761 81.8675 6.52649C81.8675 6.15536 81.8513 5.62287 81.8188 4.92902C81.8026 4.21904 81.762 3.49292 81.6971 2.75066C82.4111 2.7668 83.1981 2.78294 84.0581 2.79907C84.9181 2.81521 85.7781 2.82328 86.6382 2.82328H88.9992H91.3358C92.1959 2.82328 93.0559 2.81521 93.9159 2.79907C94.7759 2.78294 95.5629 2.7668 96.2769 2.75066ZM66.682 2.75066V3.23474C66.1628 3.28315 65.7652 3.40417 65.4894 3.5978C65.2297 3.7753 65.0512 4.06575 64.9539 4.46915C64.8565 4.85641 64.8078 5.4131 64.8078 6.13922V12.8437C64.8078 13.9248 64.7348 14.893 64.5888 15.7482C64.459 16.6034 64.1993 17.3457 63.8099 17.975C63.4042 18.6527 62.7957 19.2013 61.9844 19.6208C61.1892 20.0242 60.2156 20.2259 59.0635 20.2259C58.2846 20.2259 57.5139 20.1372 56.7512 19.9597C56.0048 19.7822 55.3476 19.4514 54.7796 18.9673C54.2766 18.5478 53.8791 18.0718 53.587 17.5393C53.3111 17.0068 53.1245 16.3694 53.0272 15.6272C52.9298 14.8688 52.8811 13.9652 52.8811 12.9163V5.31629C52.8811 4.71925 52.8324 4.28358 52.7351 4.00927C52.6539 3.71882 52.4754 3.52519 52.1996 3.42838C51.94 3.31542 51.5424 3.25088 51.0069 3.23474V2.75066C51.4126 2.7668 51.9318 2.78294 52.5647 2.79907C53.1975 2.81521 53.8791 2.82328 54.6093 2.82328C55.2746 2.82328 55.9318 2.81521 56.5808 2.79907C57.2299 2.78294 57.7654 2.7668 58.1873 2.75066V3.23474C57.6356 3.25088 57.2137 3.31542 56.9216 3.42838C56.6457 3.52519 56.4591 3.71882 56.3618 4.00927C56.2644 4.28358 56.2157 4.71925 56.2157 5.31629V14.0781C56.2157 15.1592 56.3131 16.0951 56.5078 16.8858C56.7025 17.6765 57.0514 18.2896 57.5544 18.7253C58.0575 19.161 58.7877 19.3788 59.7451 19.3788C60.9296 19.3788 61.8464 19.1126 62.4955 18.5801C63.1446 18.0476 63.5989 17.3053 63.8586 16.3533C64.1182 15.4013 64.248 14.3202 64.248 13.11V6.33285C64.248 5.54219 64.1912 4.93709 64.0776 4.51755C63.964 4.09802 63.7369 3.79144 63.3961 3.5978C63.0716 3.40417 62.5848 3.28315 61.9357 3.23474V2.75066C62.244 2.7668 62.6415 2.78294 63.1284 2.79907C63.6314 2.81521 64.0938 2.82328 64.5157 2.82328C64.9214 2.82328 65.319 2.81521 65.7084 2.79907C66.1141 2.78294 66.4386 2.7668 66.682 2.75066ZM41.4032 23.9534V24.4374C43.107 24.4374 44.4701 24.0582 45.4924 23.2999C46.5146 22.5576 47.1799 21.6217 47.4883 20.4922C47.6343 19.9436 47.7317 19.3062 47.7803 18.5801C47.8452 17.854 47.8777 17.1036 47.8777 16.3291C47.8939 15.5546 47.902 14.8365 47.902 14.1749V5.31629C47.902 4.71925 47.9426 4.28358 48.0237 4.00927C48.1211 3.71882 48.2996 3.52519 48.5592 3.42838C48.8351 3.31542 49.2408 3.25088 49.7762 3.23474V2.75066C49.3543 2.7668 48.8107 2.78294 48.1454 2.79907C47.4964 2.81521 46.8311 2.82328 46.1495 2.82328C45.468 2.82328 44.8108 2.81521 44.178 2.79907C43.5614 2.78294 43.0664 2.7668 42.6932 2.75066V3.23474C43.2125 3.25088 43.61 3.31542 43.8859 3.42838C44.1618 3.52519 44.3403 3.71882 44.4214 4.00927C44.5187 4.28358 44.5674 4.71925 44.5674 5.31629V18.6043C44.5674 19.9436 44.4457 21.0005 44.2023 21.775C43.9589 22.5495 43.5938 23.0982 43.107 23.4209C42.6364 23.7436 42.0685 23.9211 41.4032 23.9534Z" fill="rgba(0,0,0,.1)"/>
</svg>
