<svg width="108" height="108" viewBox="0 0 108 108" fill="none" xmlns="http://www.w3.org/2000/svg">
<rect width="108" height="108" rx="54" fill="#F4F5F9"/>
<path fill-rule="evenodd" clip-rule="evenodd" d="M46.852 47.75L36.2366 46.2756C35.6469 46.2756 35.2046 45.8333 35.352 45.391C35.2046 44.9487 35.352 44.359 35.7943 43.9167C35.7943 43.9167 36.8264 42.7372 37.8584 40.6731C38.743 38.7564 39.1854 36.5449 39.0379 34.3333C38.8905 31.532 39.1854 26.3718 42.7238 22.8333C45.0828 20.3269 48.6212 19 52.8969 19C57.32 19 60.711 20.3269 63.07 22.8333C66.6084 26.5192 66.9033 31.6795 66.7559 34.4808C66.6084 35.6603 66.7559 36.6923 66.9033 37.5769C67.7879 41.7051 69.9994 43.6218 69.9994 43.6218C70.4418 43.9167 70.5892 44.5064 70.4418 45.0961C70.2943 45.5385 69.852 45.9808 69.2623 46.1282L58.9418 48.0449H58.6469C58.0571 48.0449 57.6148 47.8974 57.32 47.3077C57.0251 46.7179 57.1725 45.9808 57.6148 45.5385C59.0892 44.2115 59.5315 39.1987 59.5315 35.3654C56.8777 35.2179 54.961 33.3013 53.7815 31.6795C51.2751 35.6603 47.5892 36.8397 45.6725 37.282C44.7879 43.032 47.8841 45.0961 47.8841 45.0961C48.4738 45.5385 48.7687 46.2756 48.4738 46.8654C48.1789 47.4551 47.5892 47.8974 46.852 47.75ZM17.2557 66H19.4067L19.3711 66.5333L19.3696 66.5567L19.3695 66.5585C19.3684 66.5746 19.3676 66.5866 19.367 66.5984C19.454 68.4337 20.9384 69.8703 22.7672 69.9002L23.259 69.9083V72.3135L22.7672 72.3215C20.9394 72.3512 19.455 73.7867 19.3671 75.6264L19.3695 75.6638L19.4055 76.222H17.2557L17.2917 75.6642C17.2929 75.6474 17.2937 75.6346 17.2943 75.624C17.2078 73.7884 15.7229 72.3512 13.8941 72.3215L13.4022 72.3135V69.9082L13.8941 69.9002C15.7218 69.8705 17.2063 68.4351 17.2942 66.5954L17.2918 66.5585L17.2557 66ZM16.7946 71.1107C17.3927 71.4903 17.9156 71.9823 18.3304 72.5565C18.7453 71.9824 19.2682 71.4904 19.8662 71.1107C19.2682 70.7311 18.7452 70.2392 18.3303 69.665C17.9155 70.239 17.3926 70.731 16.7946 71.1107ZM24.1607 78.778H26.3116L26.276 79.3113L26.2745 79.3347L26.2744 79.3366L26.2729 79.3594L26.2719 79.3764C26.3589 81.2115 27.8434 82.6483 29.6722 82.6785L30.164 82.6866V85.0918L29.6721 85.0998C27.8444 85.1295 26.3599 86.5649 26.272 88.4045L26.2744 88.4418L26.2745 88.4433L26.3104 89H24.1607L24.1967 88.4418C24.1978 88.4251 24.1986 88.4127 24.1992 88.4022C24.1126 86.5664 22.628 85.1295 20.7989 85.0995L20.3071 85.0915V82.6862L20.799 82.6782C22.6267 82.6486 24.1112 81.2131 24.1991 79.3734L24.1967 79.3366L24.1607 78.778ZM23.6998 83.889C24.2978 84.2686 24.8208 84.7606 25.2356 85.3347C25.6504 84.7607 26.1734 84.2687 26.7714 83.889C26.1734 83.5094 25.6504 83.0173 25.2355 82.4432C24.8207 83.0173 24.2977 83.5093 23.6998 83.889ZM60.1212 48.9282C59.5315 48.7808 58.7943 49.2231 58.4994 49.6654C57.9097 50.8449 56.8776 51.8769 55.6982 52.6141C53.7815 53.7936 51.2751 53.7936 49.3584 52.6141C48.1789 51.8769 47.1469 50.8449 46.5571 49.6654C46.2623 49.0756 45.6725 48.7808 44.9353 48.9282C44.493 48.9282 35.0571 50.55 31.8136 55.7102C31.2238 56.5949 30.9289 57.6269 30.7815 58.659C28.7543 73.2838 29.1447 74.8251 29.299 75.4342L29.3071 75.4666C29.4546 76.0564 30.0443 76.4987 30.7815 76.4987H73.9802C74.57 76.4987 75.1597 76.0564 75.4546 75.4666C75.602 75.0243 76.0443 73.55 73.9802 58.659C73.8328 57.4795 73.5379 56.4474 72.9482 55.7102C69.852 50.55 60.4161 48.9282 60.1212 48.9282ZM52.602 71.7808C51.7174 71.7808 50.8328 71.0436 50.8328 70.0115C50.8328 68.9795 51.57 68.2423 52.602 68.2423C53.4866 68.2423 54.3712 68.9795 54.3712 70.0115C54.3712 71.0436 53.4866 71.7808 52.602 71.7808ZM52.602 66.6205C51.7174 66.6205 50.8328 65.8833 50.8328 64.8513C50.8328 63.9667 51.57 63.082 52.602 63.082C53.4866 63.082 54.3712 63.8192 54.3712 64.8513C54.3712 65.8833 53.4866 66.6205 52.602 66.6205ZM52.602 61.4602C51.7174 61.4602 50.8328 60.7231 50.8328 59.691C50.8328 58.8064 51.57 57.9218 52.602 57.9218C53.4866 57.9218 54.3712 58.659 54.3712 59.691C54.3712 60.7231 53.4866 61.4602 52.602 61.4602ZM90.693 31C90.693 35.4709 87.0687 39.0952 82.5978 39.0952C78.1269 39.0952 74.5025 35.4709 74.5025 31C74.5025 26.5291 78.1269 22.9048 82.5978 22.9048C87.0687 22.9048 90.693 26.5291 90.693 31ZM92.5978 31C92.5978 36.5228 88.1206 41 82.5978 41C77.0749 41 72.5978 36.5228 72.5978 31C72.5978 25.4772 77.0749 21 82.5978 21C88.1206 21 92.5978 25.4772 92.5978 31ZM85.8041 27.4862C86.1796 27.0919 86.7985 27.0919 87.174 27.4862C87.537 27.8673 87.537 28.4761 87.174 28.8572L81.883 34.4128C81.7055 34.5992 81.4596 34.7085 81.1981 34.7085C80.9365 34.7085 80.6906 34.5992 80.5131 34.4128L78.1081 31.8876C77.7451 31.5064 77.7451 30.8976 78.1081 30.5165C78.4836 30.1222 79.1025 30.1222 79.478 30.5165L81.1981 32.3225L85.8041 27.4862Z" fill="rgba(0, 0, 0, 0.6)"/>
</svg>
