<svg width="17" height="4" viewBox="0 0 17 4" fill="none" xmlns="http://www.w3.org/2000/svg">
<path d="M4.5 2C4.5 0.895508 3.60456 0 2.5 0C1.39544 0 0.5 0.895508 0.5 2C0.5 3.10449 1.39544 4 2.5 4C3.60456 4 4.5 3.10449 4.5 2Z" fill="rgba(0, 0, 0, 0.2)"/>
<path d="M8.48438 0C9.58894 0 10.4844 0.895508 10.4844 2C10.4844 3.10449 9.58894 4 8.48438 4C7.37981 4 6.48438 3.10449 6.48438 2C6.48438 0.895508 7.37981 0 8.48438 0Z" fill="rgba(0, 0, 0, 0.2)"/>
<path d="M14.5 0C15.6046 0 16.5 0.895508 16.5 2C16.5 3.10449 15.6046 4 14.5 4C13.3954 4 12.5 3.10449 12.5 2C12.5 0.895508 13.3954 0 14.5 0Z" fill="rgba(0, 0, 0, 0.2)"/>
</svg>
