<svg width="25" height="24" viewBox="0 0 25 24" fill="none" xmlns="http://www.w3.org/2000/svg">
<g clip-path="url(#clip0)">
<path d="M5.95455 12C5.95455 10.4939 4.73349 9.27275 3.22727 9.27275C1.72105 9.27275 0.5 10.4939 0.5 12C0.5 13.5061 1.72105 14.7273 3.22727 14.7273C4.73349 14.7273 5.95455 13.5061 5.95455 12Z" fill="rgba(0, 0, 0, 0.6)"/>
<path d="M12.4787 9.27275C13.9849 9.27275 15.206 10.4939 15.206 12C15.206 13.5061 13.9849 14.7273 12.4787 14.7273C10.9725 14.7273 9.75142 13.5061 9.75142 12C9.75142 10.4939 10.9725 9.27275 12.4787 9.27275Z" fill="rgba(0, 0, 0, 0.6)"/>
<path d="M21.7727 9.27275C23.2789 9.27275 24.5 10.4939 24.5 12C24.5 13.5061 23.2789 14.7273 21.7727 14.7273C20.2665 14.7273 19.0455 13.5061 19.0455 12C19.0455 10.4939 20.2665 9.27275 21.7727 9.27275Z" fill="rgba(0, 0, 0, 0.6)"/>
</g>
<defs>
<clipPath id="clip0">
<rect width="24" height="24" fill="white" transform="translate(0.5)"/>
</clipPath>
</defs>
</svg>
