<svg width="25" height="25" viewBox="0 0 25 25" fill="none" xmlns="http://www.w3.org/2000/svg">
<g clip-path="url(#clip0)">
<path d="M23.2867 20.8559V8.20237C23.1979 8.20977 23.1092 8.2147 23.0203 8.2147H1.97966C1.89088 8.2147 1.79964 8.20977 1.71332 8.20237V20.8559C1.71332 21.6722 2.3767 22.3356 3.19298 22.3356H21.807C22.6233 22.3356 23.2867 21.6746 23.2867 20.8559ZM17.4421 13.0779C17.4421 13.4872 17.1116 13.8177 16.7022 13.8177H8.29779C7.88842 13.8177 7.55796 13.4872 7.55796 13.0779V11.1149C7.55796 10.7055 7.88842 10.375 8.29779 10.375H16.6998C17.1091 10.375 17.4396 10.7055 17.4396 11.1149V13.0779H17.4421Z" fill="rgba(0, 0, 0, 0.6)"/>
<path d="M24.5 5.25536V3.98039C24.5 3.16411 23.8367 2.50073 23.0203 2.50073H1.97966C1.16338 2.50073 0.5 3.16411 0.5 3.98039V5.25536C0.5 5.98039 1.02281 6.58458 1.71332 6.71035C1.79963 6.72515 1.88841 6.73501 1.97966 6.73501H23.0179C23.1092 6.73501 23.198 6.72515 23.2843 6.71035C23.9772 6.58458 24.5 5.98039 24.5 5.25536Z" fill="rgba(0, 0, 0, 0.6)"/>
</g>
<defs>
<clipPath id="clip0">
<rect width="24" height="24" fill="white" transform="translate(0.5 0.418213)"/>
</clipPath>
</defs>
</svg>
