<svg width="24" height="25" viewBox="0 0 24 25" fill="none" xmlns="http://www.w3.org/2000/svg">
<path d="M12.553 22.2708C12.5532 22.2706 12.5535 22.2704 12.5538 22.2701L16.6163 18.188C16.9206 17.8821 16.9195 17.3875 16.6136 17.0831C16.3078 16.7787 15.8131 16.7799 15.5088 17.0857L12.7813 19.8265V3.28125C12.7813 2.84977 12.4315 2.5 12 2.5C11.5685 2.5 11.2188 2.84977 11.2188 3.28125V19.8264L8.49126 17.0857C8.18688 16.7799 7.69223 16.7787 7.38641 17.0831C7.08052 17.3875 7.07946 17.8822 7.38376 18.188L11.4463 22.2702C11.4465 22.2704 11.4468 22.2706 11.447 22.2709C11.7524 22.5769 12.2486 22.5759 12.553 22.2708Z" fill="rgba(0, 0, 0, 0.6)"/>
</svg>
