<svg width="24" height="20" viewBox="0 0 24 20" fill="none" xmlns="http://www.w3.org/2000/svg">
<path d="M0.413349 9.00372C0.14868 9.26847 -1.90735e-06 9.62749 -1.90735e-06 10.0018C-1.90735e-06 10.3762 0.14868 10.7352 0.413349 11L8.88404 19.4707C9.15031 19.7278 9.50693 19.8701 9.87709 19.8669C10.2473 19.8637 10.6014 19.7152 10.8631 19.4535C11.1249 19.1917 11.2733 18.8376 11.2766 18.4675C11.2798 18.0973 11.1375 17.7407 10.8803 17.4744L4.81952 11.4136L22.5882 11.4136C22.9626 11.4136 23.3217 11.2649 23.5865 11.0001C23.8513 10.7354 24 10.3763 24 10.0018C24 9.62742 23.8513 9.26833 23.5865 9.00357C23.3217 8.73881 22.9626 8.59007 22.5882 8.59007L4.81952 8.59007L10.8803 2.52928C11.1375 2.26302 11.2798 1.9064 11.2766 1.53623C11.2733 1.16607 11.1249 0.811977 10.8631 0.550221C10.6014 0.288465 10.2473 0.139989 9.87709 0.136772C9.50693 0.133555 9.15031 0.275856 8.88404 0.533023L0.413349 9.00372Z" fill="rgba(0, 0, 0, 0.2)"/>
</svg>
