<svg width="62" height="20" viewBox="0 0 62 20" fill="none" xmlns="http://www.w3.org/2000/svg">
<path d="M61.5867 9.00372C61.8513 9.26847 62 9.62749 62 10.0018C62 10.3762 61.8513 10.7352 61.5867 11L53.116 19.4707C52.8497 19.7278 52.4931 19.8701 52.1229 19.8669C51.7527 19.8637 51.3987 19.7152 51.1369 19.4535C50.8751 19.1917 50.7267 18.8376 50.7234 18.4675C50.7202 18.0973 50.8625 17.7407 51.1197 17.4744L57.1805 11.4136L1.41178 11.7881C1.03735 11.7881 0.678262 11.6393 0.413501 11.3746C0.148741 11.1098 0 10.7507 0 10.3763C0 10.0018 0.148741 9.64276 0.413501 9.37799C0.678262 9.11323 1.03735 8.96449 1.41178 8.96449L57.1805 8.59007L51.1197 2.52928C50.8625 2.26302 50.7202 1.9064 50.7234 1.53623C50.7267 1.16607 50.8751 0.811977 51.1369 0.550221C51.3987 0.288465 51.7527 0.139989 52.1229 0.136772C52.4931 0.133555 52.8497 0.275856 53.116 0.533023L61.5867 9.00372Z" fill="rgba(0, 0, 0, 0.6)"/>
</svg>
