<svg width="23" height="21" viewBox="0 0 23 21" fill="none" xmlns="http://www.w3.org/2000/svg">
<path d="M20.44 2.14611C17.6982 -0.595903 13.2365 -0.595903 10.4941 2.14611L1.96878 10.6714C0.0103007 12.6301 0.0104295 15.8171 1.96903 17.7756C2.94842 18.755 4.23448 19.2447 5.52105 19.2446C6.80728 19.2444 8.09402 18.7549 9.07324 17.7756L16.8879 9.96076C17.4572 9.39151 17.7708 8.63461 17.7709 7.82955C17.7709 7.02444 17.4574 6.26759 16.888 5.69817C15.7127 4.52301 13.8005 4.52306 12.6254 5.69838L7.51493 10.8087C7.12258 11.2011 7.12258 11.8372 7.51484 12.2296C7.90715 12.622 8.5433 12.6219 8.93569 12.2296L14.0462 7.11919C14.438 6.72744 15.0753 6.72736 15.4671 7.1191C15.6568 7.30885 15.7614 7.56117 15.7614 7.82951C15.7614 8.09785 15.6569 8.35007 15.4671 8.53991L7.65239 16.3547C6.47715 17.5298 4.56504 17.53 3.38988 16.3548C2.21473 15.1796 2.21464 13.2674 3.38967 12.0921L11.915 3.56696C13.8738 1.60827 17.0607 1.60827 19.0192 3.56696C19.9681 4.51571 20.4907 5.77723 20.4907 7.11902C20.4907 8.4608 19.968 9.72232 19.0192 10.6712L10.494 19.1966C10.1017 19.5889 10.1017 20.2251 10.4941 20.6175C10.6903 20.8137 10.9474 20.9117 11.2045 20.9117C11.4616 20.9117 11.7187 20.8136 11.9149 20.6175L20.44 12.0921C21.7684 10.7638 22.5 8.99765 22.5 7.11906C22.5 5.24051 21.7684 3.4744 20.44 2.14611Z" fill="rgba(0, 0, 0, 0.6)"/>
</svg>
