<svg width="25" height="24" viewBox="0 0 25 24" fill="none" xmlns="http://www.w3.org/2000/svg">
<g clip-path="url(#clip0)">
<path d="M21.5 3H20.5001V0.999939C20.5001 0.448059 20.052 0 19.4999 0H18.5C17.9479 0 17.5001 0.448059 17.5001 0.999939V3H7.49994V0.999939C7.49994 0.448059 7.05206 0 6.5 0H5.50006C4.948 0 4.49994 0.448059 4.49994 0.999939V3H3.5C1.84601 3 0.5 4.34601 0.5 6V21C0.5 22.654 1.84601 24 3.5 24H21.5C23.154 24 24.5 22.654 24.5 21V6C24.5 4.34601 23.154 3 21.5 3ZM22.4999 21C22.4999 21.551 22.051 21.9999 21.5 21.9999H3.5C2.94904 21.9999 2.50006 21.551 2.50006 21V10.04H22.4999V21Z" fill="rgba(0, 0, 0, 0.6)"/>
</g>
<defs>
<clipPath id="clip0">
<rect width="24" height="24" fill="white" transform="translate(0.5)"/>
</clipPath>
</defs>
</svg>
