<svg width="25" height="25" viewBox="0 0 25 25" fill="none" xmlns="http://www.w3.org/2000/svg">
<path d="M23.8468 18.0318L20.4975 14.6825C19.3013 13.4864 17.2679 13.9649 16.7894 15.5198C16.4305 16.5964 15.2344 17.1945 14.1578 16.9552C11.7655 16.3572 8.53583 13.2471 7.93775 10.7352C7.5789 9.65857 8.2966 8.4624 9.37315 8.1036C10.9282 7.62513 11.4066 5.59164 10.2105 4.39547L6.8612 1.0462C5.90426 0.208883 4.46886 0.208883 3.63155 1.0462L1.35883 3.31892C-0.913894 5.71126 1.59806 12.051 7.22005 17.6729C12.842 23.2949 19.1817 25.9266 21.5741 23.5342L23.8468 21.2614C24.6842 20.3045 24.6842 18.8691 23.8468 18.0318Z" fill="rgba(0, 0, 0, 0.6)"/>
</svg>
