<svg width="25" height="25" viewBox="0 0 25 25" fill="none" xmlns="http://www.w3.org/2000/svg">
<g clip-path="url(#clip0)">
<path d="M2.41716 12.126L6.39349 12.126C7.81361 12.126 8.73666 10.6349 8.09763 9.42782C7.67157 8.57572 8.0266 7.51063 8.80769 7.01362C10.5828 5.94853 14.3462 5.87752 16.1923 7.01362C17.0444 7.43968 17.3284 8.57578 16.9024 9.42782C16.2633 10.6349 17.1864 12.126 18.6065 12.126L22.5828 12.126C23.6479 12.055 24.5 11.203 24.5 10.2089L24.5 7.51066C24.429 4.74143 19.1746 2.46924 12.5 2.46924C5.82544 2.46924 0.499972 4.67039 0.5 7.51066L0.5 10.2089C0.570979 11.274 1.42305 12.1261 2.41716 12.126Z" fill="rgba(0, 0, 0, 0.2)"/>
</g>
<defs>
<clipPath id="clip0">
<rect width="24" height="24" fill="white" transform="translate(0.5 0.500488)"/>
</clipPath>
</defs>
</svg>
