<svg width="25" height="24" viewBox="0 0 25 24" fill="none" xmlns="http://www.w3.org/2000/svg">
<rect x="3" y="2.5" width="19" height="19" rx="1.5" fill="rgba(0, 0, 0, 0.6)"/>
<path d="M17.0196 7.24927C16.6238 7.24927 16.2518 7.40347 15.9719 7.68347L10.4897 13.1746L9.02856 11.7136C8.74881 11.4338 8.37686 11.2796 7.98122 11.2796C7.58552 11.2796 7.21356 11.4338 6.93375 11.7135C6.65401 11.9932 6.5 12.3652 6.5 12.7608C6.5 13.1565 6.65401 13.5284 6.93375 13.8081L9.44257 16.3169C9.72231 16.5967 10.0943 16.7509 10.49 16.7509C10.8855 16.7509 11.2576 16.5967 11.5376 16.3167L18.067 9.77795C18.6444 9.20035 18.6443 8.26063 18.067 7.68302C17.7872 7.40334 17.4152 7.24927 17.0196 7.24927Z" fill="white"/>
<rect x="3" y="2.5" width="19" height="19" rx="1.5" stroke="rgba(0, 0, 0, 0.6)"/>
</svg>
