<svg width="25" height="25" viewBox="0 0 25 25" fill="none" xmlns="http://www.w3.org/2000/svg">
<circle cx="12.5" cy="12.5" r="12.5" fill="rgba(0, 0, 0, 0.6)"/>
<path d="M17.5196 8C17.1238 8 16.7518 8.1542 16.4719 8.43421L10.9897 13.9253L9.52856 12.4643C9.24881 12.1845 8.87686 12.0304 8.48122 12.0304C8.08552 12.0304 7.71356 12.1845 7.43375 12.4642C7.15401 12.744 7 13.1159 7 13.5116C7 13.9072 7.15401 14.2792 7.43375 14.5588L9.94257 17.0677C10.2223 17.3475 10.5943 17.5016 10.99 17.5016C11.3855 17.5016 11.7576 17.3474 12.0376 17.0674L18.567 10.5287C19.1444 9.95108 19.1443 9.01136 18.567 8.43375C18.2872 8.15408 17.9152 8 17.5196 8Z" fill="white"/>
</svg>
