<svg width="24" height="24" viewBox="0 0 24 24" fill="none" xmlns="http://www.w3.org/2000/svg">
<path d="M22.5859 4.24216C23.3669 3.4612 23.3669 2.19501 22.5859 1.41405C21.805 0.633091 20.5388 0.633089 19.7578 1.41405L12 9.17186L4.24216 1.41405C3.4612 0.633093 2.19501 0.633093 1.41405 1.41405C0.633093 2.19501 0.633094 3.4612 1.41405 4.24216L9.17186 12L1.41405 19.7578C0.63309 20.5388 0.633091 21.805 1.41405 22.5859C2.19501 23.3669 3.4612 23.3669 4.24216 22.5859L12 14.8281L19.7578 22.5859C20.5387 23.3669 21.8049 23.3669 22.5859 22.5859C23.3668 21.805 23.3669 20.5388 22.5859 19.7578L14.8281 12L22.5859 4.24216Z" fill="rgba(0, 0, 0, 0.2)"/>
</svg>
