<svg width="96" height="115" viewBox="0 0 96 115" fill="none" xmlns="http://www.w3.org/2000/svg">
<path d="M93.6228 14.1768L48.9592 0.777495C48.3338 0.589793 47.6673 0.589793 47.0417 0.777495L2.37718 14.1768C0.966307 14.6 0 15.8988 0 17.372V66.5026C0 72.8929 2.58712 79.4345 7.68909 85.9455C11.5857 90.9183 16.9768 95.9117 23.712 100.787C35.0268 108.978 46.1686 114.002 46.6374 114.212C47.0708 114.406 47.5356 114.503 48.0004 114.503C48.4653 114.503 48.9301 114.406 49.3635 114.212C49.8321 114.002 60.9736 108.978 72.2885 100.787C79.0237 95.9117 84.4146 90.9183 88.3114 85.9455C93.4133 79.4347 96 72.8931 96 66.5026V17.372C96 15.8988 95.0341 14.6 93.6228 14.1768Z" fill="rgba(0, 0, 0, 0.6)"/>
<path d="M30.8646 57.3935L41.7155 65.5761L64.4935 35.7556C65.7482 33.9638 68.2183 33.5284 70.0101 34.7831L70.3111 35.0049C72.1024 36.2596 72.5383 38.7287 71.2831 40.521L46.4272 78.8107C45.4888 80.1504 44.5571 80.6165 42.9227 80.7249C41.2883 80.8329 40.3 80.2262 39.3189 79.2446L25.1747 63.0729C23.6084 61.5071 23.6084 58.9675 25.1747 57.4022L25.1944 57.3931C26.7601 55.8268 29.2988 55.8268 30.8646 57.3935Z" fill="white"/>
</svg>
