<svg width="48" height="28" viewBox="0 0 48 28" fill="none" xmlns="http://www.w3.org/2000/svg">
<g clip-path="url(#clip0_3875_4414)">
<rect width="38" height="23" rx="3.33333" fill="#ACC9F5"/>
<rect y="5" width="40" height="5.83333" fill="#303636"/>
</g>
<rect x="20.8936" y="13" width="27.1061" height="15" rx="4" fill="#E47E3D"/>
<path d="M26.8676 23.1374L27.1336 21.1634L25.5656 22.3954L24.8936 21.2054L26.7276 20.4774L24.9076 19.7774L25.5376 18.6434L27.1476 19.8614L26.8676 17.8594H28.1696L27.8896 19.8614L29.4856 18.6434L30.1016 19.7634L28.2816 20.4914L30.1156 21.2194L29.4576 22.3814L27.8896 21.1634L28.1556 23.1374H26.8676Z" fill="white"/>
<path d="M33.8096 23.1374L34.0756 21.1634L32.5076 22.3954L31.8356 21.2054L33.6696 20.4774L31.8496 19.7774L32.4796 18.6434L34.0896 19.8614L33.8096 17.8594H35.1116L34.8316 19.8614L36.4276 18.6434L37.0436 19.7634L35.2236 20.4914L37.0576 21.2194L36.3996 22.3814L34.8316 21.1634L35.0976 23.1374H33.8096Z" fill="white"/>
<path d="M40.7516 23.1374L41.0176 21.1634L39.4496 22.3954L38.7776 21.2054L40.6116 20.4774L38.7916 19.7774L39.4216 18.6434L41.0316 19.8614L40.7516 17.8594H42.0536L41.7736 19.8614L43.3696 18.6434L43.9856 19.7634L42.1656 20.4914L43.9996 21.2194L43.3416 22.3814L41.7736 21.1634L42.0396 23.1374H40.7516Z" fill="white"/>
<defs>
<clipPath id="clip0_3875_4414">
<rect width="38" height="23" rx="3.33333" fill="white"/>
</clipPath>
</defs>
</svg>
