<svg width="20" height="24" viewBox="0 0 20 24" fill="none" xmlns="http://www.w3.org/2000/svg">
<path d="M17.625 3H13.5V2.25C13.5 1.00734 12.4927 0 11.25 0H8.25C7.00734 0 6 1.00734 6 2.25V3H1.875C0.839484 3 0 3.83948 0 4.875V6.375C0 6.78923 0.335766 7.125 0.75 7.125H18.75C19.1642 7.125 19.5 6.78923 19.5 6.375V4.875C19.5 3.83948 18.6605 3 17.625 3ZM7.5 2.25C7.5 1.83656 7.83656 1.5 8.25 1.5H11.25C11.6634 1.5 12 1.83656 12 2.25V3H7.5V2.25Z" fill="#BFBFBF"/>
<path d="M1.4233 8.625C1.28947 8.625 1.18283 8.73684 1.18921 8.87053L1.80796 21.8569C1.86514 23.0588 2.85233 24 4.05514 24H15.4448C16.6476 24 17.6348 23.0588 17.692 21.8569L18.3108 8.87053C18.3171 8.73684 18.2105 8.625 18.0767 8.625H1.4233ZM12.75 10.5C12.75 10.0856 13.0856 9.75 13.5 9.75C13.9144 9.75 14.25 10.0856 14.25 10.5V20.25C14.25 20.6644 13.9144 21 13.5 21C13.0856 21 12.75 20.6644 12.75 20.25V10.5ZM8.99999 10.5C8.99999 10.0856 9.33561 9.75 9.74999 9.75C10.1644 9.75 10.5 10.0856 10.5 10.5V20.25C10.5 20.6644 10.1644 21 9.74999 21C9.33561 21 8.99999 20.6644 8.99999 20.25V10.5ZM5.24999 10.5C5.24999 10.0856 5.58561 9.75 5.99999 9.75C6.41436 9.75 6.74999 10.0856 6.74999 10.5V20.25C6.74999 20.6644 6.41436 21 5.99999 21C5.58561 21 5.24999 20.6644 5.24999 20.25V10.5Z" fill="#BFBFBF"/>
</svg>
