<svg width="25" height="25" viewBox="0 0 25 25" fill="none" xmlns="http://www.w3.org/2000/svg">
  <path fill-rule="evenodd" clip-rule="evenodd" d="M3 4C3 2.34315 4.34315 1 6 1H17L23 7L23 22C23 23.6569 21.6569 25 20 25H6C4.34315 25 3 23.6569 3 22V4ZM7.75079 10C7.33658 10 7.00079 10.3358 7.00079 10.75C7.00079 11.1642 7.33658 11.5 7.75079 11.5H18.2508C18.665 11.5 19.0008 11.1642 19.0008 10.75C19.0008 10.3358 18.665 10 18.2508 10H7.75079ZM7.00079 14.7507C7.00079 14.3365 7.33658 14.0007 7.75079 14.0007H18.2508C18.665 14.0007 19.0008 14.3365 19.0008 14.7507C19.0008 15.1649 18.665 15.5007 18.2508 15.5007H7.75079C7.33658 15.5007 7.00079 15.1649 7.00079 14.7507ZM7.75079 17.9993C7.33658 17.9993 7.00079 18.3351 7.00079 18.7493C7.00079 19.1635 7.33658 19.4993 7.75079 19.4993H18.2508C18.665 19.4993 19.0008 19.1635 19.0008 18.7493C19.0008 18.3351 18.665 17.9993 18.2508 17.9993H7.75079Z" fill="rgba(0, 0, 0, 0.2)" />
</svg>