<svg width="24" height="24" viewBox="0 0 24 24" fill="none" xmlns="http://www.w3.org/2000/svg">
<path d="M12 3C10.22 3 8.47991 3.52784 6.99987 4.51677C5.51983 5.50571 4.36628 6.91131 3.68509 8.55585C3.0039 10.2004 2.82567 12.01 3.17294 13.7558C3.5202 15.5016 4.37737 17.1053 5.63604 18.364C6.89472 19.6226 8.49836 20.4798 10.2442 20.8271C11.99 21.1743 13.7996 20.9961 15.4442 20.3149C17.0887 19.6337 18.4943 18.4802 19.4832 17.0001C20.4722 15.5201 21 13.78 21 12C20.9973 9.61388 20.0482 7.32627 18.361 5.63903C16.6737 3.95179 14.3861 3.00271 12 3ZM11.1818 11.1818H12.8182C13.4692 11.1818 14.0935 11.4404 14.5538 11.9007C15.0141 12.3611 15.2727 12.9854 15.2727 13.6364C15.2727 14.2873 15.0141 14.9117 14.5538 15.372C14.0935 15.8323 13.4692 16.0909 12.8182 16.0909V16.9091C12.8182 17.1261 12.732 17.3342 12.5785 17.4876C12.4251 17.6411 12.217 17.7273 12 17.7273C11.783 17.7273 11.5749 17.6411 11.4215 17.4876C11.268 17.3342 11.1818 17.1261 11.1818 16.9091V16.0909H9.54546C9.32846 16.0909 9.12035 16.0047 8.96692 15.8513C8.81348 15.6978 8.72728 15.4897 8.72728 15.2727C8.72728 15.0557 8.81348 14.8476 8.96692 14.6942C9.12035 14.5407 9.32846 14.4545 9.54546 14.4545H12.8182C13.0352 14.4545 13.2433 14.3683 13.3967 14.2149C13.5502 14.0615 13.6364 13.8534 13.6364 13.6364C13.6364 13.4194 13.5502 13.2113 13.3967 13.0578C13.2433 12.9044 13.0352 12.8182 12.8182 12.8182H11.1818C10.5308 12.8182 9.90651 12.5596 9.4462 12.0993C8.98588 11.6389 8.72728 11.0146 8.72728 10.3636C8.72728 9.71265 8.98588 9.08833 9.4462 8.62801C9.90651 8.16769 10.5308 7.90909 11.1818 7.90909V7.09091C11.1818 6.87391 11.268 6.66581 11.4215 6.51237C11.5749 6.35893 11.783 6.27273 12 6.27273C12.217 6.27273 12.4251 6.35893 12.5785 6.51237C12.732 6.66581 12.8182 6.87391 12.8182 7.09091V7.90909H14.4545C14.6715 7.90909 14.8797 7.99529 15.0331 8.14873C15.1865 8.30217 15.2727 8.51028 15.2727 8.72727C15.2727 8.94427 15.1865 9.15237 15.0331 9.30581C14.8797 9.45925 14.6715 9.54545 14.4545 9.54545H11.1818C10.9648 9.54545 10.7567 9.63165 10.6033 9.78509C10.4498 9.93853 10.3636 10.1466 10.3636 10.3636C10.3636 10.5806 10.4498 10.7887 10.6033 10.9422C10.7567 11.0956 10.9648 11.1818 11.1818 11.1818Z" fill="rgba(0, 0, 0, 0.6)"/>
</svg>
