<svg width="17" height="22" viewBox="0 0 17 22" fill="none" xmlns="http://www.w3.org/2000/svg">
<path fill-rule="evenodd" clip-rule="evenodd" d="M12.0089 17.8793C13.229 18.0945 14.408 17.2681 14.6234 16.0469L16.5074 5.36163C16.7228 4.14046 15.8975 2.96065 14.6774 2.74552L4.87358 1.01684C3.65354 0.80171 2.47449 1.62811 2.25917 2.84928L0.367379 13.5781C0.152053 14.7993 0.977351 15.9791 2.19739 16.1943L5.55249 16.7859L4.85568 20.7376C4.80185 21.0429 5.01715 21.3507 5.32216 21.4045L7.3265 21.7579C7.63151 21.8117 7.93909 21.5961 7.99292 21.2908L8.68972 17.339L12.0013 17.9229L12.0089 17.8793ZM8.14024 5.32647L8.29634 4.44116C8.37101 4.01766 8.77452 3.73553 9.19756 3.81012C9.62073 3.88474 9.90327 4.28784 9.8286 4.71134L9.67437 5.58601L10.5496 5.74033C10.9726 5.81492 11.2553 6.21805 11.1806 6.64155C11.1059 7.06505 10.7024 7.34718 10.2794 7.27259L8.09113 6.88674C7.60858 6.80165 7.14665 7.12615 7.06184 7.60711C6.97666 8.0902 7.29975 8.55311 7.7823 8.6382L8.87643 8.83112C10.2039 9.06518 11.0936 10.3346 10.8594 11.6625C10.6384 12.916 9.49315 13.7783 8.24843 13.6729L8.09232 14.5582C8.06756 14.6987 8.00625 14.8239 7.91962 14.9272C7.74659 15.1314 7.47335 15.2391 7.19111 15.1893C6.76807 15.1147 6.48539 14.7116 6.56006 14.2881L6.71429 13.4134L5.83923 13.2591C5.41619 13.1845 5.13351 12.7814 5.20819 12.3579C5.28286 11.9344 5.68637 11.6522 6.10941 11.7268L8.2978 12.1127C8.54766 12.1568 8.79176 12.0923 8.98101 11.9523C9.15742 11.821 9.28625 11.6243 9.32716 11.3924C9.41234 10.9093 9.08888 10.4485 8.60625 10.3634L7.51212 10.1705C6.18463 9.93639 5.29542 8.66489 5.52958 7.33693C5.7506 6.08346 6.89571 5.22113 8.14024 5.32647Z" fill="rgba(0, 0, 0, 0.6)"/>
</svg>
