<svg width="25" height="24" viewBox="0 0 25 24" fill="none" xmlns="http://www.w3.org/2000/svg">
<g clip-path="url(#clip0)">
<path d="M15.3213 4.01971L2.11619 17.2258C2.04975 17.2924 2.00178 17.3766 1.97894 17.467L0.515276 23.3418C0.471494 23.5187 0.523462 23.7067 0.652524 23.8358C0.750178 23.9335 0.883239 23.9875 1.01934 23.9875C1.06103 23.9875 1.10367 23.9824 1.14517 23.9719L7.02001 22.5081C7.11157 22.4852 7.19476 22.4374 7.26119 22.371L20.4675 9.16585L15.3213 4.01971Z" fill="rgba(0, 0, 0, 0.6)"/>
<path d="M23.7389 2.21911L22.269 0.749167C21.2865 -0.233271 19.5743 -0.232319 18.593 0.749167L16.7924 2.54976L21.9383 7.69571L23.7389 5.89512C24.2297 5.40456 24.5 4.75164 24.5 4.05721C24.5 3.36278 24.2297 2.70986 23.7389 2.21911Z" fill="rgba(0, 0, 0, 0.6)"/>
</g>
<defs>
<clipPath id="clip0">
<rect width="24" height="24" fill="white" transform="translate(0.5)"/>
</clipPath>
</defs>
</svg>
