<svg width="21" height="21" viewBox="0 0 21 21" fill="none" xmlns="http://www.w3.org/2000/svg">
<path fill-rule="evenodd" clip-rule="evenodd" d="M11.3383 11.2782L19.4222 3.79321H1.57784L9.66168 11.2782C10.1407 11.7573 10.8593 11.7573 11.3383 11.2782ZM13.7934 10.9788L12.2964 12.3561C11.8174 12.8351 11.1587 13.0747 10.5 13.0747C9.84132 13.0747 9.18263 12.8351 8.64371 12.3561L7.20659 10.9788L1.51796 16.6675H19.482L13.7934 10.9788ZM14.8713 10.0208L20.5 15.6495V4.7513L14.8713 10.0208ZM6.12874 10.0208L0.5 4.7513V15.6495L6.12874 10.0208Z" fill="rgba(0, 0, 0, 0.6)"/>
<mask id="path-2-inside-1" fill="white">
<rect x="0.5" y="3.79321" width="20" height="13.3333" rx="1"/>
</mask>
<rect x="0.5" y="3.79321" width="20" height="13.3333" rx="1" stroke="rgba(0, 0, 0, 0.6)" stroke-width="4" mask="url(#path-2-inside-1)"/>
</svg>
