<svg width="21" height="13" viewBox="0 0 21 13" fill="none" xmlns="http://www.w3.org/2000/svg">
<path d="M10.25 3.21836C8.47418 3.21836 7.03133 4.66121 7.03133 6.43702C7.03133 8.21282 8.47418 9.65567 10.25 9.65567C12.0258 9.65567 13.4686 8.21282 13.4686 6.43702C13.4686 4.66121 12.0258 3.21836 10.25 3.21836Z" fill="rgba(0, 0, 0, 0.6)"/>
<path d="M20.0169 5.77136C18.9292 4.41731 15.0447 0 10.25 0C5.45533 0 1.57075 4.41731 0.483074 5.77136C0.172309 6.14872 0.172309 6.70366 0.483074 7.10322C1.57075 8.45727 5.45533 12.8746 10.25 12.8746C15.0447 12.8746 18.9292 8.45727 20.0169 7.10322C20.3277 6.72586 20.3277 6.17092 20.0169 5.77136ZM10.25 11.0988C7.67508 11.0988 5.58851 9.01221 5.58851 6.43729C5.58851 3.86238 7.67508 1.7758 10.25 1.7758C12.8249 1.7758 14.9115 3.86238 14.9115 6.43729C14.9115 9.01221 12.8249 11.0988 10.25 11.0988Z" fill="rgba(0, 0, 0, 0.6)"/>
</svg>
