<svg width="24" height="22" viewBox="0 0 24 22" fill="none" xmlns="http://www.w3.org/2000/svg">
<path d="M11.6183 3.78768L12 4.23863L12.3817 3.78769C13.0842 2.95756 13.8854 2.12819 14.7678 1.50857C15.6495 0.889466 16.5834 0.5 17.561 0.5C21.2284 0.5 23.5 3.71659 23.5 6.3519C23.5 8.91972 22.2246 11.474 20.3149 13.8707C18.41 16.2612 15.9172 18.4409 13.5801 20.2509C13.2753 20.4869 12.9371 20.7293 12.6274 20.9104C12.4726 21.0009 12.3339 21.0707 12.2167 21.1167C12.0933 21.1651 12.0247 21.1747 12.0006 21.1747C11.9765 21.1747 11.9078 21.1651 11.7844 21.1167C11.6672 21.0707 11.5285 21.0009 11.3737 20.9104C11.0641 20.7293 10.7258 20.4869 10.421 20.2509C8.08389 18.4409 5.59081 16.2612 3.6857 13.8707C1.77564 11.474 0.5 8.91969 0.5 6.3519C0.5 3.71659 2.77156 0.5 6.43903 0.5C7.4166 0.5 8.35045 0.889465 9.23218 1.50857C10.1146 2.12819 10.9158 2.95756 11.6183 3.78768Z" stroke="rgba(0, 0, 0, 0.6)"/>
</svg>
