<svg width="56" height="42" viewBox="0 0 56 42" fill="none" xmlns="http://www.w3.org/2000/svg">
<path d="M15.1103 20.4904C17.1567 19.5469 19.114 19.075 20.9814 19.075H45.7785V14.3062C45.7785 12.4783 45.1227 10.9079 43.8108 9.59648C42.4992 8.28516 40.9302 7.6296 39.1019 7.6296H22.8887V6.67592C22.8887 4.84798 22.2331 3.2783 20.9218 1.96729C19.6104 0.655973 18.0407 0 16.2128 0H6.67591C4.84798 0 3.2783 0.655869 1.96688 1.96729C0.655451 3.2784 0 4.84808 0 6.67602V35.2871C0 35.3668 0.005115 35.4911 0.0150318 35.6603C0.0248443 35.8289 0.0300637 35.9534 0.0300637 36.0326L0.178921 35.8547L10.2227 24.0518C11.4346 22.6211 13.0639 21.4336 15.1103 20.4904Z" fill="#E0E0E1"/>
<path d="M55.2105 23.2769C54.6843 23.0182 54.0834 22.8886 53.4075 22.8886H20.9814C19.6701 22.8886 18.2445 23.2415 16.7049 23.9471C15.1651 24.6534 13.9679 25.5114 13.1138 26.5256L3.0999 38.3276C2.4838 39.023 2.17575 39.6789 2.17575 40.2952C2.17575 40.891 2.43912 41.3184 2.96555 41.5762C3.49198 41.8349 4.09294 41.9641 4.76864 41.9641H37.1957C38.5068 41.9641 39.9317 41.6112 41.4717 40.906C43.0114 40.2008 44.2081 39.3414 45.0626 38.3276L55.0766 26.5256C55.6924 25.83 56 25.1749 56 24.558C56.0004 23.9622 55.7375 23.5353 55.2105 23.2769Z" fill="#E0E0E1"/>
</svg>
