<svg width="24" height="24" viewBox="0 0 24 24" fill="none" xmlns="http://www.w3.org/2000/svg">
<path d="M7.39683 20.7677C7.65657 20.7677 7.97403 20.7677 8.26263 20.7677C8.55123 20.7677 8.83983 20.7677 9.12843 20.7677C12.1299 20.7677 14.4675 20.6234 14.4675 17.4776C14.4675 14.6782 12.6205 12.3117 10.052 11.5325C11.3507 10.8976 12.2165 9.51228 12.2165 7.9827C12.2165 5.78934 10.456 4 8.23377 4C6.04041 4 4.25109 5.76048 4.25109 7.9827C4.25109 9.54114 5.14575 10.8976 6.41559 11.5325C3.87591 12.3117 2 14.6782 2 17.4776C2.05772 20.6234 4.39539 20.7677 7.39683 20.7677Z" fill="rgba(0, 0, 0, 0.6)"/>
<path d="M21.5854 10.0025C21.5854 10.3079 21.3378 10.5555 21.0324 10.5555H19.0969C18.6388 10.5555 18.2674 10.9269 18.2674 11.385V13.3205C18.2674 13.6259 18.0198 13.8735 17.7144 13.8735C17.409 13.8735 17.1614 13.6259 17.1614 13.3205V11.385C17.1614 10.9269 16.7901 10.5555 16.3319 10.5555H14.3965C14.091 10.5555 13.8435 10.3079 13.8435 10.0025C13.8435 9.6971 14.091 9.44952 14.3965 9.44952H16.3319C16.7901 9.44952 17.1614 9.07814 17.1614 8.62002V6.68454C17.1614 6.37913 17.409 6.13154 17.7144 6.13154C18.0198 6.13154 18.2674 6.37913 18.2674 6.68454V8.62002C18.2674 9.07814 18.6388 9.44952 19.0969 9.44952H21.0324C21.3378 9.44952 21.5854 9.6971 21.5854 10.0025Z" fill="rgba(0, 0, 0, 0.6)"/>
<path fill-rule="evenodd" clip-rule="evenodd" d="M21.0324 10.9703H19.0969C18.8679 10.9703 18.6822 11.1559 18.6822 11.385V13.3205C18.6822 13.855 18.2489 14.2882 17.7144 14.2882C17.18 14.2882 16.7467 13.855 16.7467 13.3205V11.385C16.7467 11.1559 16.561 10.9703 16.3319 10.9703H14.3965C13.862 10.9703 13.4287 10.537 13.4287 10.0025C13.4287 9.46804 13.862 9.03477 14.3965 9.03477H16.3319C16.561 9.03477 16.7467 8.84908 16.7467 8.62002V6.68454C16.7467 6.15007 17.18 5.7168 17.7144 5.7168C18.2489 5.7168 18.6822 6.15007 18.6822 6.68454V8.62002C18.6822 8.84908 18.8679 9.03477 19.0969 9.03477H21.0324C21.5669 9.03477 22.0001 9.46804 22.0001 10.0025C22.0001 10.537 21.5669 10.9703 21.0324 10.9703ZM21.0324 10.5555C21.3378 10.5555 21.5854 10.3079 21.5854 10.0025C21.5854 9.6971 21.3378 9.44952 21.0324 9.44952H19.0969C18.6388 9.44952 18.2674 9.07814 18.2674 8.62002V6.68454C18.2674 6.37913 18.0198 6.13154 17.7144 6.13154C17.409 6.13154 17.1614 6.37913 17.1614 6.68454V8.62002C17.1614 9.07814 16.7901 9.44952 16.3319 9.44952H14.3965C14.091 9.44952 13.8435 9.6971 13.8435 10.0025C13.8435 10.3079 14.091 10.5555 14.3965 10.5555H16.3319C16.7901 10.5555 17.1614 10.9269 17.1614 11.385V13.3205C17.1614 13.6259 17.409 13.8735 17.7144 13.8735C18.0198 13.8735 18.2674 13.6259 18.2674 13.3205V11.385C18.2674 10.9269 18.6388 10.5555 19.0969 10.5555H21.0324Z" fill="rgba(0, 0, 0, 0.6)"/>
</svg>
