<svg width="108" height="108" viewBox="0 0 108 108" fill="none" xmlns="http://www.w3.org/2000/svg">
<rect width="108" height="108" rx="54" fill="#F4F5F9"/>
<path fill-rule="evenodd" clip-rule="evenodd" d="M28.8952 36.8419C28.8952 37.5988 28.3906 38.1034 27.6337 38.1034C26.8768 38.1034 26.3722 37.5988 26.3722 36.8419V27.6326C26.3722 26.8757 26.8768 26.3711 27.6337 26.3711H36.8429C37.5999 26.3711 38.1045 26.8757 38.1045 27.6326C38.1045 28.3896 37.5999 28.8942 36.8429 28.8942H28.8952V36.8419ZM28.8952 79.1034H36.8429C37.5999 79.1034 38.1045 79.7342 38.1045 80.3649C38.1045 81.1219 37.5999 81.6265 36.8429 81.6265H27.6337C26.8768 81.6265 26.3722 81.1219 26.3722 80.3649V71.1557C26.3722 70.3988 26.8768 69.8942 27.6337 69.8942C28.3906 69.8942 28.8952 70.3988 28.8952 71.1557V79.1034ZM71.1569 28.8942H79.1046V36.8419C79.1046 37.5988 79.6092 38.1034 80.3661 38.1034C81.1231 38.1034 81.6277 37.5988 81.6277 36.8419V27.6326C81.6277 26.8757 81.1231 26.3711 80.3661 26.3711H71.1569C70.4 26.3711 69.8954 26.8757 69.8954 27.6326C69.8954 28.2634 70.4 28.8942 71.1569 28.8942ZM79.1046 71.1557C79.1046 70.3988 79.6092 69.8942 80.3661 69.8942C81.1231 69.8942 81.6277 70.3988 81.6277 71.1557V80.3649C81.6277 81.1219 81.1231 81.6265 80.3661 81.6265H71.1569C70.4 81.6265 69.8954 81.1219 69.8954 80.3649C69.8954 79.608 70.4 79.1034 71.1569 79.1034H79.1046V71.1557ZM39.997 49.8346L49.08 51.0961C49.7108 51.2222 50.2154 50.8438 50.4677 50.3392C50.72 49.8346 50.4677 49.2038 49.9631 48.8253C49.9631 48.8253 47.3139 47.0592 48.0708 42.1392C49.7108 41.7607 52.8646 40.7515 55.0093 37.3453C56.0185 38.733 57.6585 40.373 59.9293 40.4992C59.9293 43.7792 59.5508 48.0684 58.2893 49.2038C57.9108 49.5822 57.7846 50.213 58.037 50.7176C58.2893 51.2222 58.6677 51.3484 59.1723 51.3484H59.4246L68.2554 49.7084C68.76 49.5822 69.1385 49.2038 69.2646 48.8253C69.3908 48.3207 69.2646 47.8161 68.8862 47.5638C68.8862 47.5638 66.9939 45.9238 66.237 42.3915C66.1108 41.6346 65.9846 40.7515 66.1108 39.7422C66.2369 37.3453 65.9846 32.9299 62.957 29.7761C60.9385 27.6315 58.037 26.4961 54.2523 26.4961C50.5939 26.4961 47.5662 27.6315 45.5477 29.7761C42.52 32.8038 42.2677 37.2192 42.3939 39.6161C42.52 41.5084 42.1416 43.4007 41.3846 45.0407C40.5016 46.8069 39.6185 47.8161 39.6185 47.8161C39.24 48.1946 39.1139 48.6992 39.24 49.0776C39.1139 49.4561 39.4923 49.8346 39.997 49.8346ZM59.0461 52.7372C59.2985 52.3587 59.9292 51.9803 60.4338 52.1064C60.6861 52.1064 68.76 53.4941 71.4092 57.9095C71.9138 58.5403 72.1661 59.4234 72.2923 60.4326C74.0585 73.1741 73.68 74.4357 73.5538 74.8141C73.3015 75.3187 72.7969 75.6972 72.2923 75.6972H35.3292C34.6985 75.6972 34.1938 75.3187 34.0677 74.8141L34.0607 74.7864C33.9287 74.2652 33.5946 72.9463 35.3292 60.4326C35.4554 59.5495 35.7077 58.6664 36.2123 57.9095C38.9877 53.4941 47.0615 52.1064 47.44 52.1064C48.0708 51.9803 48.5754 52.2326 48.8277 52.7372C49.3323 53.7464 50.2154 54.6295 51.2246 55.2603C52.8646 56.2695 55.0092 56.2695 56.6492 55.2603C57.6585 54.6295 58.5415 53.7464 59.0461 52.7372ZM52.4861 70.1464C52.4861 71.0295 53.2431 71.6603 54 71.6603C54.7569 71.6603 55.5138 71.0295 55.5138 70.1464C55.5138 69.2634 54.7569 68.6326 54 68.6326C53.1169 68.6326 52.4861 69.2634 52.4861 70.1464ZM52.4861 65.731C52.4861 66.6141 53.2431 67.2449 54 67.2449C54.7569 67.2449 55.5138 66.6141 55.5138 65.731C55.5138 64.848 54.7569 64.2172 54 64.2172C53.1169 64.2172 52.4861 64.9741 52.4861 65.731ZM52.4861 61.3157C52.4861 62.1987 53.2431 62.8295 54 62.8295C54.7569 62.8295 55.5138 62.1987 55.5138 61.3157C55.5138 60.4326 54.7569 59.8018 54 59.8018C53.1169 59.8018 52.4861 60.5587 52.4861 61.3157ZM93.2339 51.4757C93.1708 51.4757 93.1392 51.4442 93.1077 51.4126C93.0762 51.3811 93.0446 51.3496 92.9816 51.3496L91.72 50.8449C90.2062 53.6203 87.5569 55.7649 84.4031 55.7649C81.2492 55.7649 78.4739 53.6203 77.0862 50.7188L75.4462 51.3496C75.3831 51.3496 75.3515 51.3811 75.32 51.4126C75.2885 51.4442 75.2569 51.4757 75.1939 51.4757C74.0585 52.2326 73.4277 53.4942 73.4277 54.8819V61.3157C73.4277 62.0726 74.0585 62.5772 74.6892 62.5772H93.7385C94.3692 62.5772 95 62.0726 95 61.3157V54.8819C95 53.4942 94.3692 52.2326 93.2339 51.4757ZM84.1507 53.368C80.7446 53.368 77.9692 49.2049 77.9692 45.7988C77.9692 42.3926 80.7446 39.6172 84.1507 39.6172C87.5569 39.6172 90.3323 42.3926 90.3323 45.7988C90.3323 49.2049 87.5569 53.368 84.1507 53.368ZM34.5723 61.3157V54.8819C34.5723 53.4942 33.9415 52.2326 32.68 51.4757C32.6169 51.4757 32.5854 51.4442 32.5538 51.4126C32.5223 51.3811 32.4907 51.3496 32.4277 51.3496L31.1661 50.8449C29.6523 53.6203 27.003 55.7649 23.8492 55.7649C20.6954 55.7649 17.92 53.6203 16.4061 50.7188L15.0184 51.2234C14.8923 51.4757 14.8923 51.4757 14.7661 51.4757C13.6307 52.2326 13 53.4942 13 54.8819V61.3157C13 62.0726 13.5046 62.5772 14.2615 62.5772H33.3107C33.9415 62.5772 34.5723 62.0726 34.5723 61.3157ZM29.9045 45.7988C29.9045 49.2049 27.1292 53.368 23.723 53.368C20.3169 53.368 17.5415 49.2049 17.5415 45.7988C17.5415 42.3926 20.3169 39.6172 23.723 39.6172C27.1292 39.6172 29.9045 42.3926 29.9045 45.7988Z" fill="rgba(0, 0, 0, 0.6)"/>
</svg>
