<svg width="24" height="24" viewBox="0 0 24 24" fill="none" xmlns="http://www.w3.org/2000/svg">
<path d="M18.4242 10.5C19.4545 9.98489 20.1818 8.89398 20.1818 7.65155C20.1818 5.89398 18.7576 4.46973 17 4.46973C15.2424 4.46973 13.8182 5.89398 13.8182 7.65155C13.8182 8.89398 14.5152 9.98489 15.5758 10.5C14.7879 10.7425 14.0606 11.197 13.4849 11.7728C15.0606 13.1364 16.0303 15.1667 16.0303 17.3788C16.0303 17.5607 16.0303 17.7425 16 17.9243C16.0909 17.9243 16.2121 17.9243 16.303 17.9243C16.5455 17.9243 16.7576 17.9243 17 17.9243C17.2424 17.9243 17.4849 17.9243 17.697 17.9243C20.1212 17.9243 22 17.8031 22 15.2879C21.9697 13.0152 20.4849 11.1364 18.4242 10.5Z" fill="rgba(0, 0, 0, 0.6)"/>
<path d="M7.66667 20.8031C7.9394 20.8031 8.27273 20.8031 8.57576 20.8031C8.87879 20.8031 9.18182 20.8031 9.48485 20.8031C12.6364 20.8031 15.0909 20.6516 15.0909 17.3485C15.0909 14.4091 13.1515 11.9243 10.4546 11.1061C11.8182 10.4395 12.7273 8.98492 12.7273 7.37885C12.7273 5.07582 10.8788 3.19702 8.54546 3.19702C6.24243 3.19702 4.36364 5.04552 4.36364 7.37885C4.36364 9.01522 5.30304 10.4395 6.63637 11.1061C3.9697 11.9243 2 14.4091 2 17.3485C2.06061 20.6516 4.51516 20.8031 7.66667 20.8031Z" fill="rgba(0, 0, 0, 0.6)"/>
</svg>
