<svg width="20" height="21" viewBox="0 0 20 21" fill="none" xmlns="http://www.w3.org/2000/svg">
<path d="M10 0.763672C8.02219 0.763672 6.08879 1.35016 4.4443 2.44898C2.79981 3.54779 1.51809 5.10958 0.761209 6.93684C0.00433284 8.7641 -0.193701 10.7748 0.192152 12.7146C0.578004 14.6544 1.53041 16.4362 2.92894 17.8347C4.32746 19.2333 6.10929 20.1857 8.0491 20.5715C9.98891 20.9574 11.9996 20.7593 13.8268 20.0025C15.6541 19.2456 17.2159 17.9639 18.3147 16.3194C19.4135 14.6749 20 12.7415 20 10.7637C19.9969 8.11246 18.9423 5.57072 17.0677 3.69602C15.193 1.82133 12.6512 0.766768 10 0.763672ZM10 18.7637C8.41775 18.7637 6.87104 18.2945 5.55544 17.4154C4.23985 16.5364 3.21447 15.2869 2.60897 13.8251C2.00347 12.3633 1.84504 10.7548 2.15372 9.20295C2.4624 7.6511 3.22433 6.22564 4.34315 5.10682C5.46197 3.988 6.88743 3.22607 8.43928 2.91739C9.99113 2.60871 11.5997 2.76713 13.0615 3.37264C14.5233 3.97814 15.7727 5.00352 16.6518 6.31911C17.5308 7.6347 18 9.18142 18 10.7637C17.9976 12.8847 17.1539 14.9181 15.6542 16.4178C14.1544 17.9176 12.121 18.7612 10 18.7637ZM9 9.76367C9 9.21139 9.44772 8.76367 10 8.76367C10.5523 8.76367 11 9.21139 11 9.76367V14.7637C11 15.316 10.5523 15.7637 10 15.7637C9.44772 15.7637 9 15.316 9 14.7637V9.76367ZM9 6.76367C9 6.21139 9.44772 5.76367 10 5.76367C10.5523 5.76367 11 6.21139 11 6.76367C11 7.31596 10.5523 7.76367 10 7.76367C9.44772 7.76367 9 7.31596 9 6.76367Z" fill="rgba(0, 0, 0, 0.6)"/>
</svg>
