<svg width="28" height="33" viewBox="0 0 28 33" fill="none" xmlns="http://www.w3.org/2000/svg">
<path fill-rule="evenodd" clip-rule="evenodd" d="M0 4C0 1.79086 1.79086 0 4 0H24C26.2091 0 28 1.79086 28 4V24.5C28 24.5979 27.9965 24.6949 27.9896 24.7911L27.9818 32.1475L19.5418 28.5H4C1.79086 28.5 0 26.7091 0 24.5V4ZM4.04476 20.1841C4.28663 19.8761 4.744 19.4125 5.47593 20.0852C6.20786 20.7579 9.79296 22.7522 14.063 22.7915C17.8325 22.8263 21.3102 21.0242 22.4824 20.4167C22.638 20.3361 22.753 20.2765 22.8226 20.2451C22.8951 20.2124 22.9613 20.1811 23.0227 20.1521C23.4647 19.9434 23.6524 19.8548 24.0548 20.2273C24.5131 20.6515 24.3975 20.986 24.0548 21.4502C23.7121 21.9144 19.6363 24.4839 14.1476 24.4839C8.65885 24.4839 4.24757 21.8599 4.02971 21.4502C3.81185 21.0405 3.80289 20.4921 4.04476 20.1841Z" fill="rgba(0, 0, 0, 0.6)"/>
</svg>
