<svg width="18" height="25" viewBox="0 0 18 25" fill="none" xmlns="http://www.w3.org/2000/svg">
<path d="M8.52201 24.2354C8.72008 24.4005 8.95117 24.4995 9.18226 24.4995C9.41334 24.4995 9.67744 24.4005 9.8425 24.2354C10.1726 23.9383 17.8645 16.7416 17.8645 9.21478C17.8645 4.39497 13.9691 0.499512 9.18226 0.499512C4.39546 0.499512 0.5 4.39497 0.5 9.18177C0.5 16.7416 8.19188 23.9383 8.52201 24.2354ZM4.89065 9.18177C4.89065 6.80488 6.80536 4.89016 9.18226 4.89016C11.5591 4.89016 13.4739 6.80488 13.4739 9.18177C13.4739 11.5587 11.5591 13.4734 9.18226 13.4734C6.80536 13.4734 4.89065 11.5587 4.89065 9.18177Z" fill="rgba(0, 0, 0, 0.6)"/>
</svg>
