<svg width="12" height="16" viewBox="0 0 12 16" fill="none" xmlns="http://www.w3.org/2000/svg">
<path d="M5.34801 15.8239C5.48006 15.934 5.63411 16 5.78817 16C5.94223 16 6.11829 15.934 6.22834 15.8239C6.44842 15.6259 11.5763 10.8281 11.5763 5.81018C11.5763 2.59697 8.97937 0 5.78817 0C2.59697 0 0 2.59697 0 5.78817C0 10.8281 5.12792 15.6259 5.34801 15.8239ZM2.9271 5.78817C2.9271 4.20358 4.20358 2.9271 5.78817 2.9271C7.37277 2.9271 8.64924 4.20358 8.64924 5.78817C8.64924 7.37276 7.37277 8.64924 5.78817 8.64924C4.20358 8.64924 2.9271 7.37276 2.9271 5.78817Z" fill="rgba(0, 0, 0, 0.2)"/>
</svg>
