<svg width="130" height="45" viewBox="0 0 130 45" fill="none" xmlns="http://www.w3.org/2000/svg">
<path d="M60.4341 34.9871H63.1823C64.2357 34.9871 64.7062 35.4575 64.7062 36.2315C64.7228 36.4627 64.6603 36.6927 64.5293 36.8835C64.3982 37.0742 64.2062 37.2143 63.9852 37.2806V37.2948C64.554 37.4288 64.9215 37.8029 64.9215 38.5204C64.9215 39.2378 64.4323 39.953 63.3579 39.953H60.4341V34.9871ZM63.1682 37.0384C63.709 37.0384 63.9712 36.7396 63.9712 36.3326C63.9712 35.881 63.7371 35.6269 63.1284 35.6269H61.1691V37.0384H63.1682ZM63.1542 39.3131C63.9712 39.3131 64.1865 38.8967 64.1865 38.471C64.1865 38.0828 63.9641 37.6782 63.2174 37.6782H61.1691V39.3249L63.1542 39.3131Z" fill="white"/>
<path d="M66.5063 34.9871H70.4858V35.6269H67.2414V37.0666H70.3828V37.7064H67.2414V39.3131H70.549V39.953H66.5063V34.9871Z" fill="white"/>
<path d="M73.4096 35.6269H71.5369V34.9871H76.008V35.6269H74.1353V39.953H73.4096V35.6269Z" fill="white"/>
<path d="M78.5829 35.6269H76.7102V34.9871H81.1813V35.6269H79.3086V39.953H78.5829V35.6269Z" fill="white"/>
<path d="M82.4102 34.9871H86.3897V35.6269H83.1452V37.0666H86.2867V37.7064H83.1452V39.3131H86.4529V39.953H82.4102V34.9871Z" fill="white"/>
<path d="M87.9979 34.9871H91.0597C92.0499 34.9871 92.4104 35.674 92.4104 36.3091C92.4324 36.5778 92.3618 36.846 92.2106 37.0687C92.0593 37.2914 91.8364 37.4551 91.5794 37.5324V37.5465C92.0148 37.6076 92.2816 38.0169 92.3004 38.6027C92.3402 39.5295 92.3683 39.7577 92.5345 39.953H91.762C91.6449 39.8142 91.6449 39.6048 91.6098 39.012C91.5607 38.1204 91.2634 37.8499 90.6547 37.8499H88.7376V39.9671H88.0025L87.9979 34.9871ZM90.7811 37.2054C91.5021 37.2054 91.673 36.7678 91.673 36.4197C91.673 35.9492 91.3898 35.6269 90.8022 35.6269H88.7329V37.2054H90.7811Z" fill="white"/>
<path d="M96.9376 34.9871H97.6703V39.3131H100.676V39.953H96.9305L96.9376 34.9871Z" fill="white"/>
<path d="M101.956 34.9871H105.936V35.6269H102.691V37.0666H105.833V37.7064H102.691V39.3131H105.999V39.953H101.956V34.9871Z" fill="white"/>
<path d="M110.222 37.2759H112.493V39.953H111.968L111.842 39.2472C111.613 39.5263 111.323 39.7474 110.993 39.8925C110.664 40.0376 110.305 40.1026 109.946 40.0823C107.965 40.0823 107.336 38.6497 107.336 37.5582C107.336 35.6387 108.644 34.8647 109.925 34.8647C110.943 34.8647 112.099 35.1847 112.411 36.5561H111.636C111.402 35.8669 110.894 35.5046 109.96 35.5046C108.651 35.5046 108.071 36.4455 108.071 37.4947C108.071 38.9061 108.963 39.4425 109.995 39.4425C111.067 39.4425 111.767 38.8026 111.842 37.9205H110.222V37.2759Z" fill="white"/>
<path d="M117.511 38.5062H115.084L114.454 39.953H113.665L115.901 34.9871H116.739L118.974 39.953H118.136L117.511 38.5062ZM116.294 35.6669L115.358 37.8664H117.231L116.294 35.6669Z" fill="white"/>
<path d="M120.194 34.9871H120.927V39.3131H123.932V39.953H120.187L120.194 34.9871Z" fill="white"/>
<path d="M56.2323 28.0639C56.2323 31.4537 54.8933 32.5664 51.8034 32.5664H49.5866V28.9955H50.4621C51.3656 28.9696 51.8525 28.7109 51.8525 27.7534V14.6318H56.2323V28.0639Z" fill="white"/>
<path d="M71.3473 28.064H67.0986V26.2267H67.0471C66.2231 27.5982 64.5237 28.4639 62.9693 28.4639C59.1303 28.4639 58.0231 26.2385 58.0231 22.7193V14.6318H62.4005V22.4229C62.4005 24.2084 63.1753 24.8294 64.5658 24.8294C65.5185 24.8294 66.9605 24.2084 66.9605 21.8278V14.6318H71.3379L71.3473 28.064Z" fill="white"/>
<path d="M76.4175 23.6392C76.4088 23.9292 76.4698 24.217 76.5953 24.4782C76.7208 24.7395 76.9071 24.9665 77.1385 25.14C77.6166 25.4643 78.1842 25.6289 78.7607 25.6105C79.6105 25.6105 80.8207 25.2482 80.8207 24.199C80.8207 23.1499 79.456 22.957 78.6835 22.7876C75.9283 22.0819 72.4779 22.0113 72.4779 18.3863C72.4779 15.1518 75.954 14.272 78.5805 14.272C81.5159 14.272 84.5825 15.1259 84.737 18.6192H80.692C80.7129 18.3899 80.6713 18.1592 80.5715 17.9519C80.4716 17.7447 80.3174 17.5687 80.1255 17.443C79.7026 17.2019 79.2207 17.0853 78.735 17.1066C78.014 17.1066 76.8623 17.1842 76.8623 18.1158C76.8623 19.3837 79.7977 19.6166 81.8062 20.0565C84.5052 20.5858 85.2075 22.5524 85.2075 23.665C85.2075 27.2618 81.8062 28.4522 78.7935 28.4522C75.6263 28.4522 72.3819 27.3912 72.2531 23.6392H76.4175Z" fill="white"/>
<path d="M89.8097 9.58596H94.1894V28.064H89.8097V9.58596Z" fill="white"/>
<path d="M95.8351 18.7721C95.9123 17.0125 96.7363 15.8739 97.9208 15.1753C99.1052 14.4766 100.653 14.2343 102.172 14.2343C105.339 14.2343 108.403 14.94 108.403 18.7368V24.6177C108.403 25.7563 108.403 26.9984 108.918 28.0593H104.515C104.378 27.6489 104.291 27.223 104.257 26.7913C103.125 27.9817 101.448 28.438 99.8543 28.438C97.3028 28.438 95.2943 27.1442 95.2943 24.3754C95.2943 20 100.035 20.3388 103.073 19.7177C103.82 19.5601 104.232 19.3037 104.232 18.4733C104.232 17.4641 103.022 17.076 102.125 17.076C100.915 17.076 100.142 17.6194 99.9363 18.7579L95.8351 18.7721ZM101.502 25.7351C103.588 25.7351 104.283 24.5448 104.18 21.7761C103.562 22.1642 102.429 22.2465 101.477 22.5006C100.524 22.7547 99.6741 23.1475 99.6741 24.2084C99.6741 25.2694 100.524 25.7351 101.502 25.7351Z" fill="white"/>
<path d="M125.836 28.0639H121.404L119.298 19.1249H119.246L117.16 28.0639H112.727L108.555 14.6318H112.984L115.224 23.3356H115.276L117.181 14.6318H121.355L123.312 23.3027H123.364L125.552 14.6318H130L125.836 28.0639Z" fill="white"/>
<path d="M56.2416 8.47327H51.8431V12.8934H56.2416V8.47327Z" fill="white"/>
<path d="M21.9152 44.0461C34.0186 44.0461 43.8304 34.186 43.8304 22.023C43.8304 9.86005 34.0186 0 21.9152 0C9.81176 0 0 9.86005 0 22.023C0 34.186 9.81176 44.0461 21.9152 44.0461Z" fill="url(#paint0_radial)"/>
<path d="M26.2388 17.7323C28.0881 11.8819 29.5932 5.84101 30.5858 1.26562L28.2285 0.538734C27.3952 4.3943 26.1732 9.39312 24.6376 14.5354C24.2568 15.8151 23.8753 17.0415 23.4929 18.2146C20.1315 18.9509 17.4254 20.1294 15.5363 21.5479C10.2296 25.547 8.48565 30.8398 9.113 34.3308C9.46881 36.3138 10.548 37.7088 12.0742 38.1581C12.4096 38.2558 12.7573 38.3049 13.1065 38.304C14.2559 38.304 15.9156 37.8005 17.8304 35.7163C20.602 32.717 23.2144 26.7914 25.3937 20.3105C31.1335 19.3908 38.0157 20.0189 44.2424 21.6067V19.0191C37.4539 17.3136 31.2927 17.0525 26.2388 17.7323ZM16.0279 34.0367C14.7966 35.3705 13.577 36.0245 12.7671 35.7845C12.1772 35.6128 11.716 34.9048 11.5335 33.9026C11.0419 31.1598 12.5447 26.8925 17.0087 23.538C18.6874 22.3309 20.5751 21.4486 22.5753 20.9363C20.3234 27.323 18.0926 31.8043 16.0279 34.0367Z" fill="white"/>
<defs>
<radialGradient id="paint0_radial" cx="0" cy="0" r="1" gradientUnits="userSpaceOnUse" gradientTransform="translate(15.5106 12.4629) scale(15.7751 15.8527)">
<stop stop-color="#FEFEFE"/>
<stop offset="1" stop-color="rgba(0, 0, 0, 0.6)"/>
</radialGradient>
</defs>
</svg>
