<svg width="24" height="23" viewBox="0 0 24 23" fill="none" xmlns="http://www.w3.org/2000/svg">
<path d="M15.1536 0.291016H8.84645C3.9606 0.291016 0 5.03058 0 9.64143C0 13.0057 2.10752 16.9023 5.14029 18.2259L4.28956 21.269C4.28956 22.7674 5.24308 23.1606 6.40736 22.1428L10.0056 18.9918H15.1536C20.0368 18.9918 24 14.2523 24 9.64143C24 5.03058 20.0394 0.291016 15.1536 0.291016ZM6.78774 11.5716C6.49415 11.5736 6.20662 11.4881 5.96181 11.3261C5.717 11.164 5.52602 10.9327 5.41321 10.6616C5.3004 10.3906 5.27089 10.0921 5.32843 9.80416C5.38597 9.51626 5.52797 9.25202 5.7363 9.04515C5.94463 8.83828 6.20985 8.69815 6.49815 8.64263C6.78645 8.58712 7.08475 8.61873 7.35501 8.73344C7.62526 8.84815 7.85523 9.04076 8.01557 9.2867C8.17592 9.53264 8.25937 9.82077 8.25529 10.1143C8.24924 10.5 8.09211 10.8679 7.81769 11.139C7.54327 11.41 7.17346 11.5626 6.78774 11.5639V11.5716ZM11.9846 11.5716C11.6925 11.5691 11.4078 11.48 11.1663 11.3158C10.9248 11.1515 10.7374 10.9194 10.6277 10.6487C10.5181 10.378 10.4911 10.0808 10.5502 9.79482C10.6093 9.50879 10.7518 9.24669 10.9597 9.04161C11.1677 8.83652 11.4318 8.69766 11.7186 8.64254C12.0054 8.58743 12.3021 8.61854 12.5713 8.73194C12.8404 8.84534 13.0699 9.03595 13.2308 9.27971C13.3917 9.52346 13.4768 9.80942 13.4753 10.1015C13.4672 10.4917 13.3067 10.8633 13.0281 11.1366C12.7494 11.4099 12.3749 11.5633 11.9846 11.5639V11.5716ZM17.2123 11.5716C16.9204 11.5731 16.6347 11.4882 16.391 11.3275C16.1474 11.1668 15.9568 10.9376 15.8433 10.6687C15.7297 10.3999 15.6983 10.1034 15.753 9.81677C15.8077 9.5301 15.9461 9.26604 16.1507 9.0579C16.3552 8.84975 16.6168 8.70683 16.9025 8.64717C17.1882 8.5875 17.4852 8.61376 17.7559 8.72263C18.0267 8.83149 18.2592 9.0181 18.4241 9.25891C18.5889 9.49972 18.6788 9.78396 18.6824 10.0758C18.6841 10.2702 18.6473 10.463 18.5743 10.6431C18.5012 10.8232 18.3933 10.9872 18.2567 11.1254C18.1201 11.2637 17.9575 11.3737 17.7782 11.4489C17.599 11.5241 17.4066 11.5632 17.2123 11.5639V11.5716Z" fill="white" fill-opacity="0.7"/>
</svg>
