<svg width="24" height="25" viewBox="0 0 24 25" fill="none" xmlns="http://www.w3.org/2000/svg">
<path d="M13.03 2.28111L2.04 0.611113C1.53 0.531113 1.01 0.671113 0.62 1.00111C0.23 1.34111 0 1.83111 0 2.34111V23.4111C0 23.9611 0.45 24.4111 1 24.4111H4.25V19.1611C4.25 18.1911 5.03 17.4111 6 17.4111H8.5C9.47 17.4111 10.25 18.1911 10.25 19.1611V24.4111H14.5V4.01111C14.5 3.15111 13.88 2.42111 13.03 2.28111ZM5.5 15.1611H4C3.586 15.1611 3.25 14.8251 3.25 14.4111C3.25 13.9971 3.586 13.6611 4 13.6611H5.5C5.914 13.6611 6.25 13.9971 6.25 14.4111C6.25 14.8251 5.914 15.1611 5.5 15.1611ZM5.5 12.1611H4C3.586 12.1611 3.25 11.8251 3.25 11.4111C3.25 10.9971 3.586 10.6611 4 10.6611H5.5C5.914 10.6611 6.25 10.9971 6.25 11.4111C6.25 11.8251 5.914 12.1611 5.5 12.1611ZM5.5 9.16111H4C3.586 9.16111 3.25 8.82511 3.25 8.41111C3.25 7.99711 3.586 7.66111 4 7.66111H5.5C5.914 7.66111 6.25 7.99711 6.25 8.41111C6.25 8.82511 5.914 9.16111 5.5 9.16111ZM5.5 6.16111H4C3.586 6.16111 3.25 5.82511 3.25 5.41111C3.25 4.99711 3.586 4.66111 4 4.66111H5.5C5.914 4.66111 6.25 4.99711 6.25 5.41111C6.25 5.82511 5.914 6.16111 5.5 6.16111ZM10.5 15.1611H9C8.586 15.1611 8.25 14.8251 8.25 14.4111C8.25 13.9971 8.586 13.6611 9 13.6611H10.5C10.914 13.6611 11.25 13.9971 11.25 14.4111C11.25 14.8251 10.914 15.1611 10.5 15.1611ZM10.5 12.1611H9C8.586 12.1611 8.25 11.8251 8.25 11.4111C8.25 10.9971 8.586 10.6611 9 10.6611H10.5C10.914 10.6611 11.25 10.9971 11.25 11.4111C11.25 11.8251 10.914 12.1611 10.5 12.1611ZM10.5 9.16111H9C8.586 9.16111 8.25 8.82511 8.25 8.41111C8.25 7.99711 8.586 7.66111 9 7.66111H10.5C10.914 7.66111 11.25 7.99711 11.25 8.41111C11.25 8.82511 10.914 9.16111 10.5 9.16111ZM10.5 6.16111H9C8.586 6.16111 8.25 5.82511 8.25 5.41111C8.25 4.99711 8.586 4.66111 9 4.66111H10.5C10.914 4.66111 11.25 4.99711 11.25 5.41111C11.25 5.82511 10.914 6.16111 10.5 6.16111Z" fill="#F5B335"/>
<path d="M22.62 11.2531L15.5 9.76211V24.4111H22.25C23.215 24.4111 24 23.6261 24 22.6611V12.9631C24 12.1371 23.437 11.4341 22.62 11.2531ZM20.25 21.4111H18.75C18.336 21.4111 18 21.0751 18 20.6611C18 20.2471 18.336 19.9111 18.75 19.9111H20.25C20.664 19.9111 21 20.2471 21 20.6611C21 21.0751 20.664 21.4111 20.25 21.4111ZM20.25 18.4111H18.75C18.336 18.4111 18 18.0751 18 17.6611C18 17.2471 18.336 16.9111 18.75 16.9111H20.25C20.664 16.9111 21 17.2471 21 17.6611C21 18.0751 20.664 18.4111 20.25 18.4111ZM20.25 15.4111H18.75C18.336 15.4111 18 15.0751 18 14.6611C18 14.2471 18.336 13.9111 18.75 13.9111H20.25C20.664 13.9111 21 14.2471 21 14.6611C21 15.0751 20.664 15.4111 20.25 15.4111Z" fill="#F5B335"/>
</svg>
