<svg width="22" height="25" viewBox="0 0 22 25" fill="none" xmlns="http://www.w3.org/2000/svg">
<path fill-rule="evenodd" clip-rule="evenodd" d="M2 0.5C0.895431 0.5 0 1.39543 0 2.5V23.2146C0 23.6706 0.560444 23.8886 0.868578 23.5525L2.92951 21.3042C3.32585 20.8718 4.00748 20.8718 4.40382 21.3042L6.59618 23.6958C6.99252 24.1282 7.67415 24.1282 8.07049 23.6958L10.2628 21.3042C10.6592 20.8718 11.3408 20.8718 11.7372 21.3042L13.9295 23.6958C14.3258 24.1282 15.0075 24.1282 15.4038 23.6958L17.5962 21.3042C17.9925 20.8718 18.6742 20.8718 19.0705 21.3042L21.1314 23.5525C21.4396 23.8886 22 23.6706 22 23.2146V2.5C22 1.39543 21.1046 0.5 20 0.5H2ZM9.69209 5.96929V4.88008C9.69209 4.35904 10.1142 3.9375 10.6347 3.9375C11.1553 3.9375 11.5773 4.35904 11.5773 4.88008V5.9562H12.654C13.1745 5.9562 13.5966 6.37775 13.5966 6.89879C13.5966 7.41983 13.1745 7.84137 12.654 7.84137H9.96178C9.36808 7.84137 8.88517 8.32576 8.88517 8.91749C8.88517 9.51184 9.36808 9.99622 9.96178 9.99622H11.3079C12.9411 9.99622 14.2698 11.3237 14.2698 12.9575C14.2698 14.4997 13.0847 15.7696 11.5773 15.9057V16.9949C11.5773 17.1677 11.5305 17.3301 11.4488 17.4714C11.2853 17.7516 10.9819 17.9375 10.6347 17.9375C10.1142 17.9375 9.69209 17.516 9.69209 16.9949V15.9188H8.61549C8.09502 15.9188 7.6729 15.4973 7.6729 14.9762C7.6729 14.4552 8.09502 14.0336 8.61549 14.0336H11.3079C11.6153 14.0336 11.893 13.9053 12.0894 13.6985C12.2723 13.5047 12.3846 13.2429 12.3846 12.9575C12.3846 12.3632 11.9017 11.8814 11.3079 11.8814H9.96178C8.32854 11.8814 7 10.5513 7 8.91749C7 7.37532 8.18494 6.10544 9.69209 5.96929Z" fill="#F5B335"/>
</svg>
