<svg width="24" height="22" viewBox="0 0 24 22" fill="none" xmlns="http://www.w3.org/2000/svg">
<path d="M12 8.65625C14.2523 8.65625 16.0781 6.83041 16.0781 4.57812C16.0781 2.32584 14.2523 0.5 12 0.5C9.74771 0.5 7.92188 2.32584 7.92188 4.57812C7.92188 6.83041 9.74771 8.65625 12 8.65625Z" fill="white" fill-opacity="0.7"/>
<path d="M20.25 8.65626C21.6739 8.65626 22.8281 7.50199 22.8281 6.07813C22.8281 4.65427 21.6739 3.5 20.25 3.5C18.8261 3.5 17.6719 4.65427 17.6719 6.07813C17.6719 7.50199 18.8261 8.65626 20.25 8.65626Z" fill="white" fill-opacity="0.7"/>
<path d="M3.75 8.65626C5.17386 8.65626 6.32812 7.50199 6.32812 6.07813C6.32812 4.65427 5.17386 3.5 3.75 3.5C2.32614 3.5 1.17188 4.65427 1.17188 6.07813C1.17188 7.50199 2.32614 8.65626 3.75 8.65626Z" fill="white" fill-opacity="0.7"/>
<path d="M6.29016 10.9723C5.27531 10.1409 4.35623 10.2509 3.18281 10.2509C1.42781 10.2509 0 11.6703 0 13.4145V18.5337C0 19.2912 0.618281 19.9072 1.37859 19.9072C4.66106 19.9072 4.26562 19.9665 4.26562 19.7656C4.26562 16.1381 3.83597 13.4779 6.29016 10.9723Z" fill="white" fill-opacity="0.7"/>
<path d="M13.1161 10.2682C11.0665 10.0972 9.28506 10.2702 7.74845 11.5385C5.17703 13.5982 5.67189 16.3715 5.67189 19.7641C5.67189 20.6617 6.4022 21.4057 7.31345 21.4057C17.2079 21.4057 17.6017 21.7249 18.1885 20.4255C18.3809 19.9861 18.3281 20.1258 18.3281 15.9223C18.3281 12.5835 15.4372 10.2682 13.1161 10.2682Z" fill="white" fill-opacity="0.7"/>
<path d="M20.8172 10.2508C19.6373 10.2508 18.7233 10.1419 17.7098 10.9722C20.1457 13.4592 19.7344 15.9379 19.7344 19.7655C19.7344 19.9677 19.4061 19.907 22.5722 19.907C23.3597 19.907 24 19.2691 24 18.4848V13.4144C24 11.6702 22.5722 10.2508 20.8172 10.2508Z" fill="white" fill-opacity="0.7"/>
</svg>
