<svg width="24" height="24" viewBox="0 0 24 24" fill="none" xmlns="http://www.w3.org/2000/svg">
<path fill-rule="evenodd" clip-rule="evenodd" d="M18.5404 9.4561C18.035 9.91625 17.2998 9.91625 16.8403 9.4561L10.4994 3.15203C10.0399 2.64587 10.0399 1.90963 10.4994 1.44947L11.6021 0.345113C12.1076 -0.115038 12.8428 -0.115038 13.3023 0.345113L19.6432 6.64918C20.1027 7.15534 20.1027 7.89158 19.6432 8.35174L18.5404 9.4561ZM23.6209 20.7559L14.2672 11.3887L15.5078 10.1463L9.81014 4.44045L4.48007 9.82421L10.1318 15.5301L11.3724 14.2877L20.7261 23.6549C21.1856 24.115 21.9668 24.115 22.4263 23.6549L23.6209 22.4585C24.1264 21.9983 24.1264 21.2161 23.6209 20.7559ZM6.68556 19.5794C7.14505 20.0396 7.88024 20.0396 8.38568 19.5794L9.48845 18.4751C9.94794 18.0149 9.94794 17.2787 9.48845 16.7725L3.1475 10.5145C2.68801 10.0543 1.95283 10.0543 1.44739 10.5145L0.344617 11.6188C-0.114872 12.079 -0.114872 12.8152 0.344617 13.3214L6.68556 19.5794Z" fill="white" fill-opacity="0.7"/>
</svg>
