<svg width="24" height="25" viewBox="0 0 24 25" fill="none" xmlns="http://www.w3.org/2000/svg">
<path d="M13.03 2.28185L2.04 0.611846C1.53 0.531846 1.01 0.671846 0.62 1.00185C0.23 1.34185 0 1.83185 0 2.34185V23.4118C0 23.9618 0.45 24.4118 1 24.4118H4.25V19.1618C4.25 18.1918 5.03 17.4118 6 17.4118H8.5C9.47 17.4118 10.25 18.1918 10.25 19.1618V24.4118H14.5V4.01185C14.5 3.15185 13.88 2.42185 13.03 2.28185ZM5.5 15.1618H4C3.586 15.1618 3.25 14.8258 3.25 14.4118C3.25 13.9978 3.586 13.6618 4 13.6618H5.5C5.914 13.6618 6.25 13.9978 6.25 14.4118C6.25 14.8258 5.914 15.1618 5.5 15.1618ZM5.5 12.1618H4C3.586 12.1618 3.25 11.8258 3.25 11.4118C3.25 10.9978 3.586 10.6618 4 10.6618H5.5C5.914 10.6618 6.25 10.9978 6.25 11.4118C6.25 11.8258 5.914 12.1618 5.5 12.1618ZM5.5 9.16185H4C3.586 9.16185 3.25 8.82585 3.25 8.41185C3.25 7.99785 3.586 7.66185 4 7.66185H5.5C5.914 7.66185 6.25 7.99785 6.25 8.41185C6.25 8.82585 5.914 9.16185 5.5 9.16185ZM5.5 6.16185H4C3.586 6.16185 3.25 5.82585 3.25 5.41185C3.25 4.99785 3.586 4.66185 4 4.66185H5.5C5.914 4.66185 6.25 4.99785 6.25 5.41185C6.25 5.82585 5.914 6.16185 5.5 6.16185ZM10.5 15.1618H9C8.586 15.1618 8.25 14.8258 8.25 14.4118C8.25 13.9978 8.586 13.6618 9 13.6618H10.5C10.914 13.6618 11.25 13.9978 11.25 14.4118C11.25 14.8258 10.914 15.1618 10.5 15.1618ZM10.5 12.1618H9C8.586 12.1618 8.25 11.8258 8.25 11.4118C8.25 10.9978 8.586 10.6618 9 10.6618H10.5C10.914 10.6618 11.25 10.9978 11.25 11.4118C11.25 11.8258 10.914 12.1618 10.5 12.1618ZM10.5 9.16185H9C8.586 9.16185 8.25 8.82585 8.25 8.41185C8.25 7.99785 8.586 7.66185 9 7.66185H10.5C10.914 7.66185 11.25 7.99785 11.25 8.41185C11.25 8.82585 10.914 9.16185 10.5 9.16185ZM10.5 6.16185H9C8.586 6.16185 8.25 5.82585 8.25 5.41185C8.25 4.99785 8.586 4.66185 9 4.66185H10.5C10.914 4.66185 11.25 4.99785 11.25 5.41185C11.25 5.82585 10.914 6.16185 10.5 6.16185Z" fill="white" fill-opacity="0.7"/>
<path d="M22.62 11.2538L15.5 9.76285V24.4118H22.25C23.215 24.4118 24 23.6268 24 22.6618V12.9638C24 12.1378 23.437 11.4348 22.62 11.2538ZM20.25 21.4118H18.75C18.336 21.4118 18 21.0758 18 20.6618C18 20.2478 18.336 19.9118 18.75 19.9118H20.25C20.664 19.9118 21 20.2478 21 20.6618C21 21.0758 20.664 21.4118 20.25 21.4118ZM20.25 18.4118H18.75C18.336 18.4118 18 18.0758 18 17.6618C18 17.2478 18.336 16.9118 18.75 16.9118H20.25C20.664 16.9118 21 17.2478 21 17.6618C21 18.0758 20.664 18.4118 20.25 18.4118ZM20.25 15.4118H18.75C18.336 15.4118 18 15.0758 18 14.6618C18 14.2478 18.336 13.9118 18.75 13.9118H20.25C20.664 13.9118 21 14.2478 21 14.6618C21 15.0758 20.664 15.4118 20.25 15.4118Z" fill="white" fill-opacity="0.7"/>
</svg>
