<svg width="24" height="25" viewBox="0 0 24 25" fill="none" xmlns="http://www.w3.org/2000/svg">
<path d="M23.25 9.49974C23.664 9.49974 24 9.16374 24 8.74974V7.24974C24 6.97224 23.847 6.71874 23.6025 6.58824L12.3525 0.588238C12.132 0.471238 11.868 0.471238 11.646 0.588238L0.396 6.58824C0.153 6.71874 0 6.97224 0 7.24974V8.74974C0 9.16374 0.336 9.49974 0.75 9.49974H3V19.9997H1.5C0.6735 19.9997 0 20.6717 0 21.4997V23.7497C0 24.1637 0.336 24.4997 0.75 24.4997H23.25C23.664 24.4997 24 24.1637 24 23.7497V21.4997C24 20.6717 23.328 19.9997 22.5 19.9997H21V9.49974H23.25ZM10.5 19.9997H6V9.49974H10.5V19.9997ZM18 19.9997H13.5V9.49974H18V19.9997Z" fill="white" fill-opacity="0.7"/>
</svg>
