<svg width="24" height="19" viewBox="0 0 24 19" fill="none" xmlns="http://www.w3.org/2000/svg">
<path d="M16.6452 0.5H2.32258C1.04177 0.5 0 1.54177 0 2.82258V11.1452C0 12.426 1.04177 13.4677 2.32258 13.4677H4.4071L4.45161 15.5648C4.46521 16.194 5.18753 16.5464 5.69177 16.1668C9.50395 13.2927 8.96376 13.6999 9.27193 13.4677H16.6452C17.926 13.4677 18.9677 12.426 18.9677 11.1452V2.82258C18.9677 1.54177 17.926 0.5 16.6452 0.5ZM24 7.66129V14.0484C24 15.3311 22.9602 16.371 21.6774 16.371H19.5895L19.5484 17.9876C19.5374 18.4081 19.1921 18.7419 18.7742 18.7419C18.4683 18.7419 18.6918 18.8295 14.7648 16.371H11.371C10.7789 16.371 10.238 16.1483 9.82756 15.7823C9.29594 15.3083 9.62932 14.4288 10.3416 14.4288H17.3853C18.8873 14.4288 20.1048 13.2112 20.1048 11.7092V6.1129C20.1048 5.68531 20.4514 5.33871 20.879 5.33871H21.6774C22.9602 5.33871 24 6.37855 24 7.66129Z" fill="#F5B335"/>
</svg>
