<svg width="24" height="25" viewBox="0 0 24 25" fill="none" xmlns="http://www.w3.org/2000/svg">
<path d="M10.9091 1.59091C10.9091 0.987636 10.4215 0.5 9.81818 0.5H1.09091C0.487636 0.5 0 0.987636 0 1.59091V10.3182C0 10.9215 0.487636 11.4091 1.09091 11.4091H9.81818C10.4215 11.4091 10.9091 10.9215 10.9091 10.3182V1.59091Z" fill="white" fill-opacity="0.7"/>
<path d="M14.1818 11.4091H22.9091C23.5124 11.4091 24 10.9215 24 10.3182V1.59091C24 0.987636 23.5124 0.5 22.9091 0.5H14.1818C13.5785 0.5 13.0909 0.987636 13.0909 1.59091V10.3182C13.0909 10.9215 13.5785 11.4091 14.1818 11.4091Z" fill="white" fill-opacity="0.7"/>
<path d="M10.9091 23.4091V14.6818C10.9091 14.0785 10.4215 13.5909 9.81818 13.5909H1.09091C0.487636 13.5909 0 14.0785 0 14.6818V23.4091C0 24.0124 0.487636 24.5 1.09091 24.5H9.81818C10.4215 24.5 10.9091 24.0124 10.9091 23.4091Z" fill="white" fill-opacity="0.7"/>
<path d="M13.0909 23.4091C13.0909 24.0124 13.5785 24.5 14.1818 24.5H22.9091C23.5124 24.5 24 24.0124 24 23.4091V14.6818C24 14.0785 23.5124 13.5909 22.9091 13.5909H14.1818C13.5785 13.5909 13.0909 14.0785 13.0909 14.6818V23.4091Z" fill="white" fill-opacity="0.7"/>
</svg>
