<svg width="22" height="25" viewBox="0 0 22 25" fill="none" xmlns="http://www.w3.org/2000/svg">
<path d="M21.3498 9.15054C21.3498 9.03469 21.3311 8.92076 21.2942 8.81166L19.1399 1.26602C19.0111 0.815021 18.5936 0.5 18.1245 0.5H3.87269C3.40364 0.5 2.9861 0.815021 2.8573 1.26602L0.689073 8.86069C0.658136 8.96908 0.645136 9.08263 0.650347 9.19826H0.65095C0.648317 9.48229 0.646342 11.2747 0.646617 23.3207C0.646617 23.9709 1.17567 24.5 1.82596 24.5H20.1741C20.8243 24.5 21.3534 23.9709 21.3534 23.3207C21.3534 23.3206 21.3498 9.17226 21.3498 9.15054ZM3.26508 7.98036C3.2133 7.91168 3.19668 7.82266 3.22032 7.73988L4.629 2.80564C4.66263 2.68787 4.77025 2.60668 4.89273 2.60668H9.67465C9.8261 2.60668 9.94892 2.7295 9.94892 2.88095V7.8152C9.94892 7.96665 9.8261 8.08946 9.67465 8.08946H3.48405C3.39799 8.08946 3.31697 8.04909 3.26508 7.98036ZM13.281 12.6959H8.719C8.32702 12.6959 8.00932 12.3781 8.00932 11.9862C8.00932 11.5942 8.32702 11.2765 8.719 11.2765H13.281C13.6729 11.2765 13.9907 11.5942 13.9907 11.9862C13.9907 12.3781 13.6729 12.6959 13.281 12.6959ZM18.7651 7.98036C18.7133 8.04904 18.6322 8.08946 18.5462 8.08946H12.3556C12.2041 8.08946 12.0813 7.96665 12.0813 7.8152V2.881C12.0813 2.72956 12.2041 2.60674 12.3556 2.60674H17.1375C17.2599 2.60674 17.3676 2.68792 17.4012 2.80569L18.81 7.73994C18.8336 7.82266 18.8169 7.91168 18.7651 7.98036Z" fill="white" fill-opacity="0.7"/>
</svg>
