<svg width="23" height="25" viewBox="0 0 23 25" fill="none" xmlns="http://www.w3.org/2000/svg">
<path d="M22.3508 22.0385L17.9938 17.6815C19.6185 15.86 20.6277 13.4477 20.6277 10.8138C20.6277 5.12769 16 0.5 10.3138 0.5C4.62769 0.5 0 5.12769 0 10.8138C0 16.5 4.62769 21.1277 10.3138 21.1277C12.3323 21.1277 14.2031 20.5369 15.7785 19.5523L20.3077 24.0815C20.5785 24.3523 20.9477 24.5 21.3169 24.5C21.6862 24.5 22.0554 24.3523 22.3262 24.0815C22.9169 23.5154 22.9169 22.6046 22.3508 22.0385ZM2.88 10.8138C2.88 6.72769 6.20308 3.38 10.3138 3.38C14.4246 3.38 17.7231 6.72769 17.7231 10.8138C17.7231 14.9 14.4 18.2477 10.3138 18.2477C6.22769 18.2477 2.88 14.9246 2.88 10.8138Z" fill="#F5B335"/>
</svg>
