<svg width="24" height="24" viewBox="0 0 24 24" fill="none" xmlns="http://www.w3.org/2000/svg">
<path fill-rule="evenodd" clip-rule="evenodd" d="M23.8741 3.59927C24.5857 4.16858 25 5.03052 25 5.94187V20.5C25 22.1569 23.6569 23.5 22 23.5H3.5C3.44549 23.5 3.39324 23.4932 3.34383 23.4805C3.231 23.4934 3.11627 23.5 3 23.5C1.34315 23.5 0 22.1569 0 20.5V7.5C0 6.39543 0.895431 5.5 2 5.5H4V3.5C4 1.84315 5.34314 0.5 7 0.5H18.9477C19.6289 0.5 20.2898 0.731842 20.8217 1.15739L23.8741 3.59927ZM4 7.5H2V20.5C2 21.0523 2.44772 21.5 3 21.5C3.22509 21.5 3.43281 21.4256 3.59993 21.3001L3.80901 20.882C3.93461 20.6308 4 20.3538 4 20.0729V7.5ZM21 13H8C7.72385 13 7.5 13.2239 7.5 13.5C7.5 13.7761 7.72385 14 8 14H21C21.2761 14 21.5 13.7761 21.5 13.5C21.5 13.2239 21.2761 13 21 13ZM21 17H8C7.72385 17 7.5 16.7761 7.5 16.5C7.5 16.2239 7.72385 16 8 16H21C21.2761 16 21.5 16.2239 21.5 16.5C21.5 16.7761 21.2761 17 21 17ZM21 19H8C7.72385 19 7.5 19.2239 7.5 19.5C7.5 19.7761 7.72385 20 8 20H21C21.2761 20 21.5 19.7761 21.5 19.5C21.5 19.2239 21.2761 19 21 19ZM8 5.5C8 4.94772 8.44771 4.5 9 4.5H14C14.5523 4.5 15 4.94772 15 5.5V9.5C15 10.0523 14.5523 10.5 14 10.5H9C8.44771 10.5 8 10.0523 8 9.5V5.5Z" fill="#F5B335"/>
</svg>
