<svg width="21" height="24" viewBox="0 0 21 24" fill="none" xmlns="http://www.w3.org/2000/svg">
<path fill-rule="evenodd" clip-rule="evenodd" d="M0.5 3C0.5 1.34315 1.84315 0 3.5 0H14.5L20.5 6L20.5 21C20.5 22.6569 19.1569 24 17.5 24H3.5C1.84315 24 0.5 22.6569 0.5 21V3ZM5.25079 9C4.83658 9 4.50079 9.33579 4.50079 9.75C4.50079 10.1642 4.83658 10.5 5.25079 10.5H15.7508C16.165 10.5 16.5008 10.1642 16.5008 9.75C16.5008 9.33579 16.165 9 15.7508 9H5.25079ZM4.50079 13.7507C4.50079 13.3365 4.83658 13.0007 5.25079 13.0007H15.7508C16.165 13.0007 16.5008 13.3365 16.5008 13.7507C16.5008 14.1649 16.165 14.5007 15.7508 14.5007H5.25079C4.83658 14.5007 4.50079 14.1649 4.50079 13.7507ZM5.25079 16.9993C4.83658 16.9993 4.50079 17.3351 4.50079 17.7493C4.50079 18.1635 4.83658 18.4993 5.25079 18.4993H15.7508C16.165 18.4993 16.5008 18.1635 16.5008 17.7493C16.5008 17.3351 16.165 16.9993 15.7508 16.9993H5.25079Z" fill="#F5B335"/>
</svg>
