<svg width="24" height="24" viewBox="0 0 24 24" fill="none" xmlns="http://www.w3.org/2000/svg">
<g clip-path="url(#clip0)">
<path d="M4.91648 0.412268C3.83167 0.219319 2.79585 0.942317 2.6029 2.02713L1.96777 5.59799C2.55277 4.74147 3.46918 4.11238 4.57143 3.91845L14.6547 2.14436L4.91648 0.412268Z" fill="rgba(0, 0, 0, 0.6)"/>
<path d="M20.2569 3.64176C20.6043 4.07497 20.77 4.65012 20.6651 5.23975L18.1512 19.3735C17.9583 20.4583 16.9224 21.1813 15.8376 20.9884L5.21671 19.0993L3.29797 8.19389C3.10704 7.10873 3.83197 6.07425 4.91713 5.88332L18.9352 3.41694C19.4071 3.33391 19.8694 3.42408 20.2569 3.64176Z" fill="rgba(0, 0, 0, 0.6)"/>
<path d="M3.12557 18.7274L1.70385 18.4745C0.619045 18.2815 -0.103953 17.2457 0.0889957 16.1609L1.38853 8.85461L3.12557 18.7274Z" fill="rgba(0, 0, 0, 0.6)"/>
<path d="M3.29798 8.19387C3.10705 7.10871 3.83197 6.07423 4.91714 5.8833L18.9352 3.41692C20.0203 3.22599 21.0548 3.95091 21.2458 5.03608L23.7121 19.0541C23.9031 20.1393 23.1781 21.1738 22.093 21.3647L8.07493 23.8311C6.98977 24.022 5.95529 23.2971 5.76436 22.2119L3.29798 8.19387Z" fill="rgba(0, 0, 0, 0.6)"/>
<path d="M6.7853 12.0195C6.71806 11.6381 6.9728 11.2743 7.35426 11.2071L18.406 9.25832C18.7878 9.19109 19.1513 9.44578 19.2185 9.82724C19.2857 10.2087 19.031 10.5725 18.6495 10.6397L7.59783 12.5885C7.55664 12.5957 7.51563 12.5993 7.47523 12.5993C7.14123 12.5993 6.84529 12.3598 6.7853 12.0195ZM15.94 16.8152L8.57219 18.1143C8.531 18.1216 8.48999 18.1251 8.44959 18.1251C8.11559 18.1251 7.81965 17.8857 7.75966 17.5454C7.69242 17.1639 7.94717 16.8001 8.32863 16.7329L15.6964 15.4337C16.0781 15.3664 16.4416 15.6212 16.5089 16.0026C16.5762 16.3841 16.3214 16.7479 15.94 16.8152ZM19.1367 13.4027L8.08497 15.3514C8.04377 15.3586 8.00276 15.3621 7.96236 15.3621C7.62836 15.3621 7.33243 15.1227 7.27244 14.7824C7.2052 14.401 7.45994 14.0372 7.8414 13.9699L18.8931 12.0212C19.2749 11.954 19.6384 12.2087 19.7056 12.5901C19.7729 12.9716 19.5181 13.3354 19.1367 13.4027Z" fill="white"/>
</g>
<defs>
<clipPath id="clip0">
<rect width="24" height="24" fill="white"/>
</clipPath>
</defs>
</svg>
