<svg width="18" height="20" viewBox="0 0 18 20" fill="currentColor" xmlns="http://www.w3.org/2000/svg">
<path d="M16.8157 14.0942C15.5557 13.0292 14.8332 11.4725 14.8332 9.82333V7.5C14.8332 4.5675 12.6548 2.14 9.83317 1.73333V0.833333C9.83317 0.3725 9.45983 0 8.99983 0C8.53983 0 8.1665 0.3725 8.1665 0.833333V1.73333C5.344 2.14 3.1665 4.5675 3.1665 7.5V9.82333C3.1665 11.4725 2.444 13.0292 1.1765 14.1008C0.852337 14.3783 0.666504 14.7817 0.666504 15.2083C0.666504 16.0125 1.32067 16.6667 2.12484 16.6667H15.8748C16.679 16.6667 17.3332 16.0125 17.3332 15.2083C17.3332 14.7817 17.1473 14.3783 16.8157 14.0942Z" fill="#111111"/>
<path d="M8.99951 20C10.5087 20 11.7712 18.9242 12.0612 17.5H5.93785C6.22785 18.9242 7.49035 20 8.99951 20Z" fill="#111111"/>
</svg>
