<svg width="19" height="17" viewBox="0 0 19 17" fill="none" xmlns="http://www.w3.org/2000/svg">
<path fill-rule="evenodd" clip-rule="evenodd" d="M0.252916 10.2642L0.25 14.2198C0.25 15.3421 1.05549 16.2512 2.05001 16.2512H16.45C17.4445 16.2512 18.25 15.3421 18.25 14.2198V4.06282C18.25 2.94049 17.4445 2.03141 16.45 2.03141H9.24998L7.44997 0H2.04997C1.05549 0 0.258986 0.909032 0.258986 2.03141L0.25437 8.29266H7.20917V5.44575C7.20917 5.02067 7.71122 4.79494 8.02919 5.07706L12.3489 8.90975C12.57 9.10585 12.57 9.45103 12.3489 9.64714L8.02919 13.4798C7.71122 13.7619 7.20917 13.5362 7.20917 13.1111V10.2642H0.252916Z" fill="rgba(0, 0, 0, 0.6)"/>
</svg>
