<svg width="22" height="22" viewBox="0 0 22 22" fill="none" xmlns="http://www.w3.org/2000/svg">
<path d="M19.94 2.64538C17.1982 -0.0966355 12.7365 -0.0966355 9.99413 2.64538L1.46878 11.1707C-0.489699 13.1294 -0.48957 16.3163 1.46903 18.2749C2.44842 19.2543 3.73448 19.7439 5.02105 19.7438C6.30728 19.7437 7.59402 19.2542 8.57324 18.2749L16.3879 10.46C16.9572 9.89077 17.2708 9.13388 17.2709 8.32882C17.2709 7.52371 16.9574 6.76686 16.388 6.19743C15.2127 5.02228 13.3005 5.02232 12.1254 6.19765L7.01493 11.308C6.62258 11.7003 6.62258 12.3365 7.01484 12.7289C7.40715 13.1213 8.0433 13.1212 8.43569 12.7289L13.5462 7.61846C13.938 7.22671 14.5753 7.22662 14.9671 7.61837C15.1568 7.80812 15.2614 8.06043 15.2614 8.32877C15.2614 8.59711 15.1569 8.84934 14.9671 9.03918L7.15239 16.854C5.97715 18.0291 4.06504 18.0293 2.88988 16.8541C1.71473 15.6788 1.71464 13.7666 2.88967 12.5914L11.415 4.06622C13.3738 2.10754 16.5607 2.10754 18.5192 4.06622C19.4681 5.01498 19.9907 6.2765 19.9907 7.61828C19.9907 8.96007 19.468 10.2216 18.5192 11.1704L9.994 19.6959C9.6017 20.0882 9.6017 20.7243 9.99409 21.1167C10.1903 21.313 10.4474 21.411 10.7045 21.411C10.9616 21.411 11.2187 21.3128 11.4149 21.1167L19.94 12.5913C21.2684 11.263 22 9.49692 22 7.61833C22 5.73977 21.2684 3.97367 19.94 2.64538Z" fill="rgba(0, 0, 0, 0.6)"/>
</svg>
