<svg width="20" height="20" viewBox="0 0 20 20" fill="none" xmlns="http://www.w3.org/2000/svg">
<path d="M19.0323 10C19.0323 10.7126 18.4546 11.2903 17.7419 11.2903H13.2258C12.1569 11.2903 11.2903 12.1569 11.2903 13.2258V17.7419C11.2903 18.4546 10.7126 19.0323 10 19.0323C9.28737 19.0323 8.70968 18.4546 8.70968 17.7419V13.2258C8.70968 12.1569 7.84313 11.2903 6.77419 11.2903H2.25806C1.54544 11.2903 0.967742 10.7126 0.967742 10C0.967742 9.28737 1.54544 8.70968 2.25806 8.70968H6.77419C7.84313 8.70968 8.70968 7.84313 8.70968 6.77419V2.25806C8.70968 1.54544 9.28737 0.967742 10 0.967742C10.7126 0.967742 11.2903 1.54544 11.2903 2.25806V6.77419C11.2903 7.84313 12.1569 8.70968 13.2258 8.70968H17.7419C18.4546 8.70968 19.0323 9.28737 19.0323 10Z" fill="black"/>
<path fill-rule="evenodd" clip-rule="evenodd" d="M17.7419 12.2581H13.2258C12.6913 12.2581 12.2581 12.6913 12.2581 13.2258V17.7419C12.2581 18.989 11.2471 20 10 20C8.7529 20 7.74193 18.989 7.74193 17.7419V13.2258C7.74193 12.6913 7.30866 12.2581 6.77419 12.2581H2.25806C1.01097 12.2581 0 11.2471 0 10C0 8.7529 1.01097 7.74193 2.25806 7.74193H6.77419C7.30866 7.74193 7.74193 7.30866 7.74193 6.77419V2.25806C7.74193 1.01097 8.75291 0 10 0C11.2471 0 12.2581 1.01097 12.2581 2.25806V6.77419C12.2581 7.30866 12.6913 7.74193 13.2258 7.74193H17.7419C18.989 7.74193 20 8.75291 20 10C20 11.2471 18.989 12.2581 17.7419 12.2581ZM17.7419 11.2903C18.4546 11.2903 19.0323 10.7126 19.0323 10C19.0323 9.28737 18.4546 8.70968 17.7419 8.70968H13.2258C12.1569 8.70968 11.2903 7.84313 11.2903 6.77419V2.25806C11.2903 1.54544 10.7126 0.967742 10 0.967742C9.28737 0.967742 8.70968 1.54544 8.70968 2.25806V6.77419C8.70968 7.84313 7.84313 8.70968 6.77419 8.70968H2.25806C1.54544 8.70968 0.967742 9.28737 0.967742 10C0.967742 10.7126 1.54544 11.2903 2.25806 11.2903H6.77419C7.84313 11.2903 8.70968 12.1569 8.70968 13.2258V17.7419C8.70968 18.4546 9.28737 19.0323 10 19.0323C10.7126 19.0323 11.2903 18.4546 11.2903 17.7419V13.2258C11.2903 12.1569 12.1569 11.2903 13.2258 11.2903H17.7419Z" fill="black"/>
</svg>
