<svg width="24" height="24" viewBox="0 0 24 24" fill="none" xmlns="http://www.w3.org/2000/svg">
<path d="M21.0323 12C21.0323 12.7126 20.4546 13.2903 19.7419 13.2903H15.2258C14.1569 13.2903 13.2903 14.1569 13.2903 15.2258V19.7419C13.2903 20.4546 12.7126 21.0323 12 21.0323C11.2874 21.0323 10.7097 20.4546 10.7097 19.7419V15.2258C10.7097 14.1569 9.84313 13.2903 8.77419 13.2903H4.25806C3.54544 13.2903 2.96774 12.7126 2.96774 12C2.96774 11.2874 3.54544 10.7097 4.25806 10.7097H8.77419C9.84313 10.7097 10.7097 9.84313 10.7097 8.77419V4.25806C10.7097 3.54544 11.2874 2.96774 12 2.96774C12.7126 2.96774 13.2903 3.54544 13.2903 4.25806V8.77419C13.2903 9.84313 14.1569 10.7097 15.2258 10.7097H19.7419C20.4546 10.7097 21.0323 11.2874 21.0323 12Z" fill="rgba(0, 0, 0, 0.6)"/>
<path fill-rule="evenodd" clip-rule="evenodd" d="M19.7419 14.2581H15.2258C14.6913 14.2581 14.2581 14.6913 14.2581 15.2258V19.7419C14.2581 20.989 13.2471 22 12 22C10.7529 22 9.74193 20.989 9.74193 19.7419V15.2258C9.74193 14.6913 9.30866 14.2581 8.77419 14.2581H4.25806C3.01097 14.2581 2 13.2471 2 12C2 10.7529 3.01097 9.74193 4.25806 9.74193H8.77419C9.30866 9.74193 9.74193 9.30866 9.74193 8.77419V4.25806C9.74193 3.01097 10.7529 2 12 2C13.2471 2 14.2581 3.01097 14.2581 4.25806V8.77419C14.2581 9.30866 14.6913 9.74193 15.2258 9.74193H19.7419C20.989 9.74193 22 10.7529 22 12C22 13.2471 20.989 14.2581 19.7419 14.2581ZM19.7419 13.2903C20.4546 13.2903 21.0323 12.7126 21.0323 12C21.0323 11.2874 20.4546 10.7097 19.7419 10.7097H15.2258C14.1569 10.7097 13.2903 9.84313 13.2903 8.77419V4.25806C13.2903 3.54544 12.7126 2.96774 12 2.96774C11.2874 2.96774 10.7097 3.54544 10.7097 4.25806V8.77419C10.7097 9.84313 9.84313 10.7097 8.77419 10.7097H4.25806C3.54544 10.7097 2.96774 11.2874 2.96774 12C2.96774 12.7126 3.54544 13.2903 4.25806 13.2903H8.77419C9.84313 13.2903 10.7097 14.1569 10.7097 15.2258V19.7419C10.7097 20.4546 11.2874 21.0323 12 21.0323C12.7126 21.0323 13.2903 20.4546 13.2903 19.7419V15.2258C13.2903 14.1569 14.1569 13.2903 15.2258 13.2903H19.7419Z" fill="rgba(0, 0, 0, 0.6)"/>
</svg>
