<svg width="16" height="16" viewBox="0 0 16 16" fill="none" xmlns="http://www.w3.org/2000/svg">
<path d="M15.2258 8C15.2258 8.5701 14.7636 9.03226 14.1935 9.03226H10.5806C9.72549 9.03226 9.03226 9.72549 9.03226 10.5806V14.1935C9.03226 14.7636 8.5701 15.2258 8 15.2258C7.4299 15.2258 6.96774 14.7636 6.96774 14.1935V10.5806C6.96774 9.72549 6.27451 9.03226 5.41935 9.03226H1.80645C1.23635 9.03226 0.774194 8.5701 0.774194 8C0.774194 7.4299 1.23635 6.96774 1.80645 6.96774H5.41935C6.27451 6.96774 6.96774 6.27451 6.96774 5.41935V1.80645C6.96774 1.23635 7.4299 0.774194 8 0.774194C8.5701 0.774194 9.03226 1.23635 9.03226 1.80645V5.41935C9.03226 6.27451 9.72549 6.96774 10.5806 6.96774H14.1935C14.7636 6.96774 15.2258 7.4299 15.2258 8Z" fill="rgba(0, 0, 0, 0.2)"/>
<path fill-rule="evenodd" clip-rule="evenodd" d="M14.1935 9.80645H10.5806C10.1531 9.80645 9.80645 10.1531 9.80645 10.5806V14.1935C9.80645 15.1912 8.99768 16 8 16C7.00232 16 6.19355 15.1912 6.19355 14.1935V10.5806C6.19355 10.1531 5.84693 9.80645 5.41935 9.80645H1.80645C0.808776 9.80645 0 8.99768 0 8C0 7.00232 0.808776 6.19355 1.80645 6.19355H5.41935C5.84693 6.19355 6.19355 5.84693 6.19355 5.41935V1.80645C6.19355 0.808776 7.00233 0 8 0C8.99768 0 9.80645 0.808776 9.80645 1.80645V5.41935C9.80645 5.84693 10.1531 6.19355 10.5806 6.19355H14.1935C15.1912 6.19355 16 7.00233 16 8C16 8.99768 15.1912 9.80645 14.1935 9.80645ZM14.1935 9.03226C14.7636 9.03226 15.2258 8.5701 15.2258 8C15.2258 7.4299 14.7636 6.96774 14.1935 6.96774H10.5806C9.72549 6.96774 9.03226 6.27451 9.03226 5.41935V1.80645C9.03226 1.23635 8.5701 0.774194 8 0.774194C7.4299 0.774194 6.96774 1.23635 6.96774 1.80645V5.41935C6.96774 6.27451 6.27451 6.96774 5.41935 6.96774H1.80645C1.23635 6.96774 0.774194 7.4299 0.774194 8C0.774194 8.5701 1.23635 9.03226 1.80645 9.03226H5.41935C6.27451 9.03226 6.96774 9.72549 6.96774 10.5806V14.1935C6.96774 14.7636 7.4299 15.2258 8 15.2258C8.5701 15.2258 9.03226 14.7636 9.03226 14.1935V10.5806C9.03226 9.72549 9.72549 9.03226 10.5806 9.03226H14.1935Z" fill="rgba(0, 0, 0, 0.2)"/>
</svg>
