<svg width="12" height="12" viewBox="0 0 12 12" fill="none" xmlns="http://www.w3.org/2000/svg">
<path d="M10.6666 5.99992C10.6666 6.36811 10.3682 6.66659 9.99998 6.66659H7.66665C7.11436 6.66659 6.66665 7.1143 6.66665 7.66659V9.99992C6.66665 10.3681 6.36817 10.6666 5.99998 10.6666C5.63179 10.6666 5.33331 10.3681 5.33331 9.99992V7.66659C5.33331 7.1143 4.8856 6.66659 4.33331 6.66659H1.99998C1.63179 6.66659 1.33331 6.36811 1.33331 5.99992C1.33331 5.63173 1.63179 5.33325 1.99998 5.33325H4.33331C4.8856 5.33325 5.33331 4.88554 5.33331 4.33325V1.99992C5.33331 1.63173 5.63179 1.33325 5.99998 1.33325C6.36817 1.33325 6.66665 1.63173 6.66665 1.99992V4.33325C6.66665 4.88554 7.11436 5.33325 7.66665 5.33325H9.99998C10.3682 5.33325 10.6666 5.63173 10.6666 5.99992Z" fill="white"/>
<path fill-rule="evenodd" clip-rule="evenodd" d="M9.99998 7.16659H7.66665C7.3905 7.16659 7.16665 7.39044 7.16665 7.66659V9.99992C7.16665 10.6443 6.64431 11.1666 5.99998 11.1666C5.35565 11.1666 4.83331 10.6443 4.83331 9.99992V7.66659C4.83331 7.39044 4.60946 7.16659 4.33331 7.16659H1.99998C1.35565 7.16659 0.833313 6.64425 0.833313 5.99992C0.833313 5.35559 1.35565 4.83325 1.99998 4.83325H4.33331C4.60946 4.83325 4.83331 4.60939 4.83331 4.33325V1.99992C4.83331 1.35559 5.35565 0.833252 5.99998 0.833252C6.64431 0.833252 7.16665 1.35559 7.16665 1.99992V4.33325C7.16665 4.60939 7.3905 4.83325 7.66665 4.83325H9.99998C10.6443 4.83325 11.1666 5.35559 11.1666 5.99992C11.1666 6.64425 10.6443 7.16659 9.99998 7.16659ZM9.99998 6.66659C10.3682 6.66659 10.6666 6.36811 10.6666 5.99992C10.6666 5.63173 10.3682 5.33325 9.99998 5.33325H7.66665C7.11436 5.33325 6.66665 4.88554 6.66665 4.33325V1.99992C6.66665 1.63173 6.36817 1.33325 5.99998 1.33325C5.63179 1.33325 5.33331 1.63173 5.33331 1.99992V4.33325C5.33331 4.88554 4.8856 5.33325 4.33331 5.33325H1.99998C1.63179 5.33325 1.33331 5.63173 1.33331 5.99992C1.33331 6.36811 1.63179 6.66659 1.99998 6.66659H4.33331C4.8856 6.66659 5.33331 7.1143 5.33331 7.66659V9.99992C5.33331 10.3681 5.63179 10.6666 5.99998 10.6666C6.36817 10.6666 6.66665 10.3681 6.66665 9.99992V7.66659C6.66665 7.1143 7.11436 6.66659 7.66665 6.66659H9.99998Z" fill="white"/>
</svg>
