<svg width="48" height="28" viewBox="0 0 48 28" fill="none" xmlns="http://www.w3.org/2000/svg">
<path d="M0 4C0 1.79086 1.79086 0 4 0H44C46.2091 0 48 1.79086 48 4V24C48 26.2091 46.2091 28 44 28H4C1.79086 28 0 26.2091 0 24V4Z" fill="#34495E"/>
<path d="M21.6563 15.0159C21.1513 15.5214 20.6852 15.719 20.1832 15.7296C18.9602 15.7187 18.061 14.8129 18.061 13.5216C18.061 12.8716 18.3071 12.3388 18.697 11.8837C19.0626 11.5366 19.5336 11.3123 20.0753 11.3123C20.66 11.3123 21.115 11.5072 21.6345 12.027V10.5326C21.1151 10.2728 20.6599 10.1428 20.0753 10.1428C19.2493 10.2019 18.4705 10.5356 17.8732 11.0596C17.701 11.2145 17.536 11.3855 17.3961 11.5812C16.9598 12.1468 16.696 12.8393 16.696 13.5868C16.696 15.4709 18.191 16.9003 20.0752 16.9003C20.0844 16.9003 20.0934 16.8995 20.1023 16.8994C20.115 16.8996 20.1275 16.9003 20.1401 16.9003C20.6598 16.9003 21.115 16.7706 21.6997 16.5107L21.6563 15.0159C21.6344 15.0378 21.678 15.0582 21.6563 15.079V15.0159Z" fill="#E7E8E3"/>
<path d="M33.3075 11.0733L31.836 14.6911L30.1465 10.4023H28.7822L31.4461 16.965H32.1608L34.9548 10.4023H33.5905L33.3075 11.0733Z" fill="#E7E8E3"/>
<path d="M35.4749 13.2614V16.7704H38.9837H39.0484V15.7304H37.9439H36.7744V14.5611V13.9765H38.9837V12.8715H36.7744V11.5071H39.0484V10.4023H35.4749V13.2614Z" fill="#E7E8E3"/>
<path d="M6.10545 10.4023H4.28577V16.7704H6.10536C7.07985 16.7704 7.79448 16.5102 8.37927 16.0554C9.0939 15.4706 9.54893 14.5612 9.54893 13.5867C9.54902 11.7018 8.18428 10.4023 6.10545 10.4023ZM7.59976 15.2109C7.20988 15.5357 6.69006 15.7304 5.91028 15.7304H5.52039V11.507H5.84523C6.625 11.507 7.14482 11.637 7.5348 12.0267C7.98956 12.4163 8.24961 13.0014 8.24961 13.5864C8.31457 14.1712 8.05471 14.8207 7.59976 15.2109Z" fill="#E7E8E3"/>
<path d="M11.3687 10.4017H10.1342V16.7696H11.3687V10.4017Z" fill="#E7E8E3"/>
<path d="M14.4873 12.8717C13.7077 12.6118 13.5126 12.4167 13.5126 12.092C13.5126 11.7021 13.9025 11.3773 14.4223 11.3773C14.8122 11.3773 15.137 11.5073 15.4619 11.8972L16.1119 11.0525C15.5919 10.5975 14.9424 10.3379 14.2276 10.3379C13.1227 10.3379 12.213 11.1177 12.213 12.1569C12.213 13.0668 12.6032 13.4566 13.7726 13.9115C14.2924 14.1061 14.4874 14.1713 14.6176 14.3013C14.877 14.431 15.0072 14.6912 15.0072 14.9508C15.0072 15.4707 14.6176 15.8606 14.0325 15.8606C13.4472 15.8606 12.9278 15.5358 12.6678 15.0159L11.8881 15.7957C12.4731 16.6403 13.1878 17.0301 14.0975 17.0301C15.397 17.0301 16.3062 16.1855 16.3062 14.9508C16.3064 13.8464 15.9169 13.3916 14.4873 12.8717Z" fill="#E7E8E3"/>
<path d="M42.5574 14.106C43.5317 13.9113 44.0517 13.2613 44.0517 12.2869C44.0517 11.1175 43.2069 10.4023 41.7777 10.4023H39.8932V16.7704H41.1277V14.236H41.3229L43.0768 16.7704H44.5715L42.5574 14.106ZM41.5174 13.3262H41.1278V11.3771H41.5174C42.2972 11.3771 42.7522 11.7018 42.7522 12.3521C42.7522 13.0015 42.2973 13.3262 41.5174 13.3262Z" fill="#E7E8E3"/>
<path d="M29.0417 13.5683C29.0454 12.7024 28.7207 11.8353 28.0674 11.1819C27.4126 10.5271 26.5433 10.2027 25.6756 10.2079C25.6715 10.2079 25.6675 10.2076 25.6632 10.2076C23.779 10.2076 22.2845 11.7018 22.2845 13.5864C22.2845 15.4525 23.7975 16.9649 25.6632 16.9649C27.5478 16.9649 29.0421 15.4705 29.0421 13.5864C29.0421 13.5802 29.0417 13.5744 29.0417 13.5683Z" fill="#F26E21"/>
</svg>
