<svg width="48" height="28" viewBox="0 0 48 28" fill="none" xmlns="http://www.w3.org/2000/svg">
<path d="M0 4C0 1.79086 1.79086 0 4 0H44C46.2091 0 48 1.79086 48 4V24C48 26.2091 46.2091 28 44 28H4C1.79086 28 0 26.2091 0 24V4Z" fill="#003664"/>
<path d="M41.1428 13.3143C41.1428 18.8326 36.6857 23.3428 31.1143 23.3428C25.596 23.3428 21.0858 18.8326 21.0858 13.3143C21.0858 7.79594 25.5429 3.28577 31.0613 3.28577C36.6857 3.28577 41.1428 7.79594 41.1428 13.3143Z" fill="#FFB600"/>
<path d="M31.1143 3.28577C36.6327 3.28577 41.1428 7.79594 41.1428 13.3143C41.1428 18.8326 36.6857 23.3428 31.1143 23.3428C25.596 23.3428 21.0858 18.8326 21.0858 13.3143" fill="#F7981D"/>
<path d="M31.1143 3.28577C36.6326 3.28577 41.1428 7.79594 41.1428 13.3143C41.1428 18.8326 36.6857 23.3428 31.1143 23.3428" fill="#FF8500"/>
<path d="M17.6366 3.28577C12.1714 3.33883 7.71423 7.79594 7.71423 13.3143C7.71423 18.8326 12.1713 23.3428 17.7427 23.3428C20.3427 23.3428 22.6774 22.3346 24.4815 20.7428C24.8529 20.4244 25.1713 20.053 25.4896 19.6816H23.4203C23.155 19.3632 22.8897 18.9918 22.6774 18.6734H26.2325C26.4447 18.3551 26.657 17.9836 26.8162 17.6122H22.0937C21.9346 17.2938 21.7754 16.9224 21.6693 16.551H27.1876C27.506 15.5428 27.7182 14.4816 27.7182 13.3673C27.7182 12.6245 27.6121 11.9347 27.506 11.2449H21.3509C21.4039 10.8735 21.5101 10.5551 21.6162 10.1837H27.1345C27.0284 9.81226 26.8692 9.44083 26.71 9.12247H22.0407C22.1999 8.75104 22.4121 8.43268 22.6243 8.06125H26.1794C25.9672 7.68982 25.7019 7.3184 25.3835 7.00003H23.4203C23.7386 6.6286 24.057 6.31024 24.4284 5.99187C22.6774 4.34699 20.2897 3.39189 17.6897 3.39189C17.6897 3.28577 17.6897 3.28577 17.6366 3.28577Z" fill="#FF5050"/>
<path d="M7.71423 13.3095C7.71423 18.8278 12.1713 23.338 17.7427 23.338C20.3427 23.338 22.6774 22.3298 24.4815 20.738C24.8529 20.4196 25.1713 20.0482 25.4896 19.6768H23.4203C23.155 19.3584 22.8897 18.987 22.6774 18.6686H26.2325C26.4447 18.3503 26.657 17.9788 26.8162 17.6074H22.0937C21.9346 17.289 21.7754 16.9176 21.6693 16.5462H27.1876C27.506 15.538 27.7182 14.4768 27.7182 13.3625C27.7182 12.6197 27.6121 11.9299 27.506 11.2401H21.3509C21.4039 10.8687 21.5101 10.5503 21.6162 10.1789H27.1345C27.0284 9.80746 26.8692 9.43603 26.71 9.11766H22.0407C22.1999 8.74624 22.4121 8.42787 22.6243 8.05645H26.1794C25.9672 7.68502 25.7019 7.31359 25.3835 6.99523H23.4203C23.7386 6.6238 24.057 6.30544 24.4284 5.98707C22.6774 4.34218 20.2897 3.38708 17.6897 3.38708H17.6366" fill="#E52836"/>
<path d="M17.7425 23.338C20.3425 23.338 22.6771 22.3298 24.4812 20.738C24.8526 20.4196 25.171 20.0482 25.4894 19.6768H23.42C23.1547 19.3584 22.8894 18.987 22.6771 18.6686H26.2322C26.4445 18.3503 26.6567 17.9788 26.8159 17.6074H22.0935C21.9343 17.289 21.7751 16.9176 21.669 16.5462H27.1873C27.5057 15.538 27.7179 14.4768 27.7179 13.3625C27.7179 12.6197 27.6118 11.9299 27.5057 11.2401H21.3506C21.4037 10.8687 21.5098 10.5503 21.6159 10.1789H27.1343C27.0281 9.80746 26.869 9.43603 26.7098 9.11766H22.0404C22.1996 8.74624 22.4118 8.42787 22.6241 8.05645H26.1792C25.9669 7.68502 25.7016 7.31359 25.3832 6.99523H23.42C23.7384 6.6238 24.0567 6.30544 24.4281 5.98707C22.6771 4.34218 20.2894 3.38708 17.6894 3.38708H17.6364" fill="#CB2026"/>
<path d="M21.2977 15.8636L21.4569 14.9615C21.4038 14.9615 21.2977 15.0146 21.1916 15.0146C20.8201 15.0146 20.7671 14.8024 20.8201 14.6962L21.1385 12.8391H21.7222L21.8813 11.8309H21.3507L21.4569 11.1942H20.3956C20.3956 11.1942 19.7589 14.6962 19.7589 15.1207C19.7589 15.7575 20.1303 16.0228 20.6079 16.0228C20.9263 16.0228 21.1916 15.9166 21.2977 15.8636Z" fill="white"/>
<path d="M21.6692 14.1633C21.6692 15.649 22.6773 16.0204 23.5263 16.0204C24.3222 16.0204 24.6406 15.8612 24.6406 15.8612L24.8528 14.853C24.8528 14.853 24.2692 15.1184 23.7386 15.1184C22.5712 15.1184 22.7835 14.2694 22.7835 14.2694H24.959C24.959 14.2694 25.1181 13.5796 25.1181 13.3143C25.1181 12.6245 24.7467 11.7755 23.5794 11.7755C22.4651 11.6694 21.6692 12.8367 21.6692 14.1633ZM23.5263 12.6245C24.11 12.6245 24.0039 13.3143 24.0039 13.3673H22.8365C22.8365 13.3143 22.9427 12.6245 23.5263 12.6245Z" fill="white"/>
<path d="M30.2647 15.8597L30.4769 14.6923C30.4769 14.6923 29.9463 14.9576 29.5749 14.9576C28.832 14.9576 28.5137 14.374 28.5137 13.7372C28.5137 12.4638 29.1504 11.774 29.8932 11.774C30.4238 11.774 30.8483 12.0924 30.8483 12.0924L31.0075 10.9781C31.0075 10.9781 30.3708 10.7128 29.7871 10.7128C28.5667 10.7128 27.3463 11.774 27.3463 13.7903C27.3463 15.1168 27.983 16.0189 29.2565 16.0189C29.681 16.0189 30.2647 15.8597 30.2647 15.8597Z" fill="white"/>
<path d="M15.4614 11.6646C14.7185 11.6646 14.1879 11.8768 14.1879 11.8768L14.0287 12.7788C14.0287 12.7788 14.5063 12.5666 15.1961 12.5666C15.5675 12.5666 15.8859 12.6196 15.8859 12.938C15.8859 13.1503 15.8328 13.2033 15.8328 13.2033C15.8328 13.2033 15.5144 13.2033 15.3553 13.2033C14.4532 13.2033 13.4451 13.5747 13.4451 14.7951C13.4451 15.7502 14.0818 15.9625 14.4532 15.9625C15.1961 15.9625 15.5144 15.4849 15.5675 15.4849L15.5144 15.9094H16.4695L16.894 12.9911C16.894 11.7176 15.8328 11.6646 15.4614 11.6646ZM15.6736 14.0523C15.6736 14.2115 15.5675 15.0604 14.9308 15.0604C14.6124 15.0604 14.5063 14.7951 14.5063 14.636C14.5063 14.3707 14.6655 13.9992 15.4614 13.9992C15.6206 14.0523 15.6736 14.0523 15.6736 14.0523Z" fill="white"/>
<path d="M17.9017 15.9632C18.167 15.9632 19.4935 16.0162 19.4935 14.5836C19.4935 13.2571 18.22 13.5224 18.22 12.9918C18.22 12.7265 18.4323 12.6203 18.8037 12.6203C18.9629 12.6203 19.5466 12.6734 19.5466 12.6734L19.7057 11.7183C19.7057 11.7183 19.3343 11.6122 18.6976 11.6122C17.9017 11.6122 17.1058 11.9305 17.1058 12.9918C17.1058 14.2122 18.4323 14.106 18.4323 14.5836C18.4323 14.902 18.0609 14.955 17.7956 14.955C17.318 14.955 16.8405 14.7958 16.8405 14.7958L16.6813 15.7509C16.7343 15.8571 16.9996 15.9632 17.9017 15.9632Z" fill="white"/>
<path d="M39.0731 10.8141L38.8608 12.2467C38.8608 12.2467 38.4363 11.7161 37.8527 11.7161C36.8976 11.7161 36.0486 12.8835 36.0486 14.263C36.0486 15.112 36.4731 16.0141 37.3751 16.0141C38.0118 16.0141 38.3833 15.5896 38.3833 15.5896L38.3302 15.961H39.3914L40.1873 10.8671L39.0731 10.8141ZM38.5955 13.6263C38.5955 14.21 38.3302 14.9528 37.7465 14.9528C37.3751 14.9528 37.1629 14.6345 37.1629 14.1039C37.1629 13.2549 37.5343 12.7243 38.0118 12.7243C38.3833 12.7243 38.5955 12.9896 38.5955 13.6263Z" fill="white"/>
<path d="M9.67747 15.9079L10.3142 12.0875L10.4203 15.9079H11.1632L12.5428 12.0875L11.9591 15.9079H13.0734L13.9223 10.8141H12.1713L11.1101 13.9447L11.0571 10.8141H9.51829L8.66931 15.9079H9.67747Z" fill="white"/>
<path d="M26.1263 15.9156C26.4447 14.1646 26.4978 12.732 27.2406 12.9973C27.3467 12.3075 27.5059 12.0422 27.612 11.7769C27.612 11.7769 27.559 11.7769 27.3998 11.7769C26.9222 11.7769 26.5508 12.4136 26.5508 12.4136L26.6569 11.8299H25.6488L24.959 15.9687H26.1263V15.9156Z" fill="white"/>
<path d="M32.706 11.6646C31.9632 11.6646 31.4326 11.8768 31.4326 11.8768L31.2734 12.7788C31.2734 12.7788 31.7509 12.5666 32.4407 12.5666C32.8121 12.5666 33.1305 12.6196 33.1305 12.938C33.1305 13.1503 33.0774 13.2033 33.0774 13.2033C33.0774 13.2033 32.7591 13.2033 32.5999 13.2033C31.6979 13.2033 30.6897 13.5747 30.6897 14.7951C30.6897 15.7502 31.3264 15.9625 31.6979 15.9625C32.4407 15.9625 32.7591 15.4849 32.8121 15.4849L32.7591 15.9094H33.7142L34.1387 12.9911C34.1917 11.7176 33.0774 11.6646 32.706 11.6646ZM32.9713 14.0523C32.9713 14.2115 32.8652 15.0604 32.2285 15.0604C31.9101 15.0604 31.804 14.7951 31.804 14.636C31.804 14.3707 31.9632 13.9992 32.7591 13.9992C32.9183 14.0523 32.9183 14.0523 32.9713 14.0523Z" fill="white"/>
<path d="M35.0408 15.9156C35.3591 14.1646 35.4122 12.732 36.155 12.9973C36.2612 12.3075 36.4203 12.0422 36.5265 11.7769C36.5265 11.7769 36.4734 11.7769 36.3142 11.7769C35.8367 11.7769 35.4652 12.4136 35.4652 12.4136L35.5714 11.8299H34.5632L33.8734 15.9687H35.0408V15.9156Z" fill="white"/>
<path d="M19.6527 15.1207C19.6527 15.7575 20.0241 16.0228 20.5017 16.0228C20.8731 16.0228 21.1915 15.9166 21.2976 15.8636L21.4568 14.9615C21.4037 14.9615 21.2976 15.0146 21.1915 15.0146C20.82 15.0146 20.767 14.8024 20.82 14.6962L21.1384 12.8391H21.7221L21.8813 11.8309H21.3507L21.4568 11.1942" fill="#DCE5E5"/>
<path d="M22.1997 14.1633C22.1997 15.649 22.6773 16.0204 23.5262 16.0204C24.3221 16.0204 24.6405 15.8612 24.6405 15.8612L24.8528 14.853C24.8528 14.853 24.2691 15.1184 23.7385 15.1184C22.5711 15.1184 22.7834 14.2694 22.7834 14.2694H24.9589C24.9589 14.2694 25.1181 13.5796 25.1181 13.3143C25.1181 12.6245 24.7466 11.7755 23.5793 11.7755C22.465 11.6694 22.1997 12.8367 22.1997 14.1633ZM23.5262 12.6245C24.1099 12.6245 24.216 13.3143 24.216 13.3673H22.8364C22.8364 13.3143 22.9426 12.6245 23.5262 12.6245Z" fill="#DCE5E5"/>
<path d="M30.2646 15.8597L30.4768 14.6923C30.4768 14.6923 29.9462 14.9576 29.5748 14.9576C28.8319 14.9576 28.5136 14.374 28.5136 13.7372C28.5136 12.4638 29.1503 11.774 29.8931 11.774C30.4237 11.774 30.8482 12.0924 30.8482 12.0924L31.0074 10.9781C31.0074 10.9781 30.3707 10.7128 29.787 10.7128C28.5666 10.7128 27.8768 11.774 27.8768 13.7903C27.8768 15.1168 27.983 16.0189 29.2564 16.0189C29.6809 16.0189 30.2646 15.8597 30.2646 15.8597Z" fill="#DCE5E5"/>
<path d="M14.0287 12.8381C14.0287 12.8381 14.5063 12.6258 15.1961 12.6258C15.5675 12.6258 15.8859 12.6789 15.8859 12.9973C15.8859 13.2095 15.8328 13.2626 15.8328 13.2626C15.8328 13.2626 15.5144 13.2626 15.3553 13.2626C14.4532 13.2626 13.4451 13.634 13.4451 14.8544C13.4451 15.8095 14.0818 16.0217 14.4532 16.0217C15.1961 16.0217 15.5144 15.5442 15.5675 15.5442L15.5144 15.9687H16.4695L16.894 13.0503C16.894 11.8299 15.8328 11.7769 15.4083 11.7769L14.0287 12.8381ZM16.2042 14.0585C16.2042 14.2177 15.5675 15.0666 14.9308 15.0666C14.6124 15.0666 14.5063 14.8013 14.5063 14.6421C14.5063 14.3768 14.6655 14.0054 15.4614 14.0054C15.6206 14.0585 16.2042 14.0585 16.2042 14.0585Z" fill="#DCE5E5"/>
<path d="M16.7349 15.8571C16.7349 15.8571 17.0532 15.9632 17.9553 15.9632C18.2206 15.9632 19.5471 16.0162 19.5471 14.5836C19.5471 13.2571 18.2736 13.5224 18.2736 12.9918C18.2736 12.7265 18.4859 12.6203 18.8573 12.6203C19.0165 12.6203 19.6002 12.6734 19.6002 12.6734L19.7593 11.7183C19.7593 11.7183 19.3879 11.6122 18.7512 11.6122C17.9553 11.6122 17.69 11.9305 17.69 12.9918C17.69 14.2122 18.4859 14.106 18.4859 14.5836C18.4859 14.902 18.1144 14.955 17.8491 14.955" fill="#DCE5E5"/>
<path d="M38.8613 12.2554C38.8613 12.2554 38.4368 11.7248 37.8531 11.7248C36.898 11.7248 36.5797 12.8922 36.5797 14.2718C36.5797 15.1207 36.4735 16.0228 37.3756 16.0228C38.0123 16.0228 38.3837 15.5983 38.3837 15.5983L38.3307 15.9697H39.3919L40.1878 10.8759L38.8613 12.2554ZM38.8082 13.635C38.8082 14.2187 38.3307 14.9615 37.747 14.9615C37.3756 14.9615 37.1633 14.6432 37.1633 14.1126C37.1633 13.2636 37.5348 12.733 38.0123 12.733C38.3837 12.733 38.8082 12.9983 38.8082 13.635Z" fill="#DCE5E5"/>
<path d="M9.67747 15.9079L10.3142 12.0875L10.4203 15.9079H11.1632L12.5428 12.0875L11.9591 15.9079H13.0734L13.9223 10.8141H12.5958L11.1101 13.9447L11.0571 10.8141H10.4734L8.66931 15.9079H9.67747Z" fill="#DCE5E5"/>
<path d="M25.0122 15.9156H26.1265C26.4449 14.1646 26.4979 12.732 27.2408 12.9973C27.3469 12.3075 27.5061 12.0422 27.6122 11.7769C27.6122 11.7769 27.5591 11.7769 27.3999 11.7769C26.9224 11.7769 26.551 12.4136 26.551 12.4136L26.6571 11.8299" fill="#DCE5E5"/>
<path d="M31.2734 12.8381C31.2734 12.8381 31.7509 12.6258 32.4407 12.6258C32.8121 12.6258 33.1305 12.6789 33.1305 12.9973C33.1305 13.2095 33.0774 13.2626 33.0774 13.2626C33.0774 13.2626 32.7591 13.2626 32.5999 13.2626C31.6979 13.2626 30.6897 13.634 30.6897 14.8544C30.6897 15.8095 31.3264 16.0217 31.6979 16.0217C32.4407 16.0217 32.7591 15.5442 32.8121 15.5442L32.7591 15.9687H33.7142L34.1387 13.0503C34.1387 11.8299 33.0774 11.7769 32.653 11.7769L31.2734 12.8381ZM33.4489 14.0585C33.4489 14.2177 32.8121 15.0666 32.1754 15.0666C31.857 15.0666 31.7509 14.8013 31.7509 14.6421C31.7509 14.3768 31.9101 14.0054 32.706 14.0054C32.9183 14.0585 33.4489 14.0585 33.4489 14.0585Z" fill="#DCE5E5"/>
<path d="M33.926 15.9156H35.0403C35.3587 14.1646 35.4117 12.732 36.1546 12.9973C36.2607 12.3075 36.4199 12.0422 36.526 11.7769C36.526 11.7769 36.4729 11.7769 36.3138 11.7769C35.8362 11.7769 35.4648 12.4136 35.4648 12.4136L35.5709 11.8299" fill="#DCE5E5"/>
</svg>
