<svg width="48" height="28" viewBox="0 0 48 28" fill="none" xmlns="http://www.w3.org/2000/svg">
<path d="M0 4C0 1.79086 1.79086 0 4 0H44C46.2091 0 48 1.79086 48 4V24C48 26.2091 46.2091 28 44 28H4C1.79086 28 0 26.2091 0 24V4Z" fill="#0270D1"/>
<path d="M6.88147 10.5481H8.28826L7.58486 8.80884L6.88147 10.5481Z" fill="white"/>
<path d="M24.3388 9.06358C24.2109 9.00146 24.0191 9.00146 23.8272 9.00146H22.5483V9.99535H23.8272C24.0191 9.99535 24.2109 9.99535 24.3388 9.93324C24.4667 9.87112 24.5306 9.68476 24.5306 9.49841C24.5946 9.24994 24.4667 9.1257 24.3388 9.06358Z" fill="#228FE0"/>
<path d="M38.0228 7.19678V7.94219L37.6391 7.19678H34.6337V7.94219L34.25 7.19678H30.1576C29.4542 7.19678 28.8787 7.32101 28.3671 7.56949V7.19678H25.4896V7.56949C25.1699 7.32101 24.7862 7.19678 24.2746 7.19678H13.9795L13.2761 8.74973L12.5727 7.19678H9.31152V7.94219L8.92785 7.19678H6.17822L4.89932 10.1163L3.42859 13.3465H4.89932H6.68978L7.07345 12.3526H7.96868L8.35235 13.3465H12.0612V12.601L12.3809 13.3465H14.2353L14.555 12.601V13.3465H23.4434V11.7314H23.5712C23.6991 11.7314 23.6991 11.7314 23.6991 11.9177V13.2843H28.3032V12.9116C28.6868 13.098 29.2623 13.2843 30.0297 13.2843H31.948L32.3317 12.2904H33.2269L33.6106 13.2843H37.3194V12.3526L37.8949 13.2843H40.9003V7.19678H38.0228ZM16.4094 12.4147H15.3223V8.9982L13.7877 12.4147H12.8285L11.2938 8.9982V12.4147H9.11969L8.67207 11.4829H6.49795L6.11428 12.4768H4.89932L6.81767 8.06643H8.41629L10.2068 12.2283V8.06643H11.9333L13.3401 11.0481L14.619 8.06643H16.4094V12.4147ZM20.7577 8.9982H18.2638V9.80573H20.6937V10.6754H18.2638V11.545H20.7577V12.4768H17.1768V8.06643H20.7577V8.9982ZM25.5535 10.7996C25.6814 11.0481 25.7454 11.2344 25.7454 11.6072V12.4768H24.6583V11.9177C24.6583 11.6693 24.6583 11.2966 24.4665 11.0481C24.2746 10.8617 24.0828 10.8617 23.6991 10.8617H22.5481V12.4768H21.4611V8.06643H23.891C24.4665 8.06643 24.8501 8.06643 25.1699 8.25278C25.4896 8.43914 25.6814 8.74973 25.6814 9.24667C25.6814 9.92997 25.2338 10.3027 24.9141 10.4269C25.2338 10.489 25.4256 10.6754 25.5535 10.7996ZM27.4719 12.4147H26.3848V8.00431H27.4719V12.4147ZM40.069 12.4147H38.5344L36.4881 9.12243V12.4147H34.314L33.9303 11.4829H31.6923L31.3086 12.4768H30.0936C29.5821 12.4768 28.9426 12.3526 28.5589 11.9799C28.1753 11.6072 27.9834 11.1102 27.9834 10.3027C27.9834 9.68149 28.1113 9.06032 28.5589 8.56337C28.8787 8.19066 29.4542 8.06643 30.1576 8.06643H31.1807V8.9982H30.1576C29.7739 8.9982 29.5821 9.06032 29.3263 9.24667C29.1345 9.43302 29.0066 9.80573 29.0066 10.2406C29.0066 10.7375 29.0705 11.0481 29.3263 11.2966C29.5181 11.4829 29.7739 11.545 30.0936 11.545H30.5412L32.012 8.12855H33.6106L35.4011 12.2904V8.12855H36.9997L38.8541 11.1723V8.12855H39.9411V12.4147H40.069Z" fill="white"/>
<path d="M32.0763 10.556H33.547L32.8436 8.81665L32.0763 10.556Z" fill="#228FE0"/>
<path d="M21.2058 19.4998V15.9591L19.5432 17.6984L21.2058 19.4998Z" fill="#228FE0"/>
<path d="M14.3635 16.3892V17.1967H16.7295V18.0663H14.3635V18.9981H16.9853L18.2002 17.6936L17.0492 16.3892H14.3635Z" fill="white"/>
<path d="M23.6354 16.3892H22.2926V17.5073H23.6994C24.0831 17.5073 24.3388 17.3209 24.3388 16.9482C24.2749 16.5755 24.0191 16.3892 23.6354 16.3892Z" fill="#228FE0"/>
<path d="M43.3946 17.4452V14.6499H42.6273H40.7089C40.1334 14.6499 39.6858 14.7741 39.3661 15.0226V14.6499H36.4246C35.977 14.6499 35.4015 14.7741 35.1457 15.0226V14.6499H29.9662V15.0226C29.5825 14.712 28.8791 14.6499 28.5594 14.6499H25.1064V15.0226C24.7866 14.712 24.0193 14.6499 23.6356 14.6499H19.7989L18.9037 15.5817L18.0724 14.6499H12.3174V20.7375H17.9445L18.8398 19.8057L19.6711 20.7375H23.1241V19.3087H23.5717C24.0193 19.3087 24.5948 19.3087 25.0424 19.1224V20.7996H27.9199V19.1845H28.0478C28.2397 19.1845 28.2397 19.1845 28.2397 19.3709V20.7996H36.9362C37.5117 20.7996 38.0872 20.6753 38.4069 20.4269V20.7996H41.1566C41.7321 20.7996 42.3076 20.7375 42.6912 20.489C43.3307 20.1163 43.7144 19.433 43.7144 18.6255C43.7144 18.1906 43.5865 17.7558 43.3946 17.4452ZM23.5717 18.4391H22.2928V19.9299H20.2466L18.9677 18.5012L17.6248 19.9299H13.4044V15.5196H17.6888L18.9677 16.9483L20.3105 15.5196H23.6996C24.5309 15.5196 25.49 15.768 25.49 16.9483C25.4261 18.1906 24.5309 18.4391 23.5717 18.4391ZM29.9662 18.1906C30.0941 18.377 30.158 18.6255 30.158 18.9982V19.8678H29.071V19.3087C29.071 19.0603 29.071 18.6255 28.8791 18.4391C28.7512 18.2527 28.4955 18.2527 28.1118 18.2527H26.9608V19.8678H25.8737V15.4574H28.3036C28.8152 15.4574 29.2628 15.4574 29.5825 15.6438C29.9022 15.8301 30.158 16.1407 30.158 16.6377C30.158 17.321 29.7104 17.6937 29.3907 17.8179C29.7104 17.9422 29.9022 18.0664 29.9662 18.1906ZM34.3784 16.3892H31.8845V17.1967H34.3144V18.0664H31.8845V18.936H34.3784V19.8678H30.7975V15.4574H34.3784V16.3892ZM37.0641 19.8678H35.0178V18.936H37.0641C37.2559 18.936 37.3838 18.936 37.5117 18.8118C37.5756 18.7497 37.6396 18.6255 37.6396 18.5012C37.6396 18.377 37.5756 18.2527 37.5117 18.1906C37.4477 18.1285 37.3199 18.0664 37.128 18.0664C36.1049 18.0043 34.89 18.0664 34.89 16.6998C34.89 16.0786 35.2736 15.3953 36.4246 15.3953H38.5348V16.4513H36.5525C36.3607 16.4513 36.2328 16.4513 36.1049 16.5134C35.977 16.5756 35.977 16.6998 35.977 16.824C35.977 17.0104 36.1049 17.0725 36.2328 17.1346C36.3607 17.1967 36.4886 17.1967 36.6165 17.1967H37.192C37.7675 17.1967 38.1511 17.321 38.4069 17.5694C38.5988 17.7558 38.7266 18.0664 38.7266 18.5012C38.7266 19.433 38.1511 19.8678 37.0641 19.8678ZM42.5633 19.433C42.3076 19.6815 41.8599 19.8678 41.2205 19.8678H39.1743V18.936H41.2205C41.4123 18.936 41.5402 18.936 41.6681 18.8118C41.7321 18.7497 41.796 18.6255 41.796 18.5012C41.796 18.377 41.7321 18.2527 41.6681 18.1906C41.6042 18.1285 41.4763 18.0664 41.2844 18.0664C40.2613 18.0043 39.0464 18.0664 39.0464 16.6998C39.0464 16.0786 39.43 15.3953 40.581 15.3953H42.6912V16.4513H40.7729C40.581 16.4513 40.4532 16.4513 40.3253 16.5134C40.1974 16.5756 40.1974 16.6998 40.1974 16.824C40.1974 17.0104 40.2613 17.0725 40.4532 17.1346C40.581 17.1967 40.7089 17.1967 40.8368 17.1967H41.4123C41.9878 17.1967 42.3715 17.321 42.6273 17.5694C42.6912 17.5694 42.6912 17.6316 42.6912 17.6316C42.8831 17.88 42.947 18.1906 42.947 18.5012C42.947 18.8739 42.8191 19.1845 42.5633 19.433Z" fill="white"/>
<path d="M28.8147 16.5149C28.6869 16.4528 28.495 16.4528 28.3032 16.4528H27.0243V17.4466H28.3032C28.495 17.4466 28.6869 17.4466 28.8147 17.3845C28.9426 17.3224 29.0066 17.1361 29.0066 16.9497C29.0705 16.7012 28.9426 16.577 28.8147 16.5149Z" fill="#228FE0"/>
<path d="M24.3388 9.06358C24.2109 9.00146 24.0191 9.00146 23.8272 9.00146H22.5483V9.99535H23.8272C24.0191 9.99535 24.2109 9.99535 24.3388 9.93324C24.4667 9.87112 24.5306 9.68476 24.5306 9.49841C24.5946 9.24994 24.4667 9.1257 24.3388 9.06358Z" fill="white"/>
<path d="M32.0758 10.5481H33.5465L32.8431 8.80884L32.0758 10.5481Z" fill="white"/>
<path d="M21.2052 19.4991V15.9584L19.5426 17.6977L21.2052 19.4991Z" fill="white"/>
<path d="M23.6354 16.3892H22.2926V17.5073H23.6994C24.0831 17.5073 24.3388 17.3209 24.3388 16.9482C24.2749 16.5755 24.0191 16.3892 23.6354 16.3892Z" fill="white"/>
<path d="M28.8147 16.5149C28.6869 16.4528 28.495 16.4528 28.3032 16.4528H27.0243V17.4466H28.3032C28.495 17.4466 28.6869 17.4466 28.8147 17.3845C28.9426 17.3224 29.0066 17.1361 29.0066 16.9497C29.0705 16.7012 28.9426 16.577 28.8147 16.5149Z" fill="white"/>
<path d="M23.188 19.7436L22.2928 18.8118V19.8678H20.1826L18.9037 18.4391L17.4969 19.8678H13.2766V15.5196H17.5609L18.9037 16.9483L19.5432 16.2029L17.9445 14.6499H12.3174V20.7375H17.9445L18.9037 19.8057L19.735 20.7375H23.188V19.7436Z" fill="white"/>
<path d="M16.5373 13.2843L15.706 12.4147H15.3223V12.042L14.3632 11.1102L13.7237 12.4147H12.8285L11.2938 8.9982V12.4147H9.11969L8.67207 11.4829H6.49795L6.05033 12.4147H4.89932L6.81767 8.06643H8.41629L10.2068 12.2283V8.06643H11.1659L10.2707 7.19678H9.31152V7.94219L8.9918 7.19678H6.17822L4.89932 10.1163L3.42859 13.2843H4.89932H6.75373L7.1374 12.3526H8.03262L8.48024 13.2843H12.0612V12.5389L12.3809 13.2843H14.2353L14.555 12.5389V13.2843H16.5373Z" fill="white"/>
<path d="M13.5962 10.428L12.5731 9.43408L13.3405 11.0491L13.5962 10.428Z" fill="#2FABF7"/>
<path d="M42.6904 20.4294C43.2659 20.0567 43.6495 19.4355 43.7135 18.7522L42.8183 17.8826C42.8822 18.0689 42.9462 18.2553 42.9462 18.5037C42.9462 18.8764 42.8183 19.187 42.5625 19.4355C42.3067 19.684 41.8591 19.8703 41.2196 19.8703H39.1734V18.9386H41.2196C41.4115 18.9386 41.5394 18.9386 41.6673 18.8143C41.7312 18.7522 41.7951 18.628 41.7951 18.5037C41.7951 18.3795 41.7312 18.2553 41.6673 18.1931C41.6033 18.131 41.4754 18.0689 41.2836 18.0689C40.2605 18.0068 39.0455 18.0689 39.0455 16.7023C39.0455 16.0811 39.4292 15.5221 40.3884 15.3978L39.685 14.7145C39.5571 14.7767 39.4931 14.8388 39.4292 14.8388V14.4661H36.4877C36.0401 14.4661 35.4646 14.5903 35.2088 14.8388V14.4661H29.9653V14.8388C29.5817 14.5282 28.8783 14.4661 28.5585 14.4661H25.1055V14.8388C24.7858 14.5282 24.0184 14.4661 23.6348 14.4661H19.7981L18.9028 15.3978L18.0716 14.4661H17.3682L19.2865 16.3296L20.2457 15.3357H23.6348C24.4661 15.3357 25.4252 15.5842 25.4252 16.7644C25.4252 18.0068 24.53 18.2553 23.5708 18.2553H22.2919V19.187L23.2511 20.1188V19.187H23.5708C24.0184 19.187 24.5939 19.187 25.0416 19.0007V20.6779H27.9191V19.0628H28.047C28.2388 19.0628 28.2388 19.0628 28.2388 19.2491V20.6779H36.9353C37.5108 20.6779 38.0863 20.5536 38.4061 20.3052V20.6779H41.1557C41.6673 20.74 42.2428 20.6779 42.6904 20.4294ZM29.9653 18.1931C30.0932 18.3795 30.1572 18.628 30.1572 19.0007V19.8703H29.0701V19.3113C29.0701 19.0628 29.0701 18.628 28.8783 18.4416C28.7504 18.2553 28.4946 18.2553 28.1109 18.2553H26.9599V19.8703H25.8728V15.46H28.3028C28.8143 15.46 29.2619 15.46 29.5817 15.6463C29.9014 15.8327 30.1572 16.1432 30.1572 16.6402C30.1572 17.3235 29.7095 17.6962 29.3898 17.8204C29.7095 17.9447 29.9014 18.0689 29.9653 18.1931ZM34.3775 16.3917H31.8837V17.1993H34.3136V18.0689H31.8837V18.9386H34.3775V19.8703H30.7966V15.46H34.3775V16.3917ZM37.0632 19.8703H35.017V18.9386H37.0632C37.2551 18.9386 37.3829 18.9386 37.5108 18.8143C37.5748 18.7522 37.6387 18.628 37.6387 18.5037C37.6387 18.3795 37.5748 18.2553 37.5108 18.1931C37.4469 18.131 37.319 18.0689 37.1272 18.0689C36.104 18.0068 34.8891 18.0689 34.8891 16.7023C34.8891 16.0811 35.2728 15.3978 36.4238 15.3978H38.534V16.4538H36.5517C36.3598 16.4538 36.2319 16.4538 36.104 16.516C35.9762 16.5781 35.9762 16.7023 35.9762 16.8265C35.9762 17.0129 36.104 17.075 36.2319 17.1371C36.3598 17.1993 36.4877 17.1993 36.6156 17.1993H37.1911C37.7666 17.1993 38.1503 17.3235 38.4061 17.572C38.5979 17.7583 38.7258 18.0689 38.7258 18.5037C38.7258 19.4355 38.1503 19.8703 37.0632 19.8703Z" fill="white"/>
<path d="M40.1327 16.8268C40.1327 17.0132 40.1966 17.0753 40.3885 17.1374C40.5164 17.1995 40.6443 17.1995 40.7721 17.1995H41.3476C41.7313 17.1995 41.9871 17.2616 42.2429 17.3859L41.2837 16.4541H40.7082C40.5164 16.4541 40.3885 16.4541 40.2606 16.5162C40.1966 16.5783 40.1327 16.7026 40.1327 16.8268Z" fill="white"/>
<path d="M37.8945 13.1011L38.0224 13.2874H38.0864L37.8945 13.1011Z" fill="#228FE0"/>
<path d="M34.3779 9.68433L35.465 12.2312V10.7403L34.3779 9.68433Z" fill="white"/>
<path d="M23.4437 11.7329H23.5716C23.6995 11.7329 23.6995 11.7329 23.6995 11.9192V13.2858H28.3036V12.9131C28.6872 13.0995 29.2627 13.2858 30.0301 13.2858H31.9484L32.3321 12.2919H33.2273L33.611 13.2858H37.3198V12.6646L36.4246 11.795V12.4783H34.2504L33.9307 11.4844H31.6926L31.309 12.4783H30.094C29.5825 12.4783 28.943 12.354 28.5593 11.9813C28.1757 11.6086 27.9838 11.1117 27.9838 10.3042C27.9838 9.68298 28.1117 9.0618 28.5593 8.56485C28.8791 8.19215 29.4546 8.06791 30.158 8.06791H31.1811V8.99968H30.158C29.7743 8.99968 29.5825 9.0618 29.3267 9.24815C29.1348 9.4345 29.007 9.80721 29.007 10.242C29.007 10.739 29.0709 11.0496 29.3267 11.298C29.5185 11.4844 29.7743 11.5465 30.094 11.5465H30.5416L32.0124 8.13003H32.6518L31.7566 7.26038H30.094C29.3906 7.26038 28.8151 7.38461 28.3036 7.63308V7.26038H25.49V7.63308C25.1703 7.38461 24.7866 7.26038 24.275 7.26038H13.9799L13.2765 8.81332L12.5731 7.26038H9.75952L10.6548 8.13003H11.9337L13.0207 10.4284L13.4044 10.8011L14.5554 8.06791H16.3459V12.4783H15.2588V9.0618L14.1717 11.5465L16.0261 13.3479H23.3798L23.4437 11.7329ZM26.3852 8.06791H27.4723V12.4783H26.3852V8.06791ZM20.7581 8.99968H18.2642V9.80721H20.6941V10.6769H18.2642V11.5465H20.7581V12.4783H17.1771V8.06791H20.7581V8.99968ZM22.5485 12.4162H21.4614V8.00579H23.8914C24.4669 8.00579 24.8505 8.00579 25.1703 8.19215C25.49 8.3785 25.6818 8.68909 25.6818 9.18603C25.6818 9.86933 25.2342 10.242 24.9145 10.3663C25.1703 10.4284 25.3621 10.6147 25.426 10.739C25.5539 10.9875 25.6179 11.1738 25.6179 11.5465V12.4162H24.5308V11.8571C24.5308 11.6086 24.5308 11.2359 24.339 10.9875C24.275 10.8632 24.0832 10.8632 23.6995 10.8632H22.5485V12.4162Z" fill="white"/>
</svg>
