<svg width="48" height="28" viewBox="0 0 48 28" fill="none" xmlns="http://www.w3.org/2000/svg">
<path d="M0 4C0 1.79086 1.79086 0 4 0H44C46.2091 0 48 1.79086 48 4V24C48 26.2091 46.2091 28 44 28H4C1.79086 28 0 26.2091 0 24V4Z" fill="#25428E"/>
<path d="M19.8577 8.42859L18.0509 19.6719H20.9388L22.7444 8.42859H19.8577ZM28.5686 13.0085C27.5594 12.5101 26.9407 12.1738 26.9407 11.6641C26.9531 11.2006 27.4639 10.7258 28.6046 10.7258C29.5429 10.7023 30.2325 10.9227 30.7556 11.1421L31.0177 11.2591L31.4103 8.90672C30.8399 8.68622 29.9355 8.44327 28.8183 8.44327C25.9665 8.44327 23.9583 9.92602 23.9459 12.0467C23.9223 13.6116 25.3836 14.48 26.4772 15.001C27.5943 15.5354 27.9746 15.8818 27.9746 16.3566C27.9623 17.0856 27.0713 17.422 26.2399 17.422C25.0879 17.422 24.4691 17.2487 23.5298 16.8425L23.1495 16.6693L22.7457 19.114C23.4241 19.4155 24.6716 19.6809 25.9666 19.6945C28.9974 19.6945 30.9695 18.2342 30.9943 15.9741C31.0041 14.7343 30.2336 13.7847 28.5686 13.0085ZM38.814 8.46338H36.5797C35.8912 8.46338 35.368 8.66142 35.0699 9.36794L30.7802 19.6719H33.811L34.6457 17.4411H38.0365L38.4696 19.6809H41.1427L38.814 8.46338ZM35.4862 15.1897C35.5447 15.1954 36.6495 11.5481 36.6495 11.5481L37.5293 15.1897C37.5293 15.1897 36.0566 15.1897 35.4862 15.1897ZM15.6378 8.42859L12.8084 16.0674L12.5002 14.561C11.977 12.8228 10.3368 10.934 8.50635 9.99574L11.0972 19.6607H14.1528L18.6934 8.42982H15.6378V8.42859Z" fill="white"/>
<path d="M11.5486 9.87923C11.3281 9.02193 10.6249 8.44374 9.66992 8.4314H5.18897L5.14282 8.63943C8.63828 9.50117 11.5722 12.1528 12.524 14.6469L11.5486 9.87923Z" fill="#EFC75E"/>
</svg>
