<svg width="24" height="22" viewBox="0 0 24 22" fill="none" xmlns="http://www.w3.org/2000/svg">
<path d="M18.6328 9.31254L10.2695 17.6073C10.2303 17.6466 10.202 17.6962 10.1885 17.7495L9.3254 21.2139C9.29958 21.3182 9.33022 21.4291 9.40633 21.5052C9.46392 21.5628 9.54238 21.5947 9.62264 21.5947C9.64723 21.5947 9.67237 21.5916 9.69684 21.5854L13.1612 20.7222C13.2152 20.7087 13.2643 20.6806 13.3034 20.6414L21.6674 12.3472L18.6328 9.31254Z" fill="rgba(0, 0, 0, 0.6)"/>
<path d="M23.5512 8.2269L22.6844 7.36008C22.1051 6.78074 21.0953 6.7813 20.5167 7.36008L19.4549 8.42188L22.4894 11.4564L23.5512 10.3946C23.8406 10.1054 24 9.72032 24 9.31082C24 8.90132 23.8406 8.51629 23.5512 8.2269Z" fill="rgba(0, 0, 0, 0.6)"/>
<path fill-rule="evenodd" clip-rule="evenodd" d="M2 0.404297C0.89543 0.404297 0 1.29973 0 2.4043V15.1738C0 16.2784 0.895432 17.1738 2 17.1738H8.38476L16.7695 8.78905V2.4043C16.7695 1.29973 15.8741 0.404297 14.7695 0.404297H2ZM9.8874 9.8409H11.9911C12.572 9.8409 13.043 9.36997 13.043 8.78905C13.043 8.20813 12.572 7.7372 11.9911 7.7372H9.8874C9.63843 7.7372 9.43661 7.53537 9.43661 7.28641V5.18271C9.43661 4.60178 8.96568 4.13086 8.38476 4.13086C7.80384 4.13086 7.3329 4.60178 7.3329 5.18271V7.28641C7.3329 7.53537 7.13108 7.7372 6.88211 7.7372H4.77841C4.19749 7.7372 3.72656 8.20813 3.72656 8.78905C3.72656 9.36997 4.19749 9.8409 4.77841 9.8409H6.88211C7.13108 9.8409 7.3329 10.0427 7.3329 10.2917V12.3954C7.3329 12.9763 7.80383 13.4473 8.38476 13.4473C8.96568 13.4473 9.43661 12.9763 9.43661 12.3954V10.2917C9.43661 10.0427 9.63843 9.8409 9.8874 9.8409Z" fill="rgba(0, 0, 0, 0.6)"/>
</svg>
