<svg width="108" height="108" viewBox="0 0 108 108" fill="none" xmlns="http://www.w3.org/2000/svg">
<rect width="108" height="108" rx="54" fill="#F4F5F9"/>
<path fill-rule="evenodd" clip-rule="evenodd" d="M83.8586 43.8274C84.3874 43.7899 84.9094 43.9639 85.31 44.3111L89.83 48.2511C90.2303 48.5987 90.4761 49.0909 90.5136 49.6197C90.5512 50.1485 90.3772 50.6705 90.03 51.0711L77.55 65.4111V78.8811C77.55 79.4115 77.3393 79.9202 76.9642 80.2953C76.5891 80.6704 76.0804 80.8811 75.55 80.8811H34C33.4696 80.8811 32.9609 80.6704 32.5858 80.2953C32.2107 79.9202 32 79.4115 32 78.8811V26.0111C32 25.4807 32.2107 24.9719 32.5858 24.5969C32.9609 24.2218 33.4696 24.0111 34 24.0111H63.64C63.7696 23.9963 63.9004 23.9963 64.03 24.0111C64.1405 24.0306 64.2481 24.0642 64.35 24.1111C64.4355 24.1389 64.5164 24.1793 64.59 24.2311C64.6473 24.2534 64.7012 24.2837 64.75 24.3211C64.8435 24.3859 64.9306 24.4596 65.01 24.5411L77.01 36.4911L77.08 36.5711C77.1442 36.6321 77.1982 36.703 77.24 36.7811C77.2774 36.8299 77.3077 36.8838 77.33 36.9411C77.3855 37.0123 77.4263 37.0939 77.45 37.1811C77.4969 37.283 77.5305 37.3906 77.55 37.5011C77.5648 37.6307 77.5648 37.7615 77.55 37.8911V50.1811L82.49 44.5111C82.8376 44.1108 83.3298 43.8649 83.8586 43.8274ZM66.72 62.6111L74.55 54.7711V39.9411H63.6C63.2011 39.942 62.8111 39.8236 62.48 39.6011C62.3764 39.5261 62.2794 39.4425 62.19 39.3511C61.8144 38.9777 61.6022 38.4707 61.6 37.9411V26.9411H35V77.8911H74.52V69.7111L67.31 72.2611C67.0689 72.3601 66.8107 72.4111 66.55 72.4111C66.2445 72.4116 65.9429 72.3422 65.6684 72.208C65.3939 72.0739 65.1537 71.8786 64.9664 71.6372C64.7791 71.3958 64.6496 71.1148 64.5878 70.8155C64.526 70.5163 64.5336 70.2069 64.61 69.9111L66.26 63.4111C66.3489 63.1122 66.5064 62.8383 66.72 62.6111ZM41.8458 44.9717C41.4707 44.6904 41.26 44.3089 41.26 43.9111C41.26 43.5132 41.4707 43.1317 41.8458 42.8504C42.2209 42.5691 42.7296 42.4111 43.26 42.4111H64.26C64.7904 42.4111 65.2992 42.5691 65.6742 42.8504C66.0493 43.1317 66.26 43.5132 66.26 43.9111C66.26 44.3089 66.0493 44.6904 65.6742 44.9717C65.2992 45.253 64.7904 45.4111 64.26 45.4111H43.26C42.7296 45.4111 42.2209 45.253 41.8458 44.9717ZM43.26 49.9411H64.26C64.7904 49.9411 65.2992 50.0991 65.6742 50.3804C66.0493 50.6617 66.26 51.0433 66.26 51.4411C66.26 51.8389 66.0493 52.2205 65.6742 52.5018C65.2992 52.7831 64.7904 52.9411 64.26 52.9411H43.26C42.7296 52.9411 42.2209 52.7831 41.8458 52.5018C41.4707 52.2205 41.26 51.8389 41.26 51.4411C41.26 51.0433 41.4707 50.6617 41.8458 50.3804C42.2209 50.0991 42.7296 49.9411 43.26 49.9411ZM64.26 57.4111H43.26C42.7296 57.4111 42.2209 57.5691 41.8458 57.8504C41.4707 58.1317 41.26 58.5132 41.26 58.9111C41.26 59.3089 41.4707 59.6904 41.8458 59.9717C42.2209 60.253 42.7296 60.4111 43.26 60.4111H64.26C64.7904 60.4111 65.2992 60.253 65.6742 59.9717C66.0493 59.6904 66.26 59.3089 66.26 58.9111C66.26 58.5132 66.0493 58.1317 65.6742 57.8504C65.2992 57.5691 64.7904 57.4111 64.26 57.4111Z" fill="rgba(0, 0, 0, 0.6)"/>
</svg>
