<svg width="17" height="25" viewBox="0 0 17 25" fill="none" xmlns="http://www.w3.org/2000/svg">
<path d="M16.18 12.8136C16.18 12.3336 15.8129 11.9665 15.3329 11.9665C14.8529 11.9665 14.4859 12.3336 14.4859 12.8136C14.4859 16.1171 11.8035 18.7994 8.50001 18.7994C5.19648 18.7994 2.51412 16.1171 2.51412 12.8136C2.51412 12.3336 2.14707 11.9665 1.66707 11.9665C1.18707 11.9665 0.820007 12.3336 0.820007 12.8136C0.820007 16.7383 3.75648 20.0418 7.65295 20.4653V22.7242H4.5753C4.0953 22.7242 3.72824 23.0912 3.72824 23.5712C3.72824 24.0512 4.0953 24.4183 4.5753 24.4183H12.4247C12.9047 24.4183 13.2718 24.0512 13.2718 23.5712C13.2718 23.0912 12.9047 22.7242 12.4247 22.7242H9.34707V20.4653C13.2435 20.0418 16.18 16.7383 16.18 12.8136Z" fill="rgba(0, 0, 0, 0.6)"/>
<path d="M8.49999 0.418213C5.90234 0.418213 3.7847 2.53586 3.7847 5.13351V12.7853C3.7847 15.4112 5.90234 17.5006 8.49999 17.5288C11.0976 17.5288 13.2153 15.4112 13.2153 12.8135V5.13351C13.2153 2.53586 11.0976 0.418213 8.49999 0.418213Z" fill="rgba(0, 0, 0, 0.6)"/>
</svg>
