<svg width="17" height="16" viewBox="0 0 17 16" fill="none" xmlns="http://www.w3.org/2000/svg">
<g clip-path="url(#clip0)">
<path d="M16.4024 14.9597L11.7545 10.3118C12.636 9.22343 13.1667 7.8398 13.1667 6.33336C13.1667 2.84116 10.3255 0 6.83333 0C3.34113 0 0.5 2.84116 0.5 6.33336C0.5 9.82556 3.34116 12.6667 6.83336 12.6667C8.3398 12.6667 9.72343 12.136 10.8118 11.2545L15.4597 15.9024C15.5899 16.0325 15.8009 16.0325 15.9311 15.9024L16.4024 15.4311C16.5325 15.3009 16.5325 15.0898 16.4024 14.9597ZM6.83336 11.3334C4.0762 11.3334 1.83335 9.09052 1.83335 6.33336C1.83335 3.5762 4.0762 1.33335 6.83336 1.33335C9.59052 1.33335 11.8334 3.5762 11.8334 6.33336C11.8334 9.09052 9.59052 11.3334 6.83336 11.3334Z" fill="rgba(0, 0, 0, 0.2)"/>
</g>
<defs>
<clipPath id="clip0">
<rect width="16" height="16" fill="white" transform="translate(0.5)"/>
</clipPath>
</defs>
</svg>
