<svg width="16" height="16" viewBox="0 0 16 16" fill="none" xmlns="http://www.w3.org/2000/svg">
<path fill-rule="evenodd" clip-rule="evenodd" d="M5.21167 7.01686C4.9046 7.12524 4.79301 6.9869 4.96133 6.70967L7.69435 2.20822C7.86316 1.93019 8.13734 1.931 8.30565 2.20822L11.0387 6.70967C11.2075 6.98771 11.0957 7.12535 10.7883 7.01686L8.18457 6.09789C8.08263 6.06191 7.91733 6.06193 7.81543 6.09789L5.21167 7.01686Z" fill="rgba(0, 0, 0, 0.2)"/>
<path d="M11.0387 9.29032C11.207 9.01309 11.0954 8.87475 10.7883 8.98313L8.18457 9.9021C8.08267 9.93806 7.91737 9.93808 7.81543 9.9021L5.21168 8.98313C4.90431 8.87465 4.79252 9.01228 4.96133 9.29032L7.69435 13.7918C7.86267 14.069 8.13685 14.0698 8.30566 13.7918L11.0387 9.29032Z" fill="black"/>
</svg>
