<svg width="16" height="16" viewBox="0 0 16 16" fill="none" xmlns="http://www.w3.org/2000/svg">
<path fill-rule="evenodd" clip-rule="evenodd" d="M10.7883 8.98314C11.0954 8.87476 11.207 9.0131 11.0387 9.29033L8.30566 13.7918C8.13685 14.0698 7.86267 14.069 7.69435 13.7918L4.96133 9.29033C4.79252 9.01229 4.90431 8.87465 5.21168 8.98314L7.81543 9.90211C7.91737 9.93809 8.08267 9.93808 8.18457 9.90211L10.7883 8.98314ZM5.21168 7.01686C4.90461 7.12524 4.79301 6.9869 4.96133 6.70967L7.69435 2.20822C7.86316 1.93019 8.13734 1.931 8.30566 2.20822L11.0387 6.70967C11.2075 6.98771 11.0957 7.12535 10.7883 7.01686L8.18457 6.09789C8.08264 6.06191 7.91733 6.06193 7.81543 6.09789L5.21168 7.01686Z" fill="rgba(0, 0, 0, 0.2)"/>
</svg>
