<svg width="23" height="22" viewBox="0 0 23 22" fill="none" xmlns="http://www.w3.org/2000/svg">
<path d="M10.8934 1.30068C11.0073 1.06992 11.2423 0.923828 11.4997 0.923828C11.757 0.923784 11.9921 1.06987 12.106 1.30063L14.7431 6.64326C14.9911 7.14562 15.4704 7.49391 16.0249 7.57443L21.9211 8.43155C22.1758 8.46859 22.3873 8.64695 22.4669 8.89173C22.5464 9.13646 22.4801 9.40516 22.2958 9.58481L18.0296 13.7439C17.6284 14.135 17.4454 14.6985 17.54 15.2506L18.5467 21.1221C18.5901 21.3758 18.4859 21.6321 18.2776 21.7833C18.0695 21.9346 17.7935 21.9545 17.5657 21.8347L12.2918 19.0627C11.7959 18.802 11.2035 18.802 10.7075 19.0627L5.43417 21.8347C5.20636 21.9544 4.93033 21.9344 4.72216 21.7832C4.51394 21.6319 4.40972 21.3755 4.45319 21.122L5.46028 15.2509C5.55504 14.6986 5.37195 14.135 4.97068 13.7438L0.704194 9.58486C0.519943 9.4052 0.453571 9.1365 0.53311 8.89177C0.612649 8.64704 0.824217 8.46868 1.0789 8.43159L6.97496 7.57452C7.52941 7.49391 8.00874 7.14567 8.25673 6.64322L10.8934 1.30068Z" fill="#F5CE3C"/>
</svg>
