<svg width="48" height="48" viewBox="0 0 48 48" fill="none" xmlns="http://www.w3.org/2000/svg">
<circle cx="24" cy="24" r="24" fill="white"/>
<path d="M24.0027 4C18.2573 4 13.5606 8.69664 13.5606 14.4421C13.5606 20.1876 18.2573 24.8842 24.0027 24.8842C29.7482 24.8842 34.4448 20.1876 34.4448 14.4421C34.4448 8.69664 29.7482 4 24.0027 4Z" fill="#BFBFBF"/>
<path d="M41.9231 33.2288C41.6494 32.5448 41.2847 31.9064 40.8743 31.3136C38.7767 28.2129 35.5393 26.1609 31.8914 25.6593C31.4355 25.6138 30.9339 25.7049 30.5691 25.9785C28.6539 27.3921 26.374 28.1217 24.0028 28.1217C21.6316 28.1217 19.3517 27.3921 17.4366 25.9785C17.0718 25.7049 16.5702 25.5681 16.1142 25.6593C12.4663 26.1609 9.18325 28.2129 7.13133 31.3136C6.72095 31.9064 6.35612 32.5904 6.08259 33.2288C5.94582 33.5024 5.99138 33.8216 6.12815 34.0952C6.49297 34.7335 6.94892 35.372 7.3593 35.9191C7.99766 36.7855 8.68166 37.5607 9.45687 38.2902C10.0952 38.9286 10.8248 39.5214 11.5544 40.1142C15.1567 42.8045 19.4886 44.218 23.9573 44.218C28.4259 44.218 32.7578 42.8045 36.3601 40.1142C37.0897 39.567 37.8192 38.9286 38.4577 38.2902C39.1872 37.5607 39.9168 36.7855 40.5552 35.9191C41.0112 35.3263 41.4216 34.7335 41.7864 34.0952C42.0143 33.8216 42.0598 33.5023 41.9231 33.2288Z" fill="#BFBFBF"/>
</svg>
