<svg viewBox="0 0 117 39" fill="none" xmlns="http://www.w3.org/2000/svg">
  <g clip-path="url(#clip0_6698_1513)">
    <path
      d="M38.553 19.0424C33.1729 17.7061 27.279 17.189 22.3414 17.9888C20.4121 23.7271 18.1271 28.9751 15.6883 31.6308C13.9958 33.4724 12.5487 33.9167 11.5298 33.9167C11.2228 33.918 10.9172 33.8758 10.6218 33.7914C9.28069 33.3934 8.33866 32.1574 8.01886 30.4023C7.4679 27.311 9.00366 22.6089 13.6704 19.0838C15.774 17.6133 18.1602 16.6072 20.6737 16.131C21.0104 15.0918 21.3463 14.0054 21.6814 12.8717C22.9916 8.46101 24.0365 4.17441 24.7696 0.806047C22.1331 0.0154433 19.3599 -0.195709 16.6361 0.186757C13.9123 0.569223 11.3009 1.53646 8.9771 3.02356C6.65331 4.51067 4.67089 6.48324 3.16288 8.80892C1.65487 11.1346 0.656152 13.7596 0.233739 16.5077C-0.188675 19.2558 -0.0250095 22.0635 0.713752 24.7425C1.45251 27.4214 2.74928 29.9095 4.51704 32.0398C6.2848 34.1702 8.48266 35.8936 10.9631 37.0942C13.4436 38.2949 16.1493 38.9451 18.8987 39.0012H19.6672C24.713 38.8978 29.5176 36.798 33.0501 33.1526C36.5825 29.5072 38.5613 24.6066 38.5617 19.5025C38.5648 19.3483 38.5561 19.1954 38.553 19.0424Z"
      fill="white" />
    <path
      d="M10.1475 30.0111C10.3074 30.9061 10.7183 31.5354 11.2321 31.6884C11.943 31.899 13.0157 31.3192 14.1003 30.1383C15.9156 28.1608 17.8765 24.2064 19.8746 18.5283C18.115 18.9841 16.4547 19.7671 14.9785 20.8374C11.027 23.8053 9.7137 27.5835 10.1475 30.0111Z"
      fill="white" />
    <path
      d="M38.3628 16.7013C37.8869 13.3843 36.5748 10.2469 34.5528 7.59123C32.5307 4.93556 29.8668 2.85096 26.8174 1.53809C25.9411 5.5301 24.6538 10.6892 23.084 15.6822C28.1962 15.0944 33.3712 15.4396 38.3628 16.7013Z"
      fill="white" />
    <path
      d="M55.5514 34.8123C56.2709 34.8123 56.4587 34.4425 56.4587 34.0677C56.4587 33.6929 56.2647 33.3632 55.6022 33.3632H53.7981V34.8048L55.5514 34.8123ZM55.5514 32.7916C56.0249 32.7916 56.2567 32.5258 56.2567 32.1767C56.2567 31.7755 56.0453 31.5418 55.513 31.5418H53.8006V32.7916H55.5514ZM53.1455 30.9739H55.5626C56.4872 30.9739 56.9012 31.3869 56.9012 32.0764C56.9153 32.2806 56.8606 32.4837 56.7461 32.6525C56.6315 32.8212 56.4638 32.9458 56.2703 33.0059C56.5177 33.0482 56.74 33.1837 56.8925 33.3851C57.045 33.5866 57.1163 33.839 57.0921 34.0915C57.0929 34.2691 57.0568 34.4449 56.9861 34.6075C56.9154 34.7701 56.8117 34.9159 56.6818 35.0354C56.5518 35.1549 56.3985 35.2454 56.2317 35.3011C56.065 35.3569 55.8885 35.3765 55.7138 35.3589H53.1455V30.9739Z"
      fill="white" />
    <path
      d="M58.5146 30.978H62.0113V31.5421H59.1604V32.8183H61.9264V33.3868H59.1604V34.8071H62.0733V35.3756H58.5146V30.978Z"
      fill="white" />
    <path d="M64.5881 31.5441H62.9414V30.98H66.8775V31.5441H65.2333V35.3775H64.5881V31.5441Z" fill="white" />
    <path d="M69.1384 31.5441H67.4941V30.98H71.4271V31.5441H69.7829V35.3775H69.1377L69.1384 31.5441Z" fill="white" />
    <path
      d="M72.5059 30.978H76.0025V31.5421H73.1517V32.8183H75.9145V33.3868H73.1517V34.8071H76.0645V35.3756H72.5059V30.978Z"
      fill="white" />
    <path
      d="M79.8725 32.9444C80.5059 32.9444 80.6571 32.5576 80.6571 32.2486C80.6571 31.8299 80.4061 31.5473 79.8892 31.5473H78.0684V32.9444H79.8725ZM77.4238 30.9813H80.1154C80.2709 30.9675 80.4274 30.9875 80.5746 31.04C80.7217 31.0925 80.8561 31.1763 80.9686 31.2856C81.0811 31.395 81.1691 31.5275 81.2267 31.6741C81.2844 31.8208 81.3104 31.9782 81.3029 32.1358C81.3212 32.3738 81.2588 32.611 81.1259 32.8083C80.9931 33.0057 80.7978 33.1514 80.5722 33.2214C80.9577 33.2766 81.1802 33.6401 81.2056 34.1566C81.2428 34.9764 81.2675 35.1782 81.4138 35.3519H80.7321C80.6267 35.2265 80.6267 35.0429 80.5982 34.5145C80.5555 33.7266 80.2927 33.4872 79.756 33.4872H78.069V35.3519H77.4238V30.9813Z"
      fill="white" />
    <path d="M85.2871 30.978H85.9323V34.8083H88.578V35.3768H85.2871V30.978Z" fill="white" />
    <path
      d="M89.7051 30.978H93.2017V31.5421H90.3509V32.8183H93.1137V33.3868H90.3478V34.8071H93.2606V35.3756H89.7051V30.978Z"
      fill="white" />
    <path
      d="M96.9778 33.0076H98.9759V35.3775H98.5135L98.402 34.7507C98.2009 34.9976 97.9452 35.1931 97.6556 35.3215C97.366 35.4499 97.0506 35.5075 96.7348 35.4897C96.4346 35.5156 96.1325 35.4761 95.8487 35.3738C95.5649 35.2716 95.306 35.1089 95.0896 34.8969C94.8732 34.6849 94.7043 34.4285 94.5943 34.1448C94.4842 33.8612 94.4356 33.557 94.4516 33.2527C94.4245 32.9392 94.4643 32.6235 94.5684 32.327C94.6726 32.0305 94.8386 31.7601 95.0551 31.5342C95.2717 31.3083 95.5338 31.1321 95.8236 31.0177C96.1134 30.9032 96.4242 30.8532 96.7348 30.8709C97.631 30.8709 98.6474 31.1599 98.9213 32.3689H98.2396C98.143 32.0624 97.942 31.8004 97.6723 31.6297C97.4027 31.4589 97.0819 31.3904 96.7671 31.4363C96.5387 31.4252 96.3107 31.4639 96.0984 31.5497C95.8861 31.6355 95.6946 31.7666 95.5367 31.9338C95.3789 32.1011 95.2585 32.3008 95.1837 32.5192C95.1089 32.7377 95.0813 32.9699 95.103 33.2001C95.0792 33.4317 95.1065 33.6657 95.1829 33.8854C95.2592 34.1051 95.3828 34.3049 95.5446 34.4705C95.7065 34.6361 95.9026 34.7634 96.1189 34.8431C96.3352 34.9229 96.5663 34.9532 96.7956 34.9319C97.1863 34.9625 97.5736 34.8394 97.8767 34.5882C98.1799 34.337 98.3754 33.9771 98.4224 33.5836H96.997L96.9778 33.0076Z"
      fill="white" />
    <path
      d="M102.316 31.5849L101.505 33.5279H103.155L102.316 31.5849ZM103.386 34.0964H101.254L100.701 35.3782H100.007L101.973 30.9819H102.71L104.679 35.3782H103.942L103.386 34.0964Z"
      fill="white" />
    <path d="M105.752 30.978H106.397V34.8083H109.04V35.3768H105.752V30.978Z" fill="white" />
    <path
      d="M49.4725 24.8502C49.4725 27.8525 48.295 28.8397 45.5767 28.8397H43.627V25.6644H44.3973C45.1906 25.6412 45.6219 25.4137 45.6219 24.5644V12.9487H49.4725V24.8502Z"
      fill="white" />
    <path
      d="M62.7735 24.8502H59.0346V23.2205H58.9775C58.5868 23.821 58.0559 24.3149 57.4317 24.6587C56.8075 25.0025 56.1092 25.1855 55.3984 25.1918C52.022 25.1918 51.0459 23.2205 51.0459 20.1054V12.9487H54.8989V19.8478C54.8989 21.4267 55.5807 21.9789 56.8028 21.9789C57.642 21.9789 58.91 21.4273 58.91 19.32V12.9487H62.763L62.7735 24.8502Z"
      fill="white" />
    <path
      d="M67.2346 20.9334C67.227 21.1898 67.2805 21.4444 67.3908 21.6755C67.501 21.9066 67.6647 22.1074 67.868 22.2609C68.2888 22.546 68.7873 22.6905 69.2935 22.674C70.0415 22.674 71.1056 22.3537 71.1056 21.4122C71.1056 20.4708 69.907 20.3122 69.2278 20.1536C66.8021 19.5331 63.7646 19.4642 63.7646 16.2569C63.7646 13.3931 66.8244 12.614 69.1361 12.614C71.7049 12.614 74.4133 13.3706 74.5589 16.465H70.9941C71.0102 16.2633 70.9723 16.0608 70.8844 15.879C70.7965 15.6971 70.6618 15.5425 70.4946 15.4314C70.1211 15.2211 69.6968 15.121 69.2699 15.1425C68.6365 15.1425 67.617 15.2121 67.617 16.0375C67.617 17.1607 70.2002 17.3651 71.9671 17.7549C74.3476 18.2369 74.958 19.9775 74.958 20.9647C74.958 24.14 71.9671 25.2024 69.3183 25.2024C66.5325 25.2024 63.6785 24.2622 63.5645 20.9403L67.2346 20.9334Z"
      fill="white" />
    <path d="M82.8726 8.48901H79.0195V24.8501H82.8726V8.48901Z" fill="white" />
    <path
      d="M89.3033 22.7892C91.1384 22.7892 91.752 21.7356 91.6584 19.2792C91.113 19.6227 90.1171 19.6922 89.2779 19.9198C88.4388 20.1473 87.6939 20.497 87.6939 21.4322C87.6939 22.3674 88.4419 22.7861 89.3009 22.7861L89.3033 22.7892ZM84.3174 16.6203C84.3184 15.9742 84.4888 15.34 84.8112 14.7822C85.1335 14.2244 85.5964 13.763 86.1525 13.445C87.3108 12.8575 88.5965 12.5736 89.8915 12.6196C92.6773 12.6196 95.3745 13.2376 95.3745 16.6059V21.802C95.2967 22.8396 95.4518 23.8816 95.8281 24.8501H91.9522C91.8326 24.4864 91.7569 24.1095 91.7266 23.7275C91.2104 24.2218 90.6014 24.6063 89.9356 24.8582C89.2699 25.1102 88.5609 25.2244 87.8506 25.1942C85.6071 25.1942 83.8408 24.0396 83.8408 21.5977C83.8408 17.7241 88.0105 18.0212 90.691 17.4728C91.3473 17.3343 91.7099 17.1061 91.7099 16.3728C91.7099 15.4777 90.6451 15.1342 89.8506 15.1342C89.4003 15.0762 88.9455 15.2 88.5848 15.4788C88.2242 15.7575 87.9867 16.1688 87.9238 16.6235L84.3174 16.6203Z"
      fill="white" />
    <path
      d="M110.715 24.8499H106.816L104.957 16.9436H104.911L103.076 24.8499H99.1803L95.5107 12.9573H99.4065L101.379 20.6555H101.424L103.098 12.9573H106.769L108.493 20.6329H108.539L110.46 12.9573H114.388L110.715 24.8499Z"
      fill="white" />
    <path d="M49.4817 7.50171H45.6113V11.416H49.4817V7.50171Z" fill="white" />
    <path d="M117 20.959H113.13V24.8733H117V20.959Z" fill="white" />
  </g>
  <defs>
    <clipPath id="clip0_6698_1513">
      <rect width="117" height="39" fill="white" />
    </clipPath>
  </defs>
</svg>