<svg width="257" height="60" viewBox="0 0 257 60" fill="none" xmlns="http://www.w3.org/2000/svg">
<path fill-rule="evenodd" clip-rule="evenodd" d="M53.3439 0V45.2951L26.6719 60L0 45.2951V0H53.3439ZM3.50615 3.96355H49.8377V6.45394H3.50615V3.96355ZM4.23347 8.30674L3.6414 7.24374H26.6765V9.84626H9.64534V13.4032L4.23347 11.2589L4.23347 9.84626V8.30674ZM43.6985 13.4032V9.84626H26.6765V7.24374H49.7117L49.1104 8.30674V9.84626L49.1104 11.2589L43.6985 13.4032ZM25.3351 12.164V45.9052L13.1885 39.2248L11.5973 36.1641V25.6343L16.9999 27.7787V39.7105L19.84 41.2225V12.164H25.3351ZM28.0087 45.9052V12.164H33.5038V41.2225L36.3439 39.7105V36.7689L41.7465 34.6337V36.1641L40.1646 39.2248L28.0087 45.9052ZM11.5625 40.8656L26.6813 49.1333L41.8001 40.8656V42.1651L26.6813 50.4328L11.5625 42.1651V40.8656ZM26.6813 51.1659L11.5625 42.9676V45.6946L26.6813 53.9015L41.8001 45.6946V42.9676L26.6813 51.1659Z" fill="white"/>
<path fill-rule="evenodd" clip-rule="evenodd" d="M203.294 45.141C202.617 45.5293 202.109 46.06 201.745 46.7589C201.38 47.4578 201.211 48.2603 201.211 49.1663C201.211 50.0723 201.393 50.8748 201.758 51.5737C202.122 52.2726 202.63 52.8162 203.281 53.2045C203.931 53.5928 204.673 53.774 205.519 53.774C206.17 53.774 206.743 53.6446 207.224 53.3728C207.706 53.1139 208.084 52.7904 208.344 52.4021L208.5 53.6964H209.632V48.7392H205.676V49.9947H208.201V50.2147C208.162 50.9266 207.901 51.4831 207.407 51.8714C206.912 52.2726 206.313 52.4668 205.584 52.4668C205.012 52.4668 204.504 52.3373 204.075 52.0526C203.645 51.7679 203.32 51.3796 203.085 50.8877C202.851 50.3959 202.747 49.8135 202.747 49.1663C202.747 48.5192 202.864 47.9497 203.098 47.4578C203.333 46.966 203.658 46.5777 204.088 46.293C204.517 46.0082 205.025 45.8658 205.598 45.8658C206.222 45.8658 206.743 46.0341 207.172 46.3577C207.602 46.6942 207.888 47.1472 208.044 47.7167H209.528C209.372 46.7589 208.943 45.9823 208.253 45.4128C207.55 44.8433 206.678 44.5586 205.637 44.5586C204.738 44.5586 203.958 44.7527 203.294 45.141ZM216.764 53.6963L220.174 44.6361H221.957L225.354 53.6963H223.753L222.894 51.4571H219.159L218.313 53.6963H216.764ZM219.575 50.1887H222.478L221.02 46.2411L219.575 50.1887ZM232.482 53.6963V44.6361H233.979V52.3761H237.896V53.6963H232.482ZM188.035 44.6361H193.983V45.9563H189.532V48.4673H193.202V49.7486H189.532V52.3761H194.14V53.6963H188.035V44.6361ZM175.283 44.6361V53.6963H180.698V52.3761H176.78V44.6361H175.283ZM159.785 44.6361C160.41 44.6361 160.969 44.7656 161.451 44.9985C161.92 45.2315 162.297 45.568 162.557 46.0081C162.818 46.4482 162.961 46.9529 162.961 47.5224C162.961 48.1308 162.792 48.6614 162.479 49.1144C162.154 49.5804 161.724 49.9039 161.191 50.0851L163.117 53.6963H161.451L159.72 50.4087H157.689V53.6963H156.193V44.6361H159.785ZM157.689 49.1144H159.668C160.202 49.1144 160.631 48.972 160.943 48.6873C161.256 48.4026 161.425 48.0143 161.425 47.5224C161.425 47.0435 161.256 46.6552 160.943 46.3705C160.631 46.0858 160.202 45.9304 159.668 45.9304H157.689V49.1144ZM148.613 44.6361H142.665V53.6963H148.77V52.3761H144.162V49.7486H147.832V48.4673H144.162V45.9563H148.613V44.6361ZM128.223 44.6361H135.343V45.9563H132.531V53.6963H131.034V45.9563H128.223V44.6361ZM121.421 44.6361H114.301V45.9563H117.113V53.6963H118.609V45.9563H121.421V44.6361ZM101.294 44.6361H107.242V45.9563H102.791V48.4673H106.462V49.7486H102.791V52.3761H107.399V53.6963H101.294V44.6361ZM92.5262 45.2574C91.9795 44.8432 91.1985 44.6361 90.2093 44.6361H86.8643V53.6963H90.3265C91.4068 53.6963 92.2398 53.4762 92.8255 53.0232C93.4112 52.5832 93.7106 51.9619 93.7106 51.1724C93.7106 49.9816 93.0208 49.2697 91.6671 49.0368C92.2138 48.9203 92.6303 48.6873 92.9166 48.3378C93.203 47.9884 93.3592 47.5354 93.3592 46.9918C93.3592 46.254 93.0728 45.6716 92.5262 45.2574ZM90.2484 48.4802H88.3611V45.8787H90.2484C90.756 45.8787 91.1465 45.9952 91.4328 46.2281C91.7192 46.4611 91.8624 46.7717 91.8624 47.173C91.8624 47.5871 91.7192 47.8978 91.4328 48.1308C91.1465 48.3637 90.756 48.4802 90.2484 48.4802ZM90.3395 52.4408H88.3611V49.7098H90.3395C90.9122 49.7098 91.3678 49.8392 91.6931 50.0722C92.0055 50.3181 92.1747 50.6546 92.1747 51.0947C92.1747 51.5218 92.0055 51.8583 91.6931 52.0913C91.3808 52.3243 90.9252 52.4408 90.3395 52.4408Z" fill="white"/>
<path fill-rule="evenodd" clip-rule="evenodd" d="M125.741 4.58369C124.93 4.26097 123.767 4.09961 122.252 4.09961C120.765 4.09961 119.359 4.3551 118.033 4.86607C116.735 5.37704 115.681 6.17039 114.869 7.24613C114.058 8.29497 113.652 9.65308 113.652 11.3205C113.652 12.8265 113.977 14.1174 114.626 15.1931C115.302 16.2419 116.194 17.1832 117.303 18.0169C118.412 18.8506 119.602 19.6708 120.873 20.4776C122.712 21.6072 124.2 22.7232 125.336 23.8259C126.471 24.9285 127.039 26.3 127.039 27.9405C127.039 29.5541 126.539 30.7643 125.538 31.5711C124.538 32.351 123.334 32.741 121.928 32.741C120.197 32.741 118.804 32.2838 117.749 31.3694C116.722 30.4551 115.951 29.2583 115.437 27.7792C114.95 26.2732 114.653 24.6596 114.545 22.9384H113.612C113.612 24.9823 113.598 26.6766 113.571 28.0212C113.571 29.339 113.558 30.4147 113.531 31.2484C113.531 32.0821 113.503 32.8082 113.449 33.4268H114.382C114.545 32.2435 114.842 31.6518 115.275 31.6518C115.599 31.6518 116.059 31.8401 116.654 32.2166C117.33 32.5662 118.128 32.9024 119.048 33.2251C119.994 33.5478 121.265 33.7092 122.861 33.7092C124.592 33.7092 126.187 33.4268 127.648 32.862C129.108 32.2973 130.271 31.4367 131.137 30.2803C132.002 29.1238 132.435 27.6716 132.435 25.9235C132.435 24.4444 132.124 23.1939 131.502 22.1719C130.907 21.15 130.082 20.2222 129.027 19.3885C127.972 18.5279 126.782 17.6673 125.457 16.8067C124.024 15.8923 122.78 15.0855 121.725 14.3863C120.697 13.6602 119.9 12.9206 119.332 12.1676C118.764 11.3877 118.48 10.433 118.48 9.30347C118.48 7.98569 118.912 6.93685 119.778 6.15695C120.67 5.37704 121.779 4.98709 123.104 4.98709C124.592 4.98709 125.809 5.40394 126.755 6.23763C127.729 7.04443 128.473 8.07982 128.987 9.34381C129.527 10.6078 129.838 11.9256 129.92 13.2971H130.853V8.90007C130.88 7.77055 130.907 6.86962 130.934 6.19729C130.988 5.52496 131.028 4.9333 131.055 4.42233H130.122C129.96 5.60563 129.663 6.19729 129.23 6.19729C129.041 6.19729 128.838 6.15695 128.621 6.07627C128.432 5.9687 128.175 5.82078 127.851 5.63253C127.256 5.25602 126.553 4.90641 125.741 4.58369ZM208.176 4.46272L218.034 29.7559C218.439 30.724 218.872 31.3964 219.332 31.7729C219.819 32.1225 220.265 32.3108 220.671 32.3376V33.1444C219.967 33.0907 219.115 33.0638 218.115 33.0638C217.141 33.0369 216.141 33.0234 215.113 33.0234C213.923 33.0234 212.814 33.0369 211.786 33.0638C210.759 33.0638 209.92 33.0907 209.271 33.1444V32.3376C210.65 32.2839 211.529 32.0553 211.908 31.6519C212.287 31.2216 212.206 30.3206 211.665 28.9491L209.2 22.3333H200.047L198.764 25.6412C198.061 27.4162 197.723 28.7877 197.75 29.7559C197.777 30.6972 198.102 31.356 198.724 31.7325C199.346 32.1091 200.225 32.3108 201.361 32.3376V33.1444C200.495 33.0907 199.657 33.0638 198.845 33.0638C198.034 33.0369 197.223 33.0234 196.411 33.0234C195.816 33.0234 195.249 33.0369 194.708 33.0638C194.194 33.0638 193.734 33.0907 193.328 33.1444V32.3376C193.923 32.2032 194.505 31.8536 195.073 31.2888C195.668 30.724 196.236 29.7424 196.777 28.344L206.066 4.46272C206.391 4.48961 206.743 4.50306 207.121 4.50306C207.5 4.50306 207.851 4.48961 208.176 4.46272ZM204.714 10.2954L208.899 21.5265H200.36L204.714 10.2954ZM256.522 4.58371V5.39051C255.981 5.57876 255.386 5.99561 254.737 6.64105C254.088 7.28649 253.547 8.32188 253.114 9.74722L245.771 33.2654C245.609 33.2654 245.433 33.252 245.244 33.2251H244.717H244.189C244.027 33.252 243.865 33.2654 243.703 33.2654L237.361 14.4063L231.167 33.2654C231.005 33.2654 230.829 33.252 230.64 33.2251H230.113H229.585C229.423 33.252 229.261 33.2654 229.098 33.2654L220.174 7.97227C219.822 6.97721 219.389 6.30488 218.876 5.95527C218.389 5.60565 217.942 5.4174 217.537 5.39051V4.58371C218.24 4.6106 219.092 4.63749 220.093 4.66439C221.093 4.69128 222.067 4.70473 223.013 4.70473C224.014 4.70473 224.934 4.69128 225.772 4.66439C226.61 4.63749 227.286 4.6106 227.8 4.58371V5.39051C227.178 5.44429 226.746 5.6191 226.502 5.91493C226.259 6.21075 226.151 6.60071 226.178 7.08479C226.232 7.54197 226.367 8.10673 226.583 8.77907L232.475 26.1651L236.877 12.9677L235.102 7.68989C234.805 6.77551 234.453 6.17041 234.048 5.87459C233.669 5.57876 233.277 5.4174 232.871 5.39051V4.58371C233.52 4.6106 234.305 4.63749 235.224 4.66439C236.171 4.69128 237.104 4.70473 238.023 4.70473C239.159 4.70473 240.227 4.69128 241.228 4.66439C242.229 4.63749 243.04 4.6106 243.662 4.58371V5.39051C242.824 5.4174 242.175 5.51153 241.715 5.67289C241.255 5.80735 240.985 6.11663 240.903 6.60071C240.849 7.05789 240.985 7.78401 241.309 8.77907L246.948 26.0293L251.207 12.6517C251.802 10.823 252.073 9.38417 252.019 8.33533C251.992 7.28649 251.681 6.54692 251.086 6.11663C250.491 5.65944 249.639 5.4174 248.53 5.39051V4.58371C249.423 4.6106 250.261 4.63749 251.045 4.66439C251.857 4.69128 252.668 4.70473 253.479 4.70473C254.101 4.70473 254.656 4.69128 255.142 4.66439C255.656 4.63749 256.116 4.6106 256.522 4.58371ZM182.84 5.39051V4.58371C182.137 4.6106 181.245 4.63749 180.163 4.66439C179.081 4.69128 177.986 4.70473 176.877 4.70473C175.66 4.70473 174.524 4.69128 173.469 4.66439C172.414 4.63749 171.549 4.6106 170.873 4.58371V5.39051C171.765 5.4174 172.428 5.52497 172.861 5.71323C173.321 5.87459 173.618 6.19731 173.753 6.68139C173.915 7.13857 173.997 7.86469 173.997 8.85974V28.8684C173.997 29.8365 173.915 30.5627 173.753 31.0467C173.618 31.5308 173.321 31.8535 172.861 32.0149C172.428 32.1763 171.765 32.2838 170.873 32.3376V33.1444C172.306 33.0906 173.834 33.0637 175.457 33.0637C177.107 33.0368 178.662 33.0234 180.122 33.0234H183.611C184.963 33.0234 186.505 33.0368 188.236 33.0637C189.967 33.0637 191.522 33.0906 192.901 33.1444C192.793 31.9611 192.712 30.8181 192.657 29.7155C192.63 28.6129 192.617 27.7657 192.617 27.1741C192.617 25.7488 192.657 24.5923 192.739 23.7049H191.806C191.589 25.5067 191.184 27.0396 190.589 28.3036C189.994 29.5676 189.209 30.5358 188.236 31.2081C187.262 31.8804 186.072 32.2166 184.666 32.2166H182.353C181.596 32.2166 181.015 32.1494 180.609 32.0149C180.203 31.8804 179.919 31.598 179.757 31.1678C179.622 30.7106 179.554 30.0517 179.554 29.1911V8.85974C179.554 7.86469 179.635 7.13857 179.798 6.68139C179.96 6.19731 180.271 5.87459 180.731 5.71323C181.218 5.52497 181.921 5.4174 182.84 5.39051ZM159.628 4.58371C159.52 5.8208 159.439 7.031 159.385 8.21431C159.358 9.37072 159.344 10.2582 159.344 10.8767C159.344 11.4953 159.358 12.0735 159.385 12.6114C159.412 13.1492 159.439 13.6199 159.466 14.0233H158.533C158.154 11.8718 157.695 10.191 157.154 8.98076C156.613 7.74367 155.896 6.85619 155.004 6.31833C154.138 5.78046 152.989 5.51153 151.555 5.51153H150.257V28.5053C150.257 29.6079 150.352 30.4282 150.541 30.9661C150.758 31.5039 151.177 31.867 151.799 32.0552C152.421 32.2166 153.327 32.3107 154.517 32.3376V33.1444C153.705 33.0906 152.651 33.0637 151.353 33.0637C150.054 33.0368 148.729 33.0234 147.377 33.0234C145.971 33.0234 144.646 33.0368 143.401 33.0637C142.184 33.0637 141.197 33.0906 140.44 33.1444V32.3376C141.603 32.3107 142.495 32.2166 143.118 32.0552C143.74 31.867 144.159 31.5039 144.375 30.9661C144.591 30.4282 144.7 29.6079 144.7 28.5053V5.51153H143.361C141.955 5.51153 140.805 5.78046 139.913 6.31833C139.02 6.85619 138.304 7.74367 137.763 8.98076C137.222 10.191 136.776 11.8718 136.424 14.0233H135.491C135.545 13.6199 135.572 13.1492 135.572 12.6114C135.599 12.0735 135.613 11.4953 135.613 10.8767C135.613 10.2582 135.586 9.37072 135.531 8.21431C135.504 7.031 135.437 5.8208 135.329 4.58371C136.519 4.6106 137.83 4.63749 139.264 4.66439C140.697 4.69128 142.13 4.70473 143.564 4.70473H147.499H151.393C152.827 4.70473 154.26 4.69128 155.693 4.66439C157.127 4.63749 158.438 4.6106 159.628 4.58371ZM110.304 4.58371V5.39051C109.438 5.47119 108.775 5.67289 108.316 5.99561C107.883 6.29143 107.586 6.77551 107.423 7.44785C107.261 8.09329 107.18 9.02111 107.18 10.2313V21.4055C107.18 23.2073 107.058 24.8209 106.815 26.2463C106.598 27.6716 106.166 28.9087 105.517 29.9576C104.84 31.0871 103.826 32.0014 102.474 32.7007C101.149 33.373 99.5262 33.7092 97.606 33.7092C96.3079 33.7092 95.0233 33.5613 93.7522 33.2654C92.5081 32.9696 91.4128 32.4183 90.4662 31.6115C89.6278 30.9123 88.9652 30.1189 88.4784 29.2314C88.0187 28.344 87.7077 27.2817 87.5454 26.0446C87.3831 24.7806 87.302 23.2746 87.302 21.5265V8.85974C87.302 7.86469 87.2209 7.13857 87.0586 6.68139C86.9234 6.19731 86.6259 5.87459 86.1661 5.71323C85.7334 5.52497 85.0708 5.4174 84.1783 5.39051V4.58371C84.8544 4.6106 85.7199 4.63749 86.7746 4.66439C87.8294 4.69128 88.9652 4.70473 90.1823 4.70473C91.2911 4.70473 92.3864 4.69128 93.4682 4.66439C94.55 4.63749 95.4424 4.6106 96.1456 4.58371V5.39051C95.2261 5.4174 94.5229 5.52497 94.0361 5.71323C93.5764 5.87459 93.2653 6.19731 93.1031 6.68139C92.9408 7.13857 92.8597 7.86469 92.8597 8.85974V23.4628C92.8597 25.2647 93.0219 26.8245 93.3465 28.1423C93.671 29.46 94.2525 30.482 95.0909 31.2081C95.9293 31.9342 97.1463 32.2973 98.7419 32.2973C100.716 32.2973 102.244 31.8535 103.326 30.9661C104.408 30.0786 105.165 28.8415 105.598 27.2548C106.03 25.6681 106.247 23.8662 106.247 21.8492V10.554C106.247 9.23625 106.152 8.22775 105.963 7.52853C105.774 6.8293 105.395 6.31833 104.827 5.99561C104.286 5.67289 103.475 5.47119 102.393 5.39051V4.58371C102.907 4.6106 103.569 4.63749 104.381 4.66439C105.219 4.69128 105.99 4.70473 106.693 4.70473C107.369 4.70473 108.032 4.69128 108.681 4.66439C109.357 4.63749 109.898 4.6106 110.304 4.58371ZM68.1721 39.9215V40.7283C71.0118 40.7283 73.2836 40.0963 74.9874 38.8324C76.6912 37.5953 77.8 36.0354 78.3139 34.1529C78.5573 33.2385 78.7196 32.1763 78.8007 30.9661C78.9089 29.7559 78.963 28.5053 78.963 27.2144C78.99 25.9236 79.0035 24.7268 79.0035 23.6242V8.85974C79.0035 7.86469 79.0711 7.13857 79.2064 6.68139C79.3686 6.19731 79.6661 5.87459 80.0988 5.71323C80.5586 5.52497 81.2347 5.4174 82.1272 5.39051V4.58371C81.424 4.6106 80.518 4.63749 79.4092 4.66439C78.3274 4.69128 77.2186 4.70473 76.0827 4.70473C74.9468 4.70473 73.8515 4.69128 72.7968 4.66439C71.7691 4.63749 70.9442 4.6106 70.3222 4.58371V5.39051C71.1876 5.4174 71.8502 5.52497 72.31 5.71323C72.7697 5.87459 73.0672 6.19731 73.2024 6.68139C73.3647 7.13857 73.4458 7.86469 73.4458 8.85974V31.0064C73.4458 33.2385 73.243 35 72.8373 36.2909C72.4317 37.5818 71.8232 38.4962 71.0118 39.034C70.2275 39.5719 69.281 39.8677 68.1721 39.9215Z" fill="white"/>
</svg>
