<svg width="256" height="53" viewBox="0 0 256 53" fill="none" xmlns="http://www.w3.org/2000/svg">
  <path
    d="M13.2912 26.3984C8.70798 32.502 8.65705 37.5375 9.67555 38.3514C9.93018 38.5548 11.0505 38.3005 12.8329 36.266C15.3282 33.3667 17.9763 27.3139 20.1661 20.8542C17.1615 22.4819 14.5644 24.7708 13.2912 26.3984Z"
    fill="url(#paint0_radial_5790_24916)" />
  <path
    d="M28.569 0.203455C28.1106 3.45873 26.7866 9.46065 24.9024 15.8695C26.5829 15.5643 28.3143 15.8695 29.4856 16.785C29.7402 16.9885 30.0458 17.2428 30.3004 17.7006C30.4023 17.5988 30.555 17.4971 30.6569 17.3954C32.8976 15.8186 36.1059 15.666 37.9901 17.0393C38.1938 17.1919 38.5503 17.4971 38.8049 17.8532C39.0086 17.7006 39.2123 17.4971 39.416 17.3445C41.6567 15.7678 44.865 15.6152 46.7492 16.9885C47.5131 17.548 49.1427 19.1756 48.0223 22.4309C46.6983 26.2965 44.865 30.6708 43.9483 32.9088H40.6891C41.2493 31.6372 43.6428 26.0931 45.2215 21.4645C45.5779 20.4472 45.4761 19.7351 45.0178 19.3282C44.2539 18.7687 42.4715 18.7687 41.1984 19.6843C40.8419 19.9386 40.4854 20.2438 40.129 20.8541C39.7725 21.4136 39.1105 23.0413 38.8558 23.8042C37.5827 27.3138 36.1059 30.9251 35.2401 32.9088H31.9809C32.5411 31.6372 34.9346 26.0931 36.5133 21.4645C36.8697 20.4472 36.7679 19.7351 36.3096 19.3282C35.5457 18.7687 33.7633 18.7687 32.4902 19.6843C31.93 20.0912 31.268 20.7015 30.606 22.38C29.231 26.3983 27.3468 30.8234 26.481 32.8071H23.2218C23.2218 32.8071 23.2218 32.7562 23.2218 32.7054C23.2728 32.6545 26.0736 26.2457 27.856 21.0067C28.2125 19.9894 28.1616 19.2774 27.7032 18.9213C26.9903 18.3618 25.2588 18.3618 23.8839 19.2265C21.4904 26.7543 18.4349 34.2313 15.1757 38.0461C13.0368 40.5384 11.2544 41.1996 9.98131 41.1996C8.91189 41.1996 8.19894 40.7418 7.89338 40.4875C5.19436 38.3004 5.65268 31.5864 10.9998 24.4655C12.8331 22.024 17.009 18.6161 21.5413 16.785C23.5274 10.2745 25.0551 3.86564 25.6662 0C11.3563 0.610365 0 12.2582 0 26.5509C0 41.1488 11.8655 53 26.481 53C41.0965 53 52.9621 41.1488 52.9621 26.5509C52.9621 12.6142 42.2169 1.22073 28.569 0.203455Z"
    fill="url(#paint1_radial_5790_24916)" />
  <path
    d="M67.9337 33.7222C67.9337 37.7913 66.3041 39.1137 62.5866 39.1137H59.9385V34.8412H61.0079C62.0773 34.7903 62.6884 34.4851 62.6884 33.3661V17.5984H67.9846V33.7222H67.9337Z"
    fill="white" />
  <path
    d="M86.2162 33.7223H81.0728V31.5352H81.0218C80.0033 33.1628 77.9663 34.1801 76.133 34.1801C71.4989 34.1801 70.1748 31.5352 70.1748 27.3135V17.6494H75.471V27.0083C75.471 29.1446 76.3877 29.9076 78.0682 29.9076C79.2395 29.9076 80.9709 29.1446 80.9709 26.2962V17.6494H86.2671V33.7223H86.2162Z"
    fill="white" />
  <path
    d="M92.4284 28.4325C92.4284 29.2463 92.7849 29.8058 93.2942 30.2127C93.8034 30.5687 94.5164 30.7722 95.2293 30.7722C96.2478 30.7722 97.7246 30.3144 97.7246 29.0428C97.7246 27.8221 96.095 27.5678 95.1275 27.3135C91.8173 26.4996 87.6415 26.3979 87.6415 22.0236C87.6415 18.158 91.8173 17.0898 95.0256 17.0898C98.5904 17.0898 102.257 18.1071 102.461 22.2779H97.5719C97.5719 21.6167 97.3172 21.1589 96.9098 20.9046C96.4515 20.6503 95.8913 20.4977 95.2293 20.4977C94.3636 20.4977 92.9377 20.5994 92.9377 21.7184C92.9377 23.2444 96.5024 23.4987 98.8959 24.0582C102.155 24.7194 102.97 27.0591 102.97 28.3816C102.97 32.705 98.8959 34.1292 95.2293 34.1292C91.4099 34.1292 87.4887 32.8576 87.3359 28.3816H92.4284V28.4325Z"
    fill="white" />
  <path
    d="M109.029 17.5989H114.173V19.786H114.224C115.191 18.1584 116.872 17.1411 118.858 17.1411C120.895 17.1411 122.677 17.8023 123.543 19.7352C124.816 18.0058 126.395 17.1411 128.585 17.1411C133.728 17.1411 134.288 21.0068 134.288 24.1094V33.7227H128.992V24.262C128.992 22.5327 128.177 21.5154 126.802 21.5154C124.511 21.5154 124.307 23.2448 124.307 25.8388V33.7227H119.011V24.5672C119.011 22.6853 118.45 21.5154 117.025 21.5154C115.14 21.5154 114.326 22.5835 114.326 25.8897V33.7227H109.029V17.5989Z"
    fill="white" />
  <path
    d="M140.859 26.9577C140.96 29.1449 142.234 30.6199 144.474 30.6199C145.747 30.6199 146.97 30.0096 147.479 28.8397H152.419C151.451 32.5527 147.988 34.1804 144.423 34.1804C139.178 34.1804 135.613 31.0268 135.613 25.6353C135.613 20.7015 139.535 17.1919 144.321 17.1919C150.076 17.1919 152.979 21.5153 152.724 27.0086H140.859V26.9577ZM147.377 24.0076C147.275 22.2274 146.002 20.7015 144.22 20.7015C142.335 20.7015 141.113 22.0239 140.808 24.0076H147.377Z"
    fill="white" />
  <path
    d="M169.835 33.7225H164.794V31.8405H164.743C163.724 33.3664 162.146 34.1803 160.312 34.1803C155.271 34.1803 153.132 29.8568 153.132 25.33C153.132 21.1591 155.373 17.1918 159.956 17.1918C161.942 17.1918 163.47 17.9547 164.539 19.3789H164.59V11.5459H169.886V33.7225H169.835ZM158.377 25.4826C158.377 27.6697 159.192 30.1112 161.585 30.1112C164.183 30.1112 164.743 27.6697 164.743 25.6352C164.743 23.2954 163.928 21.1591 161.585 21.1591C159.141 21.21 158.377 23.448 158.377 25.4826Z"
    fill="white" />
  <path d="M177.422 15.6154H172.126V11.5972H177.422V15.6154ZM172.126 17.5991H177.422V33.672H172.126V17.5991Z"
    fill="white" />
  <path
    d="M179.46 22.5835C179.562 20.4981 180.529 19.1248 181.955 18.2601C183.381 17.4463 185.265 17.1411 187.098 17.1411C190.918 17.1411 194.635 17.9549 194.635 22.5327V29.6027C194.635 30.976 194.635 32.4511 195.247 33.7227H189.95C189.747 33.2141 189.696 32.7054 189.645 32.1968C188.27 33.621 186.284 34.1805 184.349 34.1805C181.293 34.1805 178.849 32.6546 178.849 29.2975C178.849 24.0586 184.552 24.4655 188.219 23.7025C189.135 23.4991 189.594 23.1939 189.594 22.2275C189.594 21.0068 188.117 20.549 187.048 20.549C185.571 20.549 184.654 21.2102 184.399 22.5835H179.46ZM186.284 30.9252C188.779 30.9252 189.645 29.501 189.492 26.1949C188.728 26.6526 187.404 26.7544 186.233 27.0595C185.061 27.3139 184.043 27.8225 184.043 29.0941C184.094 30.4165 185.112 30.9252 186.284 30.9252Z"
    fill="white" />
  <path
    d="M206.348 21.0066H203.089V28.331C203.089 29.6026 203.853 29.8569 204.973 29.8569C205.431 29.8569 205.89 29.806 206.348 29.806V33.6717C205.38 33.7225 204.413 33.8243 203.445 33.8243C198.964 33.8243 197.793 32.5018 197.793 28.1275V21.0066H195.145V17.5987H197.793V12.7158H203.089V17.5987H206.348V21.0066Z"
    fill="white" />
  <path d="M212.713 15.6147H207.417V11.5964H212.713V15.6147ZM207.417 17.5984H212.713V33.6713H207.417V17.5984Z"
    fill="white" />
  <path
    d="M222.695 17.1411C227.685 17.1411 231.199 20.8542 231.199 25.6862C231.199 30.5183 227.685 34.1805 222.695 34.1805C217.704 34.1805 214.241 30.5183 214.241 25.6862C214.241 20.8542 217.704 17.1411 222.695 17.1411ZM222.695 30.1622C225.139 30.1622 225.903 27.7208 225.903 25.6862C225.903 23.6517 225.139 21.2102 222.695 21.2102C220.25 21.2102 219.486 23.6517 219.486 25.6862C219.486 27.7208 220.25 30.1622 222.695 30.1622Z"
    fill="white" />
  <path
    d="M232.472 17.5989H237.615V19.786H237.666C238.634 18.1584 240.824 17.1411 242.708 17.1411C248.055 17.1411 248.513 21.0576 248.513 23.3974V33.7227H243.217V25.9405C243.217 23.7534 243.472 21.5154 240.569 21.5154C238.583 21.5154 237.717 23.1939 237.717 24.9741V33.7736H232.421V17.5989H232.472Z"
    fill="white" />
  <path d="M67.9339 10.2742H62.6377V15.564H67.9339V10.2742Z" fill="white" />
  <path d="M255.999 28.3821H250.703V33.6719H255.999V28.3821Z" fill="white" />
  <path
    d="M60.5088 43.1936H64.6358C66.2231 43.1936 66.9215 43.8912 66.9215 45.0326C66.9215 45.9205 66.4135 46.3644 65.8421 46.618C66.6675 46.8083 67.2389 47.379 67.2389 48.4571C67.2389 49.5351 66.477 50.6132 64.8897 50.6132H60.5088V43.1936ZM64.6358 46.2375C65.4612 46.2375 65.8421 45.7936 65.8421 45.2229C65.8421 44.5253 65.4612 44.1448 64.5723 44.1448H61.6516V46.2375H64.6358ZM64.5723 49.662C65.7786 49.662 66.0961 49.0278 66.0961 48.3937C66.0961 47.8229 65.7786 47.1888 64.6358 47.1888H61.5881V49.5986H64.5723V49.662Z"
    fill="white" />
  <path
    d="M69.6504 43.1929H75.6186V44.1441H70.7298V46.3002H75.4282V47.2514H70.7298V49.6612H75.6821V50.6125H69.5869V43.1929H69.6504Z"
    fill="white" />
  <path d="M80.0007 44.1441H77.207V43.1929H83.9372V44.1441H81.1435V50.6125H80.0642V44.1441H80.0007Z" fill="white" />
  <path d="M87.7468 44.1441H84.9531V43.1929H91.6833V44.1441H88.8896V50.6125H87.8103V44.1441H87.7468Z" fill="white" />
  <path
    d="M93.5234 43.1929H99.4917V44.1441H94.6028V46.3002H99.3012V47.2514H94.6028V49.6612H99.5552V50.6125H93.46V43.1929H93.5234Z"
    fill="white" />
  <path
    d="M101.904 43.1929H106.476C107.936 43.1929 108.507 44.2075 108.507 45.1587C108.507 46.0466 108.063 46.7441 107.238 46.9978C107.873 47.0612 108.253 47.6954 108.317 48.5832C108.38 49.9783 108.444 50.2954 108.698 50.6125H107.555C107.365 50.4222 107.365 50.1051 107.301 49.2173C107.238 47.8856 106.793 47.5051 105.841 47.5051H102.984V50.6759H101.904V43.1929ZM106.095 46.4905C107.174 46.4905 107.428 45.8563 107.428 45.2856C107.428 44.588 106.984 44.0807 106.095 44.0807H102.984V46.427H106.095V46.4905Z"
    fill="white" />
  <path
    d="M115.238 43.1929H118.984C121.207 43.1929 122.222 44.6514 122.222 46.8075C122.222 48.9003 121.334 50.6125 119.048 50.6125H115.238V43.1929ZM119.048 49.6612C120.826 49.6612 121.207 48.1393 121.207 46.8075C121.207 45.4758 120.762 44.1441 118.857 44.1441H116.381V49.6612H119.048Z"
    fill="white" />
  <path d="M124.635 43.1929H125.714V50.6125H124.635V43.1929Z" fill="white" />
  <path
    d="M128.952 48.2027C128.952 49.5345 130.222 49.8515 131.365 49.8515C132.508 49.8515 133.397 49.4076 133.397 48.5832C133.397 47.8857 132.889 47.632 132 47.5052L130.286 47.2515C129.397 47.1247 128.064 46.7442 128.064 45.2856C128.064 43.9539 129.143 43.0027 131.048 43.0027C132.508 43.0027 134.095 43.5734 134.222 45.349H133.079C133.016 44.7783 132.635 43.9539 130.857 43.9539C130.032 43.9539 129.143 44.271 129.143 45.1588C129.143 45.6027 129.46 45.9832 130.349 46.11L132.19 46.4271C132.762 46.5539 134.413 46.8076 134.413 48.3296C134.413 50.232 132.698 50.7393 131.238 50.7393C129.587 50.7393 127.81 50.1686 127.81 48.1393H128.952V48.2027Z"
    fill="white" />
  <path
    d="M136.509 43.1929H140.318C141.969 43.1929 142.794 43.9539 142.794 45.349C142.794 46.7441 141.969 47.6954 140.382 47.6954H137.588V50.6125H136.509V43.1929ZM140.255 46.6807C141.334 46.6807 141.715 46.11 141.715 45.349C141.715 44.6514 141.271 44.1441 140.445 44.1441H137.588V46.6807H140.255Z"
    fill="white" />
  <path
    d="M144.952 43.1929H146.031V47.949C146.031 49.2807 146.92 49.8515 148.317 49.8515C149.651 49.8515 150.603 49.2807 150.603 47.949V43.1929H151.682V47.8222C151.682 49.7881 150.603 50.8027 148.317 50.8027C146.032 50.8027 144.952 49.7881 144.952 47.8222V43.1929Z"
    fill="white" />
  <path d="M156.317 44.1441H153.523V43.1929H160.254V44.1441H157.46V50.6125H156.381V44.1441H156.317Z" fill="white" />
  <path
    d="M162.031 43.1929H167.999V44.1441H163.111V46.3002H167.809V47.2514H163.111V49.6612H168.063V50.6125H161.968V43.1929H162.031Z"
    fill="white" />
  <path
    d="M174.921 43.1929H179.492C180.953 43.1929 181.524 44.2075 181.524 45.1587C181.524 46.0466 181.08 46.7441 180.254 46.9978C180.889 47.0612 181.27 47.6954 181.334 48.5832C181.397 49.9783 181.461 50.2954 181.715 50.6125H180.572C180.381 50.4222 180.381 50.1051 180.318 49.2173C180.254 47.8856 179.81 47.5051 178.857 47.5051H176V50.6759H174.921V43.1929ZM179.111 46.4905C180.191 46.4905 180.445 45.8563 180.445 45.2856C180.445 44.588 180 44.0807 179.111 44.0807H176V46.427H179.111V46.4905Z"
    fill="white" />
  <path
    d="M183.81 43.1929H189.778V44.1441H184.889V46.3002H189.587V47.2514H184.889V49.6612H189.841V50.6125H183.746V43.1929H183.81Z"
    fill="white" />
  <path
    d="M192.635 48.2027C192.635 49.5345 193.905 49.8515 195.048 49.8515C196.191 49.8515 197.079 49.4076 197.079 48.5832C197.079 47.8857 196.572 47.632 195.683 47.5052L193.968 47.2515C193.079 47.1247 191.746 46.7442 191.746 45.2856C191.746 43.9539 192.826 43.0027 194.73 43.0027C196.191 43.0027 197.778 43.5734 197.905 45.349H196.826C196.762 44.7783 196.381 43.9539 194.603 43.9539C193.778 43.9539 192.889 44.271 192.889 45.1588C192.889 45.6027 193.206 45.9832 194.095 46.11L195.937 46.4271C196.508 46.5539 198.159 46.8076 198.159 48.3296C198.159 50.232 196.445 50.7393 194.984 50.7393C193.333 50.7393 191.556 50.1686 191.556 48.1393H192.635V48.2027Z"
    fill="white" />
  <path
    d="M203.81 43.0027C206.794 43.0027 207.937 44.9686 207.937 46.871C207.937 48.7735 206.794 50.7393 203.81 50.7393C200.825 50.7393 199.683 48.7735 199.683 46.871C199.683 44.9686 200.825 43.0027 203.81 43.0027ZM203.81 43.9539C202.095 43.9539 200.762 44.9051 200.762 46.871C200.762 48.8369 202.095 49.7881 203.81 49.7881C205.524 49.7881 206.857 48.8369 206.857 46.871C206.857 44.9051 205.524 43.9539 203.81 43.9539Z"
    fill="white" />
  <path d="M210.222 43.1929H211.301V49.6612H215.809V50.6125H210.222V43.1929Z" fill="white" />
  <path
    d="M217.714 43.1929H218.793V47.949C218.793 49.2807 219.682 49.8515 221.079 49.8515C222.412 49.8515 223.365 49.2807 223.365 47.949V43.1929H224.444V47.8222C224.444 49.7881 223.365 50.8027 221.079 50.8027C218.793 50.8027 217.714 49.7881 217.714 47.8222V43.1929Z"
    fill="white" />
  <path d="M229.08 44.1441H226.286V43.1929H233.016V44.1441H230.223V50.6125H229.143V44.1441H229.08Z" fill="white" />
  <path d="M234.92 43.1929H235.999V50.6125H234.92V43.1929Z" fill="white" />
  <path
    d="M242.476 43.0027C245.46 43.0027 246.603 44.9686 246.603 46.871C246.603 48.7735 245.46 50.7393 242.476 50.7393C239.491 50.7393 238.349 48.7735 238.349 46.871C238.349 44.9686 239.491 43.0027 242.476 43.0027ZM242.476 43.9539C240.761 43.9539 239.428 44.9051 239.428 46.871C239.428 48.8369 240.761 49.7881 242.476 49.7881C244.19 49.7881 245.523 48.8369 245.523 46.871C245.523 44.9051 244.19 43.9539 242.476 43.9539Z"
    fill="white" />
  <path d="M249.968 44.7148V50.6125H248.889V43.1929H250.159L254.92 49.0905V43.1929H256V50.6125H254.73L249.968 44.7148Z"
    fill="white" />
  <defs>
    <radialGradient id="paint0_radial_5790_24916" cx="0" cy="0" r="1" gradientUnits="userSpaceOnUse"
      gradientTransform="translate(18.743 15.0703) scale(19.0615 19.0385)">
      <stop stop-color="white" />
      <stop offset="1" stop-color="white" />
    </radialGradient>
    <radialGradient id="paint1_radial_5790_24916" cx="0" cy="0" r="1" gradientUnits="userSpaceOnUse"
      gradientTransform="translate(18.7432 15.0702) scale(19.0615 19.0385)">
      <stop stop-color="white" />
      <stop offset="1" stop-color="white" />
    </radialGradient>
  </defs>
</svg>